SplineFontDB: 3.0
FontName: KAN-KaveriBoldItalic
FullName: KAN Kaveri Bold Italic
FamilyName: KAN Kaveri
Weight: Bold
Copyright: Copyright (c) 2009-2015, NLCI (http://www.nlci.in/fonts/)
Version: 1.0 Wed May 17 15:32:13 1995
ItalicAngle: 12
UnderlinePosition: -290
UnderlineWidth: 20
Ascent: 800
Descent: 200
InvalidEm: 0
LayerCount: 2
Layer: 0 0 "Back" 1
Layer: 1 0 "Fore" 0
XUID: [1021 122 585067096 5556871]
FSType: 0
OS2Version: 0
OS2_WeightWidthSlopeOnly: 0
OS2_UseTypoMetrics: 1
CreationTime: 1250825690
ModificationTime: 1533324730
PfmFamily: 81
TTFWeight: 700
TTFWidth: 5
LineGap: 0
VLineGap: 0
Panose: 2 0 0 3 0 0 0 0 0 0
OS2TypoAscent: -72
OS2TypoAOffset: 1
OS2TypoDescent: -196
OS2TypoDOffset: 1
OS2TypoLinegap: 0
OS2WinAscent: -228
OS2WinAOffset: 1
OS2WinDescent: -104
OS2WinDOffset: 1
HheadAscent: -228
HheadAOffset: 1
HheadDescent: 104
HheadDOffset: 1
OS2SubXSize: 700
OS2SubYSize: 650
OS2SubXOff: 0
OS2SubYOff: 143
OS2SupXSize: 700
OS2SupYSize: 650
OS2SupXOff: 0
OS2SupYOff: 453
OS2StrikeYSize: 50
OS2StrikeYPos: 259
OS2Vendor: 'Alts'
OS2UnicodeRanges: 00000000.00000000.00000000.00000000
Lookup: 262 0 0 "blwm" { "blwm-2sub"  } []
MarkAttachClasses: 1
DEI: 91125
TtTable: prep
NPUSHB
 1
 1
SCANTYPE
PUSHW_1
 511
SCANCTRL
EndTTInstrs
ShortTable: maxp 16
  1
  0
  319
  206
  5
  177
  6
  2
  8
  64
  10
  0
  3
  417
  4
  2
EndShort
LangName: 1033 "" "" "Bold Italic" "NLCI:KAN Kaveri Bold Italic" "" "1.0 Wed May 17 15:32:13 1995"
Encoding: Original
UnicodeInterp: none
NameList: Adobe Glyph List
DisplaySize: -48
AntiAlias: 1
FitToEm: 1
BeginPrivate: 0
EndPrivate
AnchorClass2: "Sub" "blwm-2sub" "Nukta"""  "s"""  "V""" 
BeginChars: 607 607

StartChar: .notdef
Encoding: 0 -1 0
Width: 500
Flags: HW
LayerCount: 2
Fore
SplineSet
31 0 m 1
 31 604 l 1
 469 604 l 1
 469 0 l 1
 31 0 l 1
438 31 m 1
 438 573 l 1
 62 573 l 1
 62 31 l 1
 438 31 l 1
EndSplineSet
EndChar

StartChar: exclam
Encoding: 4 33 4
Width: 272
VWidth: 500
Flags: HW
LayerCount: 2
Fore
SplineSet
79 3.5 m 0
 75.6669921875 6.5 74 10.3330078125 74 15 c 0
 74 19 l 0
 91 121 l 0
 93 135 101 142 115 142 c 0
 201 142 l 0
 213 142 219 137 219 127 c 0
 219 121 l 0
 202 19 l 0
 200.666992188 5.6669921875 192.666992188 -1 178 -1 c 0
 92 -1 l 0
 86.6669921875 -1 82.3330078125 0.5 79 3.5 c 0
179 739 m 0
 327 739 l 0
 221 203 l 0
 112 203 l 0
 179 739 l 0
EndSplineSet
EndChar

StartChar: quotedbl
Encoding: 5 34 5
Width: 400
VWidth: 500
Flags: HW
LayerCount: 2
Fore
SplineSet
431 685 m 0
 431 681.666666667 429.166666667 674 425.5 662 c 0
 421.833333333 650 417.083333333 635.666666667 411.25 619 c 0
 405.416666667 602.333333333 398.916666667 584.25 391.75 564.75 c 0
 384.583333333 545.25 377.666666667 526.5 371 508.5 c 0
 364.333333333 490.5 358.333333333 474.166666667 353 459.5 c 0
 347.666666667 444.833333333 343.666666667 434 341 427 c 0
 303 427 l 0
 311.5 666.5 l 0
 311.833333333 675.833333333 314 684.416666667 318 692.25 c 0
 322 700.083333333 327.333333333 706.833333333 334 712.5 c 0
 340.666666667 718.166666667 348.166666667 722.666666667 356.5 726 c 0
 364.833333333 729.333333333 373.333333333 731 382 731 c 0
 397 731 408.916666667 727.333333333 417.75 720 c 0
 426.583333333 712.666666667 431 701 431 685 c 0
230.5 685 m 0
 230.5 681.666666667 228.666666667 674 225 662 c 0
 221.333333333 650 216.583333333 635.666666667 210.75 619 c 0
 204.916666667 602.333333333 198.416666667 584.25 191.25 564.75 c 0
 184.083333333 545.25 177.166666667 526.5 170.5 508.5 c 0
 163.833333333 490.5 157.75 474.166666667 152.25 459.5 c 0
 146.75 444.833333333 142.833333333 434 140.5 427 c 0
 102.5 427 l 0
 109.5 666.5 l 0
 109.833333333 675.833333333 112.166666667 684.416666667 116.5 692.25 c 0
 120.833333333 700.083333333 126.333333333 706.833333333 133 712.5 c 0
 139.666666667 718.166666667 147.166666667 722.666666667 155.5 726 c 0
 163.833333333 729.333333333 172.333333333 731 181 731 c 0
 196 731 208 727.333333333 217 720 c 0
 226 712.666666667 230.5 701 230.5 685 c 0
EndSplineSet
Refer: 10 39 N 1 0 0 1 182 0 2
Refer: 10 39 N 1 0 0 1 0 0 2
EndChar

StartChar: numbersign
Encoding: 6 35 6
Width: 723
VWidth: 500
Flags: HW
LayerCount: 2
Fore
SplineSet
453 306 m 0
 492 425 l 0
 374 425 l 0
 334 306 l 0
 453 306 l 0
199 207 m 0
 48 207 l 0
 79 306 l 0
 234 306 l 0
 274 425 l 0
 117 425 l 0
 149 524 l 0
 309 524 l 0
 380 732 l 0
 480 732 l 0
 409 524 l 0
 523 524 l 0
 593 732 l 0
 693 732 l 0
 623 524 l 0
 793 524 l 0
 763 425 l 0
 592 425 l 0
 552 306 l 0
 723 306 l 0
 693 207 l 0
 514 207 l 0
 444 0 l 0
 344 0 l 0
 414 207 l 0
 299 207 l 0
 229 0 l 0
 129 0 l 0
 199 207 l 0
EndSplineSet
EndChar

StartChar: dollar
Encoding: 7 36 7
Width: 609
VWidth: 500
Flags: HW
LayerCount: 2
Fore
SplineSet
270 513 m 0
 268.666992188 502.333007812 268 495 268 491 c 0
 268 472.333007812 273.333007812 458.833007812 284 450.5 c 0
 294.666992188 442.166992188 311.666992188 438 335 438 c 0
 398 438 l 0
 458.666992188 438 505.333007812 423.833007812 538 395.5 c 0
 570.666992188 367.166992188 587 329.333007812 587 282 c 0
 587 270.666992188 586 257.333007812 584 242 c 0
 574 173 l 0
 564.666992188 114.333007812 541.833007812 70.8330078125 505.5 42.5 c 0
 469.166992188 14.1669921875 414.333007812 -1.6669921875 341 -5 c 0
 328 -89 l 0
 244 -89 l 0
 257 -5 l 0
 182.333007812 -2.3330078125 117.333007812 5.3330078125 62 18 c 0
 80 135 l 0
 144 129.666992188 218.333007812 127 303 127 c 0
 347 127 379.166992188 132.166992188 399.5 142.5 c 0
 419.833007812 152.833007812 432.333007812 172 437 200 c 0
 441 226 l 0
 442.333007812 235.333007812 443 242 443 246 c 0
 443 264.666992188 436.333007812 278 423 286 c 0
 409.666992188 294 388.333007812 298 359 298 c 0
 300 298 l 0
 244.666992188 298 201.333007812 312.166992188 170 340.5 c 0
 138.666992188 368.833007812 123 406.666992188 123 454 c 0
 123 467.333007812 124 481.333007812 126 496 c 0
 136 556 l 0
 146 621.333007812 171.333007812 668.666992188 212 698 c 0
 252.666992188 727.333007812 308.333007812 743.333007812 379 746 c 0
 385 800 l 0
 467 824 l 0
 460 746 l 0
 454 744 l 0
 519.333007812 740.666992188 576.666992188 733 626 721 c 0
 607 604 l 0
 545 609.333007812 470 612 382 612 c 0
 349.333007812 612 324.333007812 606.666992188 307 596 c 0
 289.666992188 585.333007812 278.666992188 566.333007812 274 539 c 0
 270 513 l 0
EndSplineSet
EndChar

StartChar: percent
Encoding: 8 37 8
Width: 964
VWidth: 500
Flags: HW
LayerCount: 2
Fore
SplineSet
792 99 m 0
 814.666992188 99 831.166992188 103.5 841.5 112.5 c 0
 851.833007812 121.5 858.666992188 136.333007812 862 157 c 0
 873 232 l 0
 874.333007812 236.666992188 875 243.333007812 875 252 c 0
 875 266 871 275.833007812 863 281.5 c 0
 855 287.166992188 842.333007812 290 825 290 c 0
 761 290 l 0
 740.333007812 290 724.666992188 286 714 278 c 0
 703.333007812 270 696.333007812 254.666992188 693 232 c 0
 682 157 l 0
 680 150.333007812 679 143.666992188 679 137 c 0
 679 123.666992188 682.833007812 114 690.5 108 c 0
 698.166992188 102 711 99 729 99 c 0
 792 99 l 0
606.5 27 m 0
 588.166992188 43 579 67 579 99 c 0
 579 110.333007812 580 122.333007812 582 135 c 0
 601 254 l 0
 607.666992188 298 623.166992188 331 647.5 353 c 0
 671.833007812 375 708.333007812 386 757 386 c 0
 859 386 l 0
 899.666992188 386 929.333007812 378 948 362 c 0
 966.666992188 346 976 322 976 290 c 0
 976 278 975 266 973 254 c 0
 954 135 l 0
 946.666992188 91 930.666992188 58 906 36 c 0
 881.333007812 14 844.666992188 3 796 3 c 0
 694 3 l 0
 654 3 624.833007812 11 606.5 27 c 0
320 445 m 0
 342.666992188 445 358.833007812 449.5 368.5 458.5 c 0
 378.166992188 467.5 384.666992188 482.333007812 388 503 c 0
 400 578 l 0
 401.333007812 582.666992188 402 589.333007812 402 598 c 0
 402 612 398.166992188 621.833007812 390.5 627.5 c 0
 382.833007812 633.166992188 370 636 352 636 c 0
 288 636 l 0
 268 636 252.666992188 632 242 624 c 0
 231.333007812 616 224 600.666992188 220 578 c 0
 208 503 l 0
 206.666992188 493.666992188 206 487 206 483 c 0
 206 469.666992188 209.833007812 460 217.5 454 c 0
 225.166992188 448 238 445 256 445 c 0
 320 445 l 0
771 732 m 0
 867 732 l 0
 307 0 l 0
 205 0 l 0
 771 732 l 0
134 373 m 0
 115.333007812 389 106 413 106 445 c 0
 106 457 107 469 109 481 c 0
 128 600 l 0
 134.666992188 644 150.333007812 677 175 699 c 0
 199.666992188 721 236.333007812 732 285 732 c 0
 386 732 l 0
 426.666992188 732 456.333007812 724 475 708 c 0
 493.666992188 692 503 668 503 636 c 0
 503 624 502 612 500 600 c 0
 481 481 l 0
 473.666992188 437 457.666992188 404 433 382 c 0
 408.333007812 360 371.666992188 349 323 349 c 0
 222 349 l 0
 182 349 152.666992188 357 134 373 c 0
EndSplineSet
EndChar

StartChar: ampersand
Encoding: 9 38 9
Width: 698
VWidth: 500
Flags: HW
LayerCount: 2
Fore
SplineSet
322.5 138 m 0
 336.833007812 143.333007812 352 152.666992188 368 166 c 0
 397 191 l 0
 314 330 l 0
 279 310 l 0
 252.333007812 295.333007812 234 279.333007812 224 262 c 0
 214 244.666992188 209 224 209 200 c 0
 209 178.666992188 215 161.666992188 227 149 c 0
 239 136.333007812 255.333007812 130 276 130 c 0
 292.666992188 130 308.166992188 132.666992188 322.5 138 c 0
105.5 40.5 m 0
 73.8330078125 71.5 58 112.666992188 58 164 c 0
 58 217.333007812 68.3330078125 261.666992188 89 297 c 0
 109.666992188 332.333007812 142.666992188 363.333007812 188 390 c 0
 260 431 l 0
 249 451 l 0
 229.666992188 488.333007812 220 526 220 564 c 0
 220 614.666992188 238.333007812 656.166992188 275 688.5 c 0
 311.666992188 720.833007812 365.333007812 737 436 737 c 0
 467.333007812 737 498.166992188 734.666992188 528.5 730 c 0
 558.833007812 725.333007812 585 720 607 714 c 0
 590 606 l 0
 444 606 l 0
 392.666992188 606 367 586.666992188 367 548 c 0
 367 528 378 499 400 461 c 0
 509 271 l 0
 672 400 l 0
 716 333 l 0
 638 221 l 0
 572 166 l 0
 670 0 l 0
 518 0 l 0
 459 92 l 0
 417 60 l 0
 386.333007812 36.6669921875 356.5 19.8330078125 327.5 9.5 c 0
 298.5 -0.8330078125 266.333007812 -6 231 -6 c 0
 179 -6 137.166992188 9.5 105.5 40.5 c 0
EndSplineSet
EndChar

StartChar: quotesingle
Encoding: 10 39 10
Width: 218
VWidth: 500
Flags: HW
LayerCount: 2
Fore
SplineSet
144 687 m 0
 154 754 l 0
 296 754 l 0
 286 687 l 0
 247 497 l 0
 123 497 l 0
 144 687 l 0
EndSplineSet
EndChar

StartChar: parenleft
Encoding: 11 40 11
Width: 387
VWidth: 500
Flags: HW
LayerCount: 2
Fore
SplineSet
96 166 m 0
 96 248 109 333.333007812 135 422 c 0
 161 510.666992188 195.333007812 593.5 238 670.5 c 0
 280.666992188 747.5 326.333007812 810.666992188 375 860 c 0
 507 860 l 0
 459 802 415.166992188 734.5 375.5 657.5 c 0
 335.833007812 580.5 304.166992188 500 280.5 416 c 0
 256.833007812 332 245 251.666992188 245 175 c 0
 245 106.333007812 252.833007812 41.3330078125 268.5 -20 c 0
 284.166992188 -81.3330078125 307.333007812 -144.666992188 338 -210 c 0
 206 -210 l 0
 132.666992188 -102.666992188 96 22.6669921875 96 166 c 0
EndSplineSet
EndChar

StartChar: parenright
Encoding: 12 41 12
Width: 386
VWidth: 500
Flags: HW
LayerCount: 2
Fore
SplineSet
115 -2.5 m 0
 155 74.5 186.666992188 154.666992188 210 238 c 0
 233.333007812 321.333007812 245 401.333007812 245 478 c 0
 245 545.333007812 237.166992188 609.166992188 221.5 669.5 c 0
 205.833007812 729.833007812 182.333007812 793.333007812 151 860 c 0
 284 860 l 0
 318.666992188 808 345.5 751.833007812 364.5 691.5 c 0
 383.5 631.166992188 393 562.666992188 393 486 c 0
 393 404 380.166992188 319 354.5 231 c 0
 328.833007812 143 294.833007812 60.5 252.5 -16.5 c 0
 210.166992188 -93.5 164.333007812 -158 115 -210 c 0
 -18 -210 l 0
 30.6669921875 -148.666992188 75 -79.5 115 -2.5 c 0
EndSplineSet
EndChar

StartChar: asterisk
Encoding: 13 42 13
Width: 435
VWidth: 500
Flags: HW
LayerCount: 2
Fore
SplineSet
261 469 m 0
 312 533 l 0
 412 445 l 0
 373 401 l 0
 261 469 l 0
155 416 m 0
 203 553 l 0
 274 534 l 0
 204 399 l 0
 155 416 l 0
131 628 m 0
 274 643 l 0
 266 568 l 0
 123 573 l 0
 131 628 l 0
328 566 m 0
 458 647 l 0
 483 603 l 0
 366 507 l 0
 328 566 l 0
278 722 m 0
 333 739 l 0
 376 614 l 0
 301 586 l 0
 278 722 l 0
EndSplineSet
EndChar

StartChar: plus
Encoding: 14 43 14
Width: 609
VWidth: 500
Flags: HW
LayerCount: 2
Fore
SplineSet
575 296 m 0
 411 296 l 0
 385 132 l 0
 266 132 l 0
 292 296 l 0
 127 296 l 0
 146 416 l 0
 310 416 l 0
 336 580 l 0
 455 580 l 0
 429 416 l 0
 594 416 l 0
 575 296 l 0
EndSplineSet
EndChar

StartChar: comma
Encoding: 15 44 15
Width: 234
VWidth: 500
Flags: HW
LayerCount: 2
Fore
SplineSet
62 -86.5 m 0
 53.3330078125 -84.8330078125 47.6669921875 -83.6669921875 45 -83 c 0
 52 -36 l 0
 62 -36 69.1669921875 -34.6669921875 73.5 -32 c 0
 77.8330078125 -29.3330078125 80.6669921875 -24 82 -16 c 0
 86 10 l 0
 77 10 l 0
 65 10 59 16 59 28 c 0
 59 34 59.6669921875 40 61 46 c 0
 73 119 l 0
 75 134.333007812 83.3330078125 142 98 142 c 0
 182 142 l 0
 193.333007812 142 199 136.333007812 199 125 c 0
 197 105 l 0
 177 -18 l 0
 169 -65.3330078125 140.333007812 -89 91 -89 c 0
 80.3330078125 -89 70.6669921875 -88.1669921875 62 -86.5 c 0
EndSplineSet
EndChar

StartChar: hyphen
Encoding: 16 45 16
Width: 347
VWidth: 500
Flags: HW
LayerCount: 2
Fore
SplineSet
76 350 m 0
 382 350 l 0
 364 230 l 0
 58 230 l 0
 76 350 l 0
EndSplineSet
EndChar

StartChar: period
Encoding: 17 46 17
Width: 234
VWidth: 500
Flags: HW
LayerCount: 2
Fore
SplineSet
61 3.5 m 0
 57.6669921875 6.5 56 10.3330078125 56 15 c 0
 56 19 l 0
 73 121 l 0
 75 135 83 142 97 142 c 0
 183 142 l 0
 195 142 201 137 201 127 c 0
 201 121 l 0
 184 19 l 0
 182.666992188 5.6669921875 174.666992188 -1 160 -1 c 0
 74 -1 l 0
 68.6669921875 -1 64.3330078125 0.5 61 3.5 c 0
EndSplineSet
EndChar

StartChar: slash
Encoding: 18 47 18
Width: 462
VWidth: 500
Flags: HW
LayerCount: 2
Fore
SplineSet
418 770 m 0
 569 770 l 0
 155 -72 l 0
 4 -72 l 0
 418 770 l 0
EndSplineSet
EndChar

StartChar: zero
Encoding: 19 48 19
Width: 647
VWidth: 500
Flags: HW
LayerCount: 2
Fore
SplineSet
385 129 m 0
 411.666992188 129 432.5 135.5 447.5 148.5 c 0
 462.5 161.5 472.333007812 181.666992188 477 209 c 0
 528 533 l 0
 529.333007812 538.333007812 530 545.666992188 530 555 c 0
 530 593.666992188 509 613 467 613 c 0
 376 613 l 0
 351.333007812 613 331.333007812 606.166992188 316 592.5 c 0
 300.666992188 578.833007812 291 559 287 533 c 0
 236 210 l 0
 234.666992188 198 234 190.666992188 234 188 c 0
 234 148.666992188 257.666992188 129 305 129 c 0
 385 129 l 0
123.5 33 m 0
 94.5 57.6669921875 80 94 80 142 c 0
 80 158 81.3330078125 173 84 187 c 0
 141 547 l 0
 151.666992188 611 176.833007812 660.166992188 216.5 694.5 c 0
 256.166992188 728.833007812 306.666992188 746 368 746 c 0
 523 746 l 0
 575.666992188 746 615.5 733 642.5 707 c 0
 669.5 681 683 644 683 596 c 0
 683 587.333007812 681.666992188 571 679 547 c 0
 622 187 l 0
 612 125.666992188 588 78.5 550 45.5 c 0
 512 12.5 463 -4 403 -4 c 0
 248 -4 l 0
 194 -4 152.5 8.3330078125 123.5 33 c 0
EndSplineSet
EndChar

StartChar: one
Encoding: 20 49 20
Width: 372
VWidth: 500
Flags: HW
LayerCount: 2
Fore
SplineSet
258 606 m 0
 123 582 l 0
 138 677 l 0
 296 740 l 0
 428 740 l 0
 310 0 l 0
 162 0 l 0
 258 606 l 0
EndSplineSet
EndChar

StartChar: two
Encoding: 21 50 21
Width: 586
VWidth: 500
Flags: HW
LayerCount: 2
Fore
SplineSet
64 119 m 0
 346 364 l 0
 382.666992188 396.666992188 410 428 428 458 c 0
 446 488 455 515.333007812 455 540 c 0
 455 562 448.5 578.5 435.5 589.5 c 0
 422.5 600.5 401.333007812 606 372 606 c 0
 159 606 l 0
 178 722 l 0
 228.666992188 730 269.166992188 736 299.5 740 c 0
 329.833007812 744 364.666992188 746 404 746 c 0
 474 746 524.833007812 731.5 556.5 702.5 c 0
 588.166992188 673.5 604 633.666992188 604 583 c 0
 604 532.333007812 592.5 483.5 569.5 436.5 c 0
 546.5 389.5 509.333007812 343.666992188 458 299 c 0
 271 134 l 0
 572 134 l 0
 551 0 l 0
 46 0 l 0
 64 119 l 0
EndSplineSet
EndChar

StartChar: three
Encoding: 22 51 22
Width: 579
VWidth: 500
Flags: HW
LayerCount: 2
Fore
SplineSet
40 15 m 0
 58 126 l 0
 285 126 l 0
 327 126 358 131.5 378 142.5 c 0
 398 153.5 410.333007812 173 415 201 c 0
 419.666992188 226.333007812 422 240.333007812 422 243 c 0
 422 264.333007812 412.5 280.833007812 393.5 292.5 c 0
 374.5 304.166992188 349 310.666992188 317 312 c 0
 154 319 l 0
 171 425 l 0
 349 435 l 0
 412.333007812 438.333007812 447.666992188 461.666992188 455 505 c 0
 457.666992188 525.666992188 459 539.333007812 459 546 c 0
 459 590.666992188 425 613 357 613 c 0
 151 613 l 0
 168 724 l 0
 266.666992188 738.666992188 352.333007812 746 425 746 c 0
 488.333007812 746 535.666992188 735 567 713 c 0
 598.333007812 691 614 654 614 602 c 0
 614 589.333007812 610 558 602 508 c 0
 596 471.333007812 582.833007812 441.833007812 562.5 419.5 c 0
 542.166992188 397.166992188 517.333007812 381.333007812 488 372 c 0
 511.333007812 365.333007812 530.666992188 351.5 546 330.5 c 0
 561.333007812 309.5 569 283.333007812 569 252 c 0
 569 244.666992188 566 219.333007812 560 176 c 0
 551.333007812 117.333007812 525.833007812 72.3330078125 483.5 41 c 0
 441.166992188 9.6669921875 386.666992188 -6 320 -6 c 0
 215.333007812 -6 122 1 40 15 c 0
EndSplineSet
EndChar

StartChar: four
Encoding: 23 52 23
Width: 619
VWidth: 500
Flags: HW
LayerCount: 2
Fore
SplineSet
400 157 m 0
 76 157 l 0
 59 227 l 0
 380 740 l 0
 532 740 l 0
 244 283 l 0
 420 283 l 0
 442 427 l 0
 485 512 l 0
 604 512 l 0
 568 283 l 0
 644 283 l 0
 628 181 l 0
 548 157 l 0
 523 1 l 0
 375 1 l 0
 400 157 l 0
EndSplineSet
EndChar

StartChar: five
Encoding: 24 53 24
Width: 607
VWidth: 500
Flags: HW
LayerCount: 2
Fore
SplineSet
69 11 m 0
 88 128 l 0
 340 128 l 0
 373.333007812 128 398.666992188 136 416 152 c 0
 433.333007812 168 444 188 448 212 c 0
 456 263 l 0
 457.333007812 272.333007812 458 279.666992188 458 285 c 0
 458 322.333007812 436 341 392 341 c 0
 334 341 l 0
 312 341 295 336.666992188 283 328 c 0
 271 319.333007812 262 305.333007812 256 286 c 0
 114 286 l 0
 207 740 l 0
 652 740 l 0
 630 607 l 0
 327 607 l 0
 293 434 l 0
 304.333007812 444 317.833007812 452 333.5 458 c 0
 349.166992188 464 366 467 384 467 c 0
 464 467 l 0
 512.666992188 467 549.5 454.5 574.5 429.5 c 0
 599.5 404.5 612 371 612 329 c 0
 612 316.333007812 611 303.333007812 609 290 c 0
 591 181 l 0
 581 117 552.666992188 70 506 40 c 0
 459.333007812 10 395 -5 313 -5 c 0
 251.666992188 -5 170.333007812 0.3330078125 69 11 c 0
EndSplineSet
EndChar

StartChar: six
Encoding: 25 54 25
Width: 607
VWidth: 500
Flags: HW
LayerCount: 2
Fore
SplineSet
367 128 m 0
 389.666992188 128 407.5 133.5 420.5 144.5 c 0
 433.5 155.5 442 173.666992188 446 199 c 0
 454 248 l 0
 455.333007812 258.666992188 456 266.333007812 456 271 c 0
 456 289.666992188 449.666992188 302.5 437 309.5 c 0
 424.333007812 316.5 403.666992188 320 375 320 c 0
 250 320 l 0
 244 283.333007812 241 252.333007812 241 227 c 0
 241 190.333007812 247.5 164.666992188 260.5 150 c 0
 273.5 135.333007812 294 128 322 128 c 0
 367 128 l 0
173 14 m 0
 147 26.6669921875 127.166992188 48.6669921875 113.5 80 c 0
 99.8330078125 111.333007812 93 154.333007812 93 209 c 0
 93 373.666992188 121.5 504.333007812 178.5 601 c 0
 235.5 697.666992188 325.666992188 746 449 746 c 0
 523 746 584.666992188 740.666992188 634 730 c 0
 615 613 l 0
 441 613 l 0
 345 613 287 551.666992188 267 429 c 0
 309 440.333007812 365.666992188 446 437 446 c 0
 497 446 540.833007812 435.333007812 568.5 414 c 0
 596.166992188 392.666992188 610 361.333007812 610 320 c 0
 610 304 608.666992188 289.333007812 606 276 c 0
 589 170 l 0
 579.666992188 110 556.5 65.8330078125 519.5 37.5 c 0
 482.5 9.1669921875 435.666992188 -5 379 -5 c 0
 272 -5 l 0
 232 -5 199 1.3330078125 173 14 c 0
EndSplineSet
EndChar

StartChar: seven
Encoding: 26 55 26
Width: 554
VWidth: 500
Flags: HW
LayerCount: 2
Fore
SplineSet
434 592 m 0
 120 592 l 0
 143 740 l 0
 610 740 l 0
 638 677 l 0
 286 0 l 0
 114 0 l 0
 434 592 l 0
EndSplineSet
EndChar

StartChar: eight
Encoding: 27 56 27
Width: 628
VWidth: 500
Flags: HW
LayerCount: 2
Fore
SplineSet
372 121 m 0
 398 121 416.833007812 126.166992188 428.5 136.5 c 0
 440.166992188 146.833007812 447.666992188 162.666992188 451 184 c 0
 462 250 l 0
 463 265 l 0
 463 298.333007812 442.666992188 315 402 315 c 0
 328 315 l 0
 308.666992188 315 291 309.333007812 275 298 c 0
 259 286.666992188 249.333007812 270.666992188 246 250 c 0
 235 184 l 0
 234.333007812 180 234 174.333007812 234 167 c 0
 234 136.333007812 255.333007812 121 298 121 c 0
 372 121 l 0
421 441 m 0
 443.666992188 441 460.333007812 446.833007812 471 458.5 c 0
 481.666992188 470.166992188 488.666992188 487 492 509 c 0
 499 556 l 0
 500.333007812 566.666992188 501 573.666992188 501 577 c 0
 501 593.666992188 496.833007812 605 488.5 611 c 0
 480.166992188 617 468 620 452 620 c 0
 377 620 l 0
 355 620 338.5 615.5 327.5 606.5 c 0
 316.5 597.5 309 580.666992188 305 556 c 0
 298 509 l 0
 296.666992188 503 296 495.333007812 296 486 c 0
 296 470.666992188 300.166992188 459.333007812 308.5 452 c 0
 316.833007812 444.666992188 330 441 348 441 c 0
 421 441 l 0
78 113 m 0
 78 123 79.3330078125 136 82 152 c 0
 99 258 l 0
 103.666992188 287.333007812 115.166992188 313 133.5 335 c 0
 151.833007812 357 173.666992188 371 199 377 c 0
 165 395 148 422.666992188 148 460 c 0
 148 467.333007812 148.666992188 476 150 486 c 0
 151.333007812 496 152.333007812 503 153 507 c 0
 166 593 l 0
 183.333007812 695 249.333007812 746 364 746 c 0
 515 746 l 0
 561 746 595.5 737.166992188 618.5 719.5 c 0
 641.5 701.833007812 653 673 653 633 c 0
 653 626.333007812 651.666992188 612.333007812 649 591 c 0
 636 507 l 0
 632 483 622.833007812 458.5 608.5 433.5 c 0
 594.166992188 408.5 575 393.666992188 551 389 c 0
 573.666992188 383.666992188 590 372.666992188 600 356 c 0
 610 339.333007812 615 319.333007812 615 296 c 0
 615 292.666992188 614 281 612 261 c 0
 595 157 l 0
 585 96.3330078125 562.833007812 54.3330078125 528.5 31 c 0
 494.166992188 7.6669921875 449.666992188 -4 395 -4 c 0
 245 -4 l 0
 133.666992188 -4 78 35 78 113 c 0
EndSplineSet
EndChar

StartChar: nine
Encoding: 28 57 28
Width: 607
VWidth: 500
Flags: HW
LayerCount: 2
Fore
SplineSet
356 613 m 0
 333.333007812 613 315.5 607.5 302.5 596.5 c 0
 289.5 585.5 281 567.333007812 277 542 c 0
 269 493 l 0
 267.666992188 482.333007812 267 474.666992188 267 470 c 0
 267 451.333007812 273.333007812 438.5 286 431.5 c 0
 298.666992188 424.5 319.333007812 421 348 421 c 0
 473 421 l 0
 479 458.333007812 482 489.333007812 482 514 c 0
 482 550.666992188 475.5 576.333007812 462.5 591 c 0
 449.5 605.666992188 429 613 401 613 c 0
 356 613 l 0
550 727 m 0
 576 714.333007812 595.833007812 692.333007812 609.5 661 c 0
 623.166992188 629.666992188 630 586.666992188 630 532 c 0
 630 367.333007812 601.5 236.666992188 544.5 140 c 0
 487.5 43.3330078125 397.333007812 -5 274 -5 c 0
 200 -5 138.333007812 0.3330078125 89 11 c 0
 108 128 l 0
 282 128 l 0
 378 128 436 189.333007812 456 312 c 0
 414 300.666992188 357.333007812 295 286 295 c 0
 226 295 182.166992188 305.666992188 154.5 327 c 0
 126.833007812 348.333007812 113 379.666992188 113 421 c 0
 113 437 114.333007812 451.666992188 117 465 c 0
 134 571 l 0
 143.333007812 631 166.5 675.166992188 203.5 703.5 c 0
 240.5 731.833007812 287.333007812 746 344 746 c 0
 451 746 l 0
 491 746 524 739.666992188 550 727 c 0
EndSplineSet
EndChar

StartChar: colon
Encoding: 29 58 29
Width: 234
VWidth: 500
Flags: HW
LayerCount: 2
Fore
SplineSet
265 424 m 0
 265 412.333333333 262.833333333 401.333333333 258.5 391 c 0
 254.166666667 380.666666667 248.166666667 371.666666667 240.5 364 c 0
 232.833333333 356.333333333 223.833333333 350.25 213.5 345.75 c 0
 203.166666667 341.25 192 339 180 339 c 0
 168.333333333 339 157.25 341.25 146.75 345.75 c 0
 136.25 350.25 127.083333333 356.333333333 119.25 364 c 0
 111.416666667 371.666666667 105.25 380.666666667 100.75 391 c 0
 96.25 401.333333333 94 412.333333333 94 424 c 0
 94 435.666666667 96.25 446.75 100.75 457.25 c 0
 105.25 467.75 111.416666667 476.916666667 119.25 484.75 c 0
 127.083333333 492.583333333 136.25 498.75 146.75 503.25 c 0
 157.25 507.75 168.333333333 510 180 510 c 0
 192 510 203.166666667 507.75 213.5 503.25 c 0
 223.833333333 498.75 232.833333333 492.583333333 240.5 484.75 c 0
 248.166666667 476.916666667 254.166666667 467.75 258.5 457.25 c 0
 262.833333333 446.75 265 435.666666667 265 424 c 0
195.5 72.5 m 0
 195.5 60.8333333333 193.25 49.8333333333 188.75 39.5 c 0
 184.25 29.1666666667 178.166666667 20.1666666667 170.5 12.5 c 0
 162.833333333 4.83333333333 153.833333333 -1.25 143.5 -5.75 c 0
 133.166666667 -10.25 122.166666667 -12.5 110.5 -12.5 c 0
 98.8333333333 -12.5 87.75 -10.25 77.25 -5.75 c 0
 66.75 -1.25 57.5833333333 4.83333333333 49.75 12.5 c 0
 41.9166666667 20.1666666667 35.75 29.1666666667 31.25 39.5 c 0
 26.75 49.8333333333 24.5 60.8333333333 24.5 72.5 c 0
 24.5 84.5 26.75 95.6666666667 31.25 106 c 0
 35.75 116.333333333 41.9166666667 125.416666667 49.75 133.25 c 0
 57.5833333333 141.083333333 66.75 147.25 77.25 151.75 c 0
 87.75 156.25 98.8333333333 158.5 110.5 158.5 c 0
 122.166666667 158.5 133.166666667 156.25 143.5 151.75 c 0
 153.833333333 147.25 162.833333333 141.083333333 170.5 133.25 c 0
 178.166666667 125.416666667 184.25 116.333333333 188.75 106 c 0
 193.25 95.6666666667 195.5 84.5 195.5 72.5 c 0
EndSplineSet
Refer: 17 46 N 1 0 0 1 63 396 2
Refer: 17 46 N 1 0 0 1 0 0 2
EndChar

StartChar: semicolon
Encoding: 30 59 30
Width: 234
VWidth: 500
Flags: HW
LayerCount: 2
Fore
SplineSet
265 424 m 0
 265 412.333333333 262.833333333 401.333333333 258.5 391 c 0
 254.166666667 380.666666667 248.166666667 371.666666667 240.5 364 c 0
 232.833333333 356.333333333 223.833333333 350.25 213.5 345.75 c 0
 203.166666667 341.25 192 339 180 339 c 0
 168.333333333 339 157.25 341.25 146.75 345.75 c 0
 136.25 350.25 127.083333333 356.333333333 119.25 364 c 0
 111.416666667 371.666666667 105.25 380.666666667 100.75 391 c 0
 96.25 401.333333333 94 412.333333333 94 424 c 0
 94 435.666666667 96.25 446.75 100.75 457.25 c 0
 105.25 467.75 111.416666667 476.916666667 119.25 484.75 c 0
 127.083333333 492.583333333 136.25 498.75 146.75 503.25 c 0
 157.25 507.75 168.333333333 510 180 510 c 0
 192 510 203.166666667 507.75 213.5 503.25 c 0
 223.833333333 498.75 232.833333333 492.583333333 240.5 484.75 c 0
 248.166666667 476.916666667 254.166666667 467.75 258.5 457.25 c 0
 262.833333333 446.75 265 435.666666667 265 424 c 0
205 86 m 0
 205 66 201.25 45.8333333333 193.75 25.5 c 0
 186.25 5.16666666667 176 -14.6666666667 163 -34 c 0
 150 -53.3333333333 134.916666667 -71.5833333333 117.75 -88.75 c 0
 100.583333333 -105.916666667 82.3333333333 -121 63 -134 c 0
 43.6666666667 -147 23.75 -157.583333333 3.25 -165.75 c 0
 -17.25 -173.916666667 -37.1666666667 -178.666666667 -56.5 -180 c 0
 -47 -130 l 0
 -28 -127.333333333 -10.0833333333 -122.333333333 6.75 -115 c 0
 23.5833333333 -107.666666667 38.6666666667 -98.25 52 -86.75 c 0
 65.3333333333 -75.25 76.5 -61.6666666667 85.5 -46 c 0
 94.5 -30.3333333333 100.5 -12.6666666667 103.5 7 c 0
 41 7 l 0
 34.3333333333 13.3333333333 29.25 20.6666666667 25.75 29 c 0
 22.25 37.3333333333 20.5 46.1666666667 20.5 55.5 c 0
 20.5 69.1666666667 23.4166666667 82.25 29.25 94.75 c 0
 35.0833333333 107.25 42.8333333333 118.25 52.5 127.75 c 0
 62.1666666667 137.25 73.3333333333 144.75 86 150.25 c 0
 98.6666666667 155.75 112 158.5 126 158.5 c 0
 149 158.5 167.916666667 152.583333333 182.75 140.75 c 0
 197.583333333 128.916666667 205 110.666666667 205 86 c 0
EndSplineSet
Refer: 15 44 N 1 0 0 1 0 0 2
Refer: 17 46 N 1 0 0 1 63 396 2
EndChar

StartChar: less
Encoding: 31 60 31
Width: 609
VWidth: 500
Flags: HW
LayerCount: 2
Fore
SplineSet
133 285 m 0
 154 416 l 0
 590 547 l 0
 570 418 l 0
 288 351 l 0
 547 279 l 0
 527 149 l 0
 133 285 l 0
EndSplineSet
EndChar

StartChar: equal
Encoding: 32 61 32
Width: 609
VWidth: 500
Flags: HW
LayerCount: 2
Fore
SplineSet
205 368.5 m 0
 205 432 l 0
 819 432 l 0
 819 368.5 l 0
 205 368.5 l 0
205 182.5 m 0
 205 246 l 0
 819 246 l 0
 819 182.5 l 0
 205 182.5 l 0
EndSplineSet
Refer: 386 8722 N 1 0 0 1 19 120 2
Refer: 386 8722 N 1 0 0 1 -19 -120 2
EndChar

StartChar: greater
Encoding: 33 62 33
Width: 609
VWidth: 500
Flags: HW
LayerCount: 2
Fore
SplineSet
142 279 m 0
 425 352 l 0
 165 418 l 0
 185 547 l 0
 579 416 l 0
 559 285 l 0
 122 149 l 0
 142 279 l 0
EndSplineSet
EndChar

StartChar: question
Encoding: 34 63 34
Width: 529
VWidth: 500
Flags: HW
LayerCount: 2
Fore
SplineSet
150 3.5 m 0
 146.666992188 6.5 145 10.3330078125 145 15 c 0
 145 19 l 0
 162 121 l 0
 164 135 172 142 186 142 c 0
 272 142 l 0
 284 142 290 137 290 127 c 0
 290 121 l 0
 273 19 l 0
 271.666992188 5.6669921875 263.666992188 -1 249 -1 c 0
 163 -1 l 0
 157.666992188 -1 153.333007812 0.5 150 3.5 c 0
212 401 m 0
 281 401 l 0
 317 401 344.5 406.833007812 363.5 418.5 c 0
 382.5 430.166992188 394.333007812 451 399 481 c 0
 404 513 l 0
 405.333007812 525 406 533 406 537 c 0
 406 561 397.666992188 578.5 381 589.5 c 0
 364.333007812 600.5 339.333007812 606 306 606 c 0
 278.666992188 606 251.333007812 603.166992188 224 597.5 c 0
 196.666992188 591.833007812 166.666992188 583.666992188 134 573 c 0
 151 682 l 0
 220.333007812 720 294.333007812 739 373 739 c 0
 434.333007812 739 480.833007812 724.833007812 512.5 696.5 c 0
 544.166992188 668.166992188 560 629.333007812 560 580 c 0
 560 564.666992188 558.666992188 550.333007812 556 537 c 0
 546 478 l 0
 526.666992188 352 446.333007812 289 305 289 c 0
 292 203 l 0
 181 203 l 0
 212 401 l 0
EndSplineSet
EndChar

StartChar: at
Encoding: 35 64 35
Width: 931
VWidth: 500
Flags: HW
LayerCount: 2
Fore
SplineSet
520 119 m 0
 542.666992188 127 562.333007812 138.333007812 579 153 c 0
 618 412 l 0
 588 422.666992188 560 428 534 428 c 0
 503.333007812 428 476.166992188 418.666992188 452.5 400 c 0
 428.833007812 381.333007812 410.333007812 355 397 321 c 0
 383.666992188 287 377 247.333007812 377 202 c 0
 377 170.666992188 383.333007812 147 396 131 c 0
 408.666992188 115 427.333007812 107 452 107 c 0
 474.666992188 107 497.333007812 111 520 119 c 0
97.5 -143 m 0
 65.1669921875 -109 49 -64.6669921875 49 -10 c 0
 49 10.6669921875 50.3330078125 29.3330078125 53 46 c 0
 129 521 l 0
 141.666992188 597.666992188 170 651.333007812 214 682 c 0
 258 712.666992188 320 728 400 728 c 0
 765 728 l 0
 827 728 874 711.5 906 678.5 c 0
 938 645.5 954 601.333007812 954 546 c 0
 954 526.666992188 952.333007812 503.666992188 949 477 c 0
 906 190 l 0
 897.333007812 131.333007812 874.166992188 85 836.5 51 c 0
 798.833007812 17 747.333007812 0 682 0 c 0
 591 0 l 0
 567 56 l 0
 555 40.6669921875 534.166992188 26.5 504.5 13.5 c 0
 474.833007812 0.5 444.333007812 -6 413 -6 c 0
 369 -6 333.166992188 9.5 305.5 40.5 c 0
 277.833007812 71.5 264 120 264 186 c 0
 264 258.666992188 276.666992188 321.666992188 302 375 c 0
 327.333007812 428.333007812 361.333007812 468.833007812 404 496.5 c 0
 446.666992188 524.166992188 493 538 543 538 c 0
 620.333007812 538 686.333007812 515.666992188 741 471 c 0
 684 99 l 0
 713.333007812 99 737.333007812 105.833007812 756 119.5 c 0
 774.666992188 133.166992188 787 161.333007812 793 204 c 0
 836 492 l 0
 838.666992188 513.333007812 840 527.666992188 840 535 c 0
 840 565 830.333007812 587.166992188 811 601.5 c 0
 791.666992188 615.833007812 765.666992188 623 733 623 c 0
 377 623 l 0
 331 623 298.166992188 611.166992188 278.5 587.5 c 0
 258.833007812 563.833007812 245.666992188 532 239 492 c 0
 166 31 l 0
 164 20.3330078125 163 10 163 0 c 0
 163 -27.3330078125 171.166992188 -49 187.5 -65 c 0
 203.833007812 -81 229.333007812 -89 264 -89 c 0
 649 -89 l 0
 636 -171 l 0
 604.666992188 -177 562.5 -182.333007812 509.5 -187 c 0
 456.5 -191.666992188 401.666992188 -194 345 -194 c 0
 254 -194 l 0
 182 -194 129.833007812 -177 97.5 -143 c 0
EndSplineSet
EndChar

StartChar: A
Encoding: 36 65 36
Width: 696
VWidth: 500
Flags: HW
LayerCount: 2
Fore
SplineSet
485 288 m 0
 447 612 l 0
 303 288 l 0
 485 288 l 0
375 740 m 0
 561 740 l 0
 675 0 l 0
 521 0 l 0
 500 155 l 0
 247 155 l 0
 175 0 l 0
 23 0 l 0
 375 740 l 0
EndSplineSet
EndChar

StartChar: B
Encoding: 37 66 37
Width: 635
VWidth: 500
Flags: HW
LayerCount: 2
Fore
SplineSet
372 133 m 0
 407.333007812 133 433.333007812 140.166992188 450 154.5 c 0
 466.666992188 168.833007812 477.666992188 192.333007812 483 225 c 0
 484.333007812 231.666992188 485 241 485 253 c 0
 485 299 456.666992188 322 400 322 c 0
 262 322 l 0
 232 133 l 0
 372 133 l 0
417 436 m 0
 465.666992188 436 495 460.666992188 505 510 c 0
 508.333007812 526.666992188 510 539.333007812 510 548 c 0
 510 568.666992188 503.833007812 583.666992188 491.5 593 c 0
 479.166992188 602.333007812 460.333007812 607 435 607 c 0
 307 607 l 0
 279 436 l 0
 417 436 l 0
179 740 m 0
 466 740 l 0
 536 740 585.166992188 726.833007812 613.5 700.5 c 0
 641.833007812 674.166992188 656 636.666992188 656 588 c 0
 656 570 654.666992188 552.666992188 652 536 c 0
 646 498 631 465.5 607 438.5 c 0
 583 411.5 552.666992188 393.666992188 516 385 c 0
 551.333007812 375.666992188 578.333007812 359.333007812 597 336 c 0
 615.666992188 312.666992188 625 280 625 238 c 0
 625 222 623 201.333007812 619 176 c 0
 608.333007812 114 581.166992188 69.1669921875 537.5 41.5 c 0
 493.833007812 13.8330078125 432.333007812 0 353 0 c 0
 63 0 l 0
 179 740 l 0
EndSplineSet
EndChar

StartChar: C
Encoding: 38 67 38
Width: 591
VWidth: 500
Flags: HW
LayerCount: 2
Fore
SplineSet
153.5 59 m 0
 113.833007812 102.333007812 94 164.333007812 94 245 c 0
 94 289.666992188 98.3330078125 339 107 393 c 0
 125.666992188 513 159.166992188 601.833007812 207.5 659.5 c 0
 255.833007812 717.166992188 326.333007812 746 419 746 c 0
 507 746 586.666992188 732 658 704 c 0
 639 587 l 0
 573 604.333007812 508.333007812 613 445 613 c 0
 407.666992188 613 377.333007812 606.5 354 593.5 c 0
 330.666992188 580.5 310.833007812 556.166992188 294.5 520.5 c 0
 278.166992188 484.833007812 264.333007812 433.333007812 253 366 c 0
 245 313.333007812 241 272.666992188 241 244 c 0
 241 202 251 172 271 154 c 0
 291 136 325.666992188 127 375 127 c 0
 416.333007812 127 450.5 128 477.5 130 c 0
 504.5 132 534.666992188 135 568 139 c 0
 549 23 l 0
 493 3.6669921875 422 -6 336 -6 c 0
 254 -6 193.166992188 15.6669921875 153.5 59 c 0
EndSplineSet
EndChar

StartChar: D
Encoding: 39 68 39
Width: 687
VWidth: 500
Flags: HW
LayerCount: 2
Fore
SplineSet
355 133 m 0
 411 133 454.166992188 152.833007812 484.5 192.5 c 0
 514.833007812 232.166992188 536.333007812 292 549 372 c 0
 556.333007812 419.333007812 560 454 560 476 c 0
 560 523.333007812 549.666992188 557 529 577 c 0
 508.333007812 597 473 607 423 607 c 0
 306 607 l 0
 231 133 l 0
 355 133 l 0
179 740 m 0
 460 740 l 0
 552 740 616.5 718 653.5 674 c 0
 690.5 630 709 566 709 482 c 0
 709 438 705 393 697 347 c 0
 678.333007812 227 640.166992188 139.166992188 582.5 83.5 c 0
 524.833007812 27.8330078125 444 0 340 0 c 0
 62 0 l 0
 179 740 l 0
EndSplineSet
EndChar

StartChar: E
Encoding: 40 69 40
Width: 594
VWidth: 500
Flags: HW
LayerCount: 2
Fore
SplineSet
131 22 m 0
 99.6669921875 40.6669921875 84 74.6669921875 84 124 c 0
 84 136 85 148.333007812 87 161 c 0
 152 570 l 0
 169.333007812 683.333007812 235.333007812 740 350 740 c 0
 438.666992188 740 539.333007812 735.666992188 652 727 c 0
 632 603 l 0
 371 603 l 0
 347.666992188 603 330 597.333007812 318 586 c 0
 306 574.666992188 298 557 294 533 c 0
 279 437 l 0
 556 428 l 0
 537 311 l 0
 258 303 l 0
 242 200 l 0
 240.666992188 190.666992188 240 184.333007812 240 181 c 0
 240 163.666992188 245 151.333007812 255 144 c 0
 265 136.666992188 280.333007812 133 301 133 c 0
 558 133 l 0
 539 9 l 0
 413.666992188 -0.3330078125 314.666992188 -5.3330078125 242 -6 c 0
 199.333007812 -6 162.333007812 3.3330078125 131 22 c 0
EndSplineSet
EndChar

StartChar: F
Encoding: 41 70 41
Width: 564
VWidth: 500
Flags: HW
LayerCount: 2
Fore
SplineSet
152 572 m 0
 170 684 235.333007812 740 348 740 c 0
 445.333007812 740 546 735.666992188 650 727 c 0
 631 603 l 0
 370 603 l 0
 346.666992188 603 329 597.333007812 317 586 c 0
 305 574.666992188 297.333007812 557 294 533 c 0
 276 414 l 0
 553 406 l 0
 534 289 l 0
 255 282 l 0
 210 0 l 0
 62 0 l 0
 152 572 l 0
EndSplineSet
EndChar

StartChar: G
Encoding: 42 71 42
Width: 658
VWidth: 500
Flags: HW
LayerCount: 2
Fore
SplineSet
135.5 49.5 m 0
 105.833007812 86.5 91 145.666992188 91 227 c 0
 91 271 96.6669921875 329 108 401 c 0
 126 516.333007812 161.333007812 602.833007812 214 660.5 c 0
 266.666992188 718.166992188 339 747 431 747 c 0
 487 747 534.333007812 744 573 738 c 0
 611.666992188 732 649 723.333007812 685 712 c 0
 667 597 l 0
 606.333007812 608.333007812 533.333007812 614 448 614 c 0
 405.333007812 614 371.666992188 606 347 590 c 0
 322.333007812 574 303 548.666992188 289 514 c 0
 275 479.333007812 263 430.666992188 253 368 c 0
 245 314 241 271 241 239 c 0
 241 203 248.5 176 263.5 158 c 0
 278.5 140 302.333007812 131 335 131 c 0
 357.666992188 131 384.166992188 133.333007812 414.5 138 c 0
 444.833007812 142.666992188 468.333007812 147.333007812 485 152 c 0
 508 297 l 0
 375 297 l 0
 394 414 l 0
 398.666992188 414.666992188 416.666992188 416.333007812 448 419 c 0
 479.333007812 421.666992188 517 423 561 423 c 0
 603 423 639.333007812 422.333007812 670 421 c 0
 604 0 l 0
 492 0 l 0
 480 50 l 0
 458.666992188 37.3330078125 427.5 24.8330078125 386.5 12.5 c 0
 345.5 0.1669921875 311 -6 283 -6 c 0
 214.333007812 -6 165.166992188 12.5 135.5 49.5 c 0
EndSplineSet
EndChar

StartChar: H
Encoding: 43 72 43
Width: 691
VWidth: 500
Flags: HW
LayerCount: 2
Fore
SplineSet
179 740 m 0
 327 740 l 0
 278 432 l 0
 557 432 l 0
 606 740 l 0
 754 740 l 0
 637 0 l 0
 489 0 l 0
 536 299 l 0
 257 299 l 0
 210 0 l 0
 62 0 l 0
 179 740 l 0
EndSplineSet
EndChar

StartChar: I
Encoding: 44 73 44
Width: 272
VWidth: 500
Flags: HW
LayerCount: 2
Fore
SplineSet
179 740 m 0
 327 740 l 0
 210 0 l 0
 62 0 l 0
 179 740 l 0
EndSplineSet
EndChar

StartChar: J
Encoding: 45 74 45
Width: 391
VWidth: 500
Flags: HW
LayerCount: 2
Fore
SplineSet
86.5 0.5 m 0
 64.8330078125 4.8330078125 47 10 33 16 c 0
 52 134 l 0
 72 130.666992188 96.3330078125 129 125 129 c 0
 154.333007812 129 176.833007812 136 192.5 150 c 0
 208.166992188 164 218.333007812 185.333007812 223 214 c 0
 306 740 l 0
 454 740 l 0
 366 183 l 0
 355.333007812 115 333.166992188 66.5 299.5 37.5 c 0
 265.833007812 8.5 216 -6 150 -6 c 0
 129.333007812 -6 108.166992188 -3.8330078125 86.5 0.5 c 0
EndSplineSet
EndChar

StartChar: K
Encoding: 46 75 46
Width: 641
VWidth: 500
Flags: HW
LayerCount: 2
Fore
SplineSet
179 740 m 0
 327 740 l 0
 280 438 l 0
 377 438 l 0
 580 740 l 0
 732 740 l 0
 486 368 l 0
 632 0 l 0
 484 0 l 0
 364 305 l 0
 258 305 l 0
 210 0 l 0
 62 0 l 0
 179 740 l 0
EndSplineSet
EndChar

StartChar: L
Encoding: 47 76 47
Width: 532
VWidth: 500
Flags: HW
LayerCount: 2
Fore
SplineSet
125.5 33 m 0
 99.8330078125 55 87 88.6669921875 87 134 c 0
 87 148.666992188 88 164 90 180 c 0
 179 740 l 0
 327 740 l 0
 242 199 l 0
 240.666992188 194.333007812 240 188 240 180 c 0
 240 163.333007812 244.833007812 151.333007812 254.5 144 c 0
 264.166992188 136.666992188 278.666992188 133 298 133 c 0
 532 133 l 0
 510 0 l 0
 234 0 l 0
 187.333007812 0 151.166992188 11 125.5 33 c 0
EndSplineSet
EndChar

StartChar: M
Encoding: 48 77 48
Width: 869
VWidth: 500
Flags: HW
LayerCount: 2
Fore
SplineSet
248 740 m 0
 387 740 l 0
 470 175 l 0
 732 740 l 0
 870 740 l 0
 840 0 l 0
 697 0 l 0
 717 476 l 0
 511 0 l 0
 372 0 l 0
 316 470 l 0
 188 0 l 0
 41 0 l 0
 248 740 l 0
EndSplineSet
EndChar

StartChar: N
Encoding: 49 78 49
Width: 693
VWidth: 500
Flags: HW
LayerCount: 2
Fore
SplineSet
179 740 m 0
 298 740 l 0
 530 252 l 0
 608 740 l 0
 756 740 l 0
 638 0 l 0
 520 0 l 0
 288 489 l 0
 210 0 l 0
 62 0 l 0
 179 740 l 0
EndSplineSet
EndChar

StartChar: O
Encoding: 50 79 50
Width: 697
VWidth: 500
Flags: HW
LayerCount: 2
Fore
SplineSet
465.5 150 m 0
 489.833007812 164.666992188 509.166992188 188.666992188 523.5 222 c 0
 537.833007812 255.333007812 549.666992188 301.666992188 559 361 c 0
 568.333007812 417 573 463 573 499 c 0
 573 529.666992188 568.333007812 553.166992188 559 569.5 c 0
 549.666992188 585.833007812 536 597.166992188 518 603.5 c 0
 500 609.833007812 475.666992188 613 445 613 c 0
 405.666992188 613 374.166992188 606.166992188 350.5 592.5 c 0
 326.833007812 578.833007812 307.5 554.666992188 292.5 520 c 0
 277.5 485.333007812 264.666992188 435.333007812 254 370 c 0
 244 311.333007812 239 266.666992188 239 236 c 0
 239 194 248.833007812 165.5 268.5 150.5 c 0
 288.166992188 135.5 322 128 370 128 c 0
 409.333007812 128 441.166992188 135.333007812 465.5 150 c 0
208 13 m 0
 171.333007812 25.6669921875 142.666992188 49.1669921875 122 83.5 c 0
 101.333007812 117.833007812 91 166 91 228 c 0
 91 271.333007812 96 325.333007812 106 390 c 0
 120.666992188 482.666992188 142.333007812 554.666992188 171 606 c 0
 199.666992188 657.333007812 237.5 693.5 284.5 714.5 c 0
 331.5 735.5 392.333007812 746 467 746 c 0
 521 746 566.333007812 739.333007812 603 726 c 0
 639.666992188 712.666992188 668.666992188 688 690 652 c 0
 711.333007812 616 722 565.666992188 722 501 c 0
 722 456.333007812 716.666992188 403 706 341 c 0
 691.333007812 247 669.666992188 175 641 125 c 0
 612.333007812 75 575 40.6669921875 529 22 c 0
 483 3.3330078125 422 -6 346 -6 c 0
 290.666992188 -6 244.666992188 0.3330078125 208 13 c 0
EndSplineSet
EndChar

StartChar: P
Encoding: 51 80 51
Width: 610
VWidth: 500
Flags: HW
LayerCount: 2
Fore
SplineSet
405 364 m 0
 433 364 456.333007812 374 475 394 c 0
 493.666992188 414 506 442.666992188 512 480 c 0
 515.333007812 500 517 516 517 528 c 0
 517 556 511.166992188 576.166992188 499.5 588.5 c 0
 487.833007812 600.833007812 470 607 446 607 c 0
 306 607 l 0
 268 364 l 0
 405 364 l 0
179 740 m 0
 474 740 l 0
 534 740 581.333007812 725 616 695 c 0
 650.666992188 665 668 614 668 542 c 0
 668 526 665 500 659 464 c 0
 646.333007812 381.333007812 618.5 321.833007812 575.5 285.5 c 0
 532.5 249.166992188 482.333007812 231 425 231 c 0
 394.333007812 231 362.833007812 232.666992188 330.5 236 c 0
 298.166992188 239.333007812 271.333007812 243.333007812 250 248 c 0
 210 0 l 0
 62 0 l 0
 179 740 l 0
EndSplineSet
EndChar

StartChar: Q
Encoding: 52 81 52
Width: 697
VWidth: 500
Flags: HW
LayerCount: 2
Fore
SplineSet
364.5 -157.5 m 0
 331.5 -131.833007812 314.666992188 -92.3330078125 314 -39 c 0
 416 -39 l 0
 418.666992188 -58.3330078125 426.166992188 -72 438.5 -80 c 0
 450.833007812 -88 469.666992188 -92 495 -92 c 0
 519 -92 545.666992188 -88.3330078125 575 -81 c 0
 558 -190 l 0
 540 -194 519 -196 495 -196 c 0
 441 -196 397.5 -183.166992188 364.5 -157.5 c 0
465.5 150 m 0
 489.833007812 164.666992188 509.166992188 188.666992188 523.5 222 c 0
 537.833007812 255.333007812 549.666992188 301.666992188 559 361 c 0
 568.333007812 417 573 463 573 499 c 0
 573 529.666992188 568.333007812 553.166992188 559 569.5 c 0
 549.666992188 585.833007812 536 597.166992188 518 603.5 c 0
 500 609.833007812 475.666992188 613 445 613 c 0
 405.666992188 613 374.166992188 606.166992188 350.5 592.5 c 0
 326.833007812 578.833007812 307.5 554.666992188 292.5 520 c 0
 277.5 485.333007812 264.666992188 435.333007812 254 370 c 0
 244 311.333007812 239 266.666992188 239 236 c 0
 239 194 248.833007812 165.5 268.5 150.5 c 0
 288.166992188 135.5 322 128 370 128 c 0
 409.333007812 128 441.166992188 135.333007812 465.5 150 c 0
208 13 m 0
 171.333007812 25.6669921875 142.666992188 49.1669921875 122 83.5 c 0
 101.333007812 117.833007812 91 166 91 228 c 0
 91 271.333007812 96 325.333007812 106 390 c 0
 120.666992188 482.666992188 142.333007812 554.666992188 171 606 c 0
 199.666992188 657.333007812 237.5 693.5 284.5 714.5 c 0
 331.5 735.5 392.333007812 746 467 746 c 0
 521 746 566.333007812 739.333007812 603 726 c 0
 639.666992188 712.666992188 668.666992188 688 690 652 c 0
 711.333007812 616 722 565.666992188 722 501 c 0
 722 456.333007812 716.666992188 403 706 341 c 0
 691.333007812 247 669.666992188 175 641 125 c 0
 612.333007812 75 575 40.6669921875 529 22 c 0
 483 3.3330078125 422 -6 346 -6 c 0
 290.666992188 -6 244.666992188 0.3330078125 208 13 c 0
EndSplineSet
EndChar

StartChar: R
Encoding: 53 82 53
Width: 633
VWidth: 500
Flags: HW
LayerCount: 2
Fore
SplineSet
397 393 m 0
 430.333007812 393 455.333007812 401 472 417 c 0
 488.666992188 433 500.333007812 461.333007812 507 502 c 0
 509 514 510 525 510 535 c 0
 510 583 484 607 432 607 c 0
 306 607 l 0
 272 393 l 0
 397 393 l 0
179 740 m 0
 462 740 l 0
 595.333007812 740 662 678.666992188 662 556 c 0
 662 537.333007812 660 516 656 492 c 0
 646.666992188 430 628.666992188 385.5 602 358.5 c 0
 575.333007812 331.5 544.666992188 311.333007812 510 298 c 0
 600 0 l 0
 449 0 l 0
 374 275 l 0
 317.333007812 275 277.333007812 275.333007812 254 276 c 0
 210 0 l 0
 62 0 l 0
 179 740 l 0
EndSplineSet
EndChar

StartChar: S
Encoding: 54 83 54
Width: 573
VWidth: 500
Flags: HW
LayerCount: 2
Fore
SplineSet
170 1 m 0
 127.333007812 5.6669921875 91.3330078125 11.3330078125 62 18 c 0
 80 135 l 0
 144 129.666992188 218.333007812 127 303 127 c 0
 347 127 379.166992188 132.166992188 399.5 142.5 c 0
 419.833007812 152.833007812 432.333007812 172 437 200 c 0
 441 226 l 0
 442.333007812 235.333007812 443 242 443 246 c 0
 443 264.666992188 436.333007812 278 423 286 c 0
 409.666992188 294 388.333007812 298 359 298 c 0
 300 298 l 0
 244.666992188 298 201.333007812 312.166992188 170 340.5 c 0
 138.666992188 368.833007812 123 406.666992188 123 454 c 0
 123 467.333007812 124 481.333007812 126 496 c 0
 136 556 l 0
 146.666992188 624 174 672.666992188 218 702 c 0
 262 731.333007812 322.666992188 746 400 746 c 0
 434.666992188 746 472.333007812 743.833007812 513 739.5 c 0
 553.666992188 735.166992188 591.333007812 729 626 721 c 0
 607 604 l 0
 545 609.333007812 470 612 382 612 c 0
 349.333007812 612 324.333007812 606.666992188 307 596 c 0
 289.666992188 585.333007812 278.666992188 566.333007812 274 539 c 0
 270 513 l 0
 268.666992188 502.333007812 268 495 268 491 c 0
 268 472.333007812 273.333007812 458.833007812 284 450.5 c 0
 294.666992188 442.166992188 311.666992188 438 335 438 c 0
 398 438 l 0
 458.666992188 438 505.333007812 423.833007812 538 395.5 c 0
 570.666992188 367.166992188 587 329.333007812 587 282 c 0
 587 270.666992188 586 257.333007812 584 242 c 0
 574 173 l 0
 564 110.333007812 538.333007812 64.8330078125 497 36.5 c 0
 455.666992188 8.1669921875 392 -6 306 -6 c 0
 258 -6 212.666992188 -3.6669921875 170 1 c 0
EndSplineSet
EndChar

StartChar: T
Encoding: 55 84 55
Width: 609
VWidth: 500
Flags: HW
LayerCount: 2
Fore
SplineSet
321 607 m 0
 119 607 l 0
 140 740 l 0
 694 740 l 0
 673 607 l 0
 470 607 l 0
 374 0 l 0
 226 0 l 0
 321 607 l 0
EndSplineSet
EndChar

StartChar: U
Encoding: 56 85 56
Width: 688
VWidth: 500
Flags: HW
LayerCount: 2
Fore
SplineSet
163 47 m 0
 123 82.3330078125 103 139 103 217 c 0
 103 251.666992188 107.333007812 293.333007812 116 342 c 0
 179 740 l 0
 327 740 l 0
 261 320 l 0
 254.333007812 274.666992188 251 244.333007812 251 229 c 0
 251 193.666992188 260 167.833007812 278 151.5 c 0
 296 135.166992188 325 127 365 127 c 0
 397.666992188 127 424.166992188 132.166992188 444.5 142.5 c 0
 464.833007812 152.833007812 482 171.833007812 496 199.5 c 0
 510 227.166992188 521 267.333007812 529 320 c 0
 596 740 l 0
 744 740 l 0
 674 298 l 0
 660.666992188 214 640 150 612 106 c 0
 584 62 549 32.3330078125 507 17 c 0
 465 1.6669921875 411 -6 345 -6 c 0
 263.666992188 -6 203 11.6669921875 163 47 c 0
EndSplineSet
EndChar

StartChar: V
Encoding: 57 86 57
Width: 697
VWidth: 500
Flags: HW
LayerCount: 2
Fore
SplineSet
140 740 m 0
 293 740 l 0
 373 161 l 0
 639 740 l 0
 792 740 l 0
 440 0 l 0
 254 0 l 0
 140 740 l 0
EndSplineSet
EndChar

StartChar: W
Encoding: 58 87 58
Width: 1031
VWidth: 500
Flags: HW
LayerCount: 2
Fore
SplineSet
141 740 m 0
 294 740 l 0
 339 220 l 0
 551 740 l 0
 687 740 l 0
 730 220 l 0
 943 740 l 0
 1097 740 l 0
 790 0 l 0
 639 0 l 0
 584 521 l 0
 361 0 l 0
 210 0 l 0
 141 740 l 0
EndSplineSet
EndChar

StartChar: X
Encoding: 59 88 59
Width: 655
VWidth: 500
Flags: HW
LayerCount: 2
Fore
SplineSet
470 360 m 0
 641 0 l 0
 480 0 l 0
 365 249 l 0
 184 0 l 0
 19 0 l 0
 306 375 l 0
 132 740 l 0
 294 740 l 0
 412 485 l 0
 599 740 l 0
 764 740 l 0
 470 360 l 0
EndSplineSet
EndChar

StartChar: Y
Encoding: 60 89 60
Width: 641
VWidth: 500
Flags: HW
LayerCount: 2
Fore
SplineSet
274 216 m 0
 133 740 l 0
 294 740 l 0
 372 377 l 0
 575 740 l 0
 743 740 l 0
 422 216 l 0
 388 0 l 0
 239 0 l 0
 274 216 l 0
EndSplineSet
EndChar

StartChar: Z
Encoding: 61 90 61
Width: 568
VWidth: 500
Flags: HW
LayerCount: 2
Fore
SplineSet
54 126 m 0
 450 607 l 0
 130 607 l 0
 151 740 l 0
 641 740 l 0
 621 614 l 0
 226 133 l 0
 555 133 l 0
 534 0 l 0
 34 0 l 0
 54 126 l 0
EndSplineSet
EndChar

StartChar: bracketleft
Encoding: 62 91 62
Width: 339
VWidth: 500
Flags: HW
LayerCount: 2
Fore
SplineSet
94 -168 m 0
 71.3330078125 -140 60 -104 60 -60 c 0
 60 -46 62 -26.3330078125 66 -1 c 0
 168 648 l 0
 188.666992188 777.333007812 259 842 379 842 c 0
 458 842 l 0
 440 723 l 0
 404 723 l 0
 354 723 324 690.666992188 314 626 c 0
 215 6 l 0
 214.333007812 2 213.666992188 -2.5 213 -7.5 c 0
 212.333007812 -12.5 212 -18.3330078125 212 -25 c 0
 212 -69 233 -91 275 -91 c 0
 310 -91 l 0
 292 -210 l 0
 213 -210 l 0
 156.333007812 -210 116.666992188 -196 94 -168 c 0
EndSplineSet
EndChar

StartChar: backslash
Encoding: 63 92 63
Width: 462
VWidth: 500
Flags: HW
LayerCount: 2
Fore
SplineSet
137 770 m 0
 288 770 l 0
 436 -72 l 0
 285 -72 l 0
 137 770 l 0
EndSplineSet
EndChar

StartChar: bracketright
Encoding: 64 93 64
Width: 339
VWidth: 500
Flags: HW
LayerCount: 2
Fore
SplineSet
1 -91 m 0
 36 -91 l 0
 86.6669921875 -91 117 -58.6669921875 127 6 c 0
 226 626 l 0
 227.333007812 642 228 652.666992188 228 658 c 0
 228 681.333007812 222.666992188 698 212 708 c 0
 201.333007812 718 185.666992188 723 165 723 c 0
 130 723 l 0
 148 842 l 0
 228 842 l 0
 330.666992188 842 382 795.333007812 382 702 c 0
 382 686 380.333007812 668 377 648 c 0
 274 -1 l 0
 252 -140.333007812 181.333007812 -210 62 -210 c 0
 -18 -210 l 0
 1 -91 l 0
EndSplineSet
EndChar

StartChar: asciicircum
Encoding: 65 94 65
Width: 386
VWidth: 500
Flags: HW
LayerCount: 2
Fore
SplineSet
253 668 m 0
 354 668 l 0
 431 531 l 0
 345 531 l 0
 290 599 l 0
 209 531 l 0
 123 531 l 0
 253 668 l 0
EndSplineSet
EndChar

StartChar: underscore
Encoding: 66 95 66
Width: 609
VWidth: 500
Flags: HW
LayerCount: 2
Fore
SplineSet
-12 -73 m 0
 597 -73 l 0
 579 -192 l 0
 -30 -192 l 0
 -12 -73 l 0
EndSplineSet
EndChar

StartChar: grave
Encoding: 67 96 67
Width: 232
VWidth: 500
Flags: HW
LayerCount: 2
Fore
SplineSet
138 771 m 0
 257 771 l 0
 317 631 l 0
 230 631 l 0
 138 771 l 0
EndSplineSet
EndChar

StartChar: a
Encoding: 68 97 68
Width: 571
VWidth: 500
Flags: HW
LayerCount: 2
Fore
SplineSet
343 123 m 0
 359 129.666992188 375.666992188 138.666992188 393 150 c 0
 434 408 l 0
 428 412 418.166992188 415.666992188 404.5 419 c 0
 390.833007812 422.333007812 376 424 360 424 c 0
 320.666992188 424 291 412.166992188 271 388.5 c 0
 251 364.833007812 237 328.666992188 229 280 c 0
 223.666992188 246.666992188 221 222 221 206 c 0
 221 177.333007812 226.666992188 154.666992188 238 138 c 0
 249.333007812 121.333007812 266.666992188 113 290 113 c 0
 309.333007812 113 327 116.333007812 343 123 c 0
113 40.5 m 0
 85.6669921875 71.5 72 117.666992188 72 179 c 0
 72 209 76 246.333007812 84 291 c 0
 98 377 127.5 440.5 172.5 481.5 c 0
 217.5 522.5 282.666992188 543 368 543 c 0
 412.666992188 543 455.333007812 537.166992188 496 525.5 c 0
 536.666992188 513.833007812 569.333007812 498.666992188 594 480 c 0
 518 0 l 0
 387 0 l 0
 379 54 l 0
 362.333007812 39.3330078125 338.5 25.6669921875 307.5 13 c 0
 276.5 0.3330078125 246.666992188 -6 218 -6 c 0
 175.333007812 -6 140.333007812 9.5 113 40.5 c 0
EndSplineSet
EndChar

StartChar: b
Encoding: 69 98 69
Width: 581
VWidth: 500
Flags: HW
LayerCount: 2
Fore
SplineSet
399.5 149.5 m 0
 417.833007812 173.833007812 431 214 439 270 c 0
 442.333007812 296.666992188 444 317.333007812 444 332 c 0
 444 393.333007812 421 424 375 424 c 0
 357.666992188 424 339.166992188 421.5 319.5 416.5 c 0
 299.833007812 411.5 281.666992188 405 265 397 c 0
 226 145 l 0
 240 134.333007812 254.666992188 126.333007812 270 121 c 0
 285.333007812 115.666992188 304 113 326 113 c 0
 356.666992188 113 381.166992188 125.166992188 399.5 149.5 c 0
283 10 m 0
 254.333007812 20.6669921875 230.333007812 34.3330078125 211 51 c 0
 185 0 l 0
 54 0 l 0
 175 763 l 0
 323 763 l 0
 282 503 l 0
 304.666992188 515 329.166992188 524.666992188 355.5 532 c 0
 381.833007812 539.333007812 404.666992188 543 424 543 c 0
 476.666992188 543 518 526.666992188 548 494 c 0
 578 461.333007812 593 415 593 355 c 0
 593 333 588.666992188 291.666992188 580 231 c 0
 568 155.666992188 544 97.3330078125 508 56 c 0
 472 14.6669921875 426.666992188 -6 372 -6 c 0
 341.333007812 -6 311.666992188 -0.6669921875 283 10 c 0
EndSplineSet
EndChar

StartChar: c
Encoding: 70 99 70
Width: 475
VWidth: 500
Flags: HW
LayerCount: 2
Fore
SplineSet
125 40.5 m 0
 91.6669921875 71.5 75 124 75 198 c 0
 75 220 78.3330078125 251.666992188 85 293 c 0
 110.333007812 459.666992188 193.333007812 543 334 543 c 0
 383.333007812 543 444.666992188 533.666992188 518 515 c 0
 504 429 l 0
 368 429 l 0
 327.333007812 429 296.333007812 416.166992188 275 390.5 c 0
 253.666992188 364.833007812 238.333007812 324 229 268 c 0
 225 240 223 221 223 211 c 0
 223 173.666992188 230.833007812 146.833007812 246.5 130.5 c 0
 262.166992188 114.166992188 286.333007812 106 319 106 c 0
 462 106 l 0
 449 22 l 0
 395.666992188 3.3330078125 336.333007812 -6 271 -6 c 0
 207 -6 158.333007812 9.5 125 40.5 c 0
EndSplineSet
EndChar

StartChar: d
Encoding: 71 100 71
Width: 575
VWidth: 500
Flags: HW
LayerCount: 2
Fore
SplineSet
345 123 m 0
 361.666992188 129.666992188 378.666992188 138.666992188 396 150 c 0
 437 408 l 0
 415.666992188 418.666992188 390.666992188 424 362 424 c 0
 325.333007812 424 296.666992188 413 276 391 c 0
 255.333007812 369 239.666992188 328.333007812 229 269 c 0
 224.333007812 242.333007812 222 221 222 205 c 0
 222 143.666992188 245 113 291 113 c 0
 310.333007812 113 328.333007812 116.333007812 345 123 c 0
113.5 42.5 m 0
 87.8330078125 74.8330078125 75 120.666992188 75 180 c 0
 75 220 78.6669921875 258 86 294 c 0
 96.6669921875 350 111.333007812 395.833007812 130 431.5 c 0
 148.666992188 467.166992188 176 494.666992188 212 514 c 0
 248 533.333007812 296 543 356 543 c 0
 394.666992188 543 428 538.333007812 456 529 c 0
 493 763 l 0
 641 763 l 0
 520 0 l 0
 389 0 l 0
 380 54 l 0
 359.333007812 36 335.333007812 21.5 308 10.5 c 0
 280.666992188 -0.5 253 -6 225 -6 c 0
 176.333007812 -6 139.166992188 10.1669921875 113.5 42.5 c 0
EndSplineSet
EndChar

StartChar: e
Encoding: 72 101 72
Width: 548
VWidth: 500
Flags: HW
LayerCount: 2
Fore
SplineSet
401 304.5 m 0
 421.666992188 317.5 432 338.666992188 432 368 c 0
 432 410 406.666992188 431 356 431 c 0
 319.333007812 431 291.5 419.5 272.5 396.5 c 0
 253.5 373.5 240.333007812 338.333007812 233 291 c 0
 258.333007812 287 280.666992188 285 300 285 c 0
 346.666992188 285 380.333007812 291.5 401 304.5 c 0
125 44.5 m 0
 91.6669921875 78.1669921875 75 128 75 194 c 0
 75 220 78.3330078125 254.333007812 85 297 c 0
 98.3330078125 383 128.166992188 445.666992188 174.5 485 c 0
 220.833007812 524.333007812 284.666992188 544 366 544 c 0
 502 544 570 490.666992188 570 384 c 0
 570 314.666992188 549.333007812 267 508 241 c 0
 466.666992188 215 410 202 338 202 c 0
 290.666992188 202 252.333007812 205.666992188 223 213 c 0
 221.666992188 197 221 185 221 177 c 0
 221 151.666992188 230.833007812 133 250.5 121 c 0
 270.166992188 109 302 103 346 103 c 0
 519 103 l 0
 505 16 l 0
 434.333007812 1.3330078125 362 -6 288 -6 c 0
 212.666992188 -6 158.333007812 10.8330078125 125 44.5 c 0
EndSplineSet
EndChar

StartChar: f
Encoding: 73 102 73
Width: 390
VWidth: 500
Flags: HW
LayerCount: 2
Fore
SplineSet
157 418 m 0
 82 418 l 0
 97 513 l 0
 175 537 l 0
 189 616 l 0
 197.666992188 668 217.166992188 706.5 247.5 731.5 c 0
 277.833007812 756.5 323 769 383 769 c 0
 427.666992188 769 468 766 504 760 c 0
 487 651 l 0
 410 651 l 0
 383.333007812 651 364 645.166992188 352 633.5 c 0
 340 621.833007812 332.333007812 602.333007812 329 575 c 0
 324 537 l 0
 454 537 l 0
 435 418 l 0
 305 418 l 0
 239 0 l 0
 91 0 l 0
 157 418 l 0
EndSplineSet
EndChar

StartChar: g
Encoding: 74 103 74
Width: 576
VWidth: 500
Flags: HW
LayerCount: 2
Fore
SplineSet
394 150 m 0
 437 417 l 0
 406.333007812 421.666992188 380 424 358 424 c 0
 324 424 296.333007812 413 275 391 c 0
 253.666992188 369 239 334 231 286 c 0
 225 250.666992188 222 223 222 203 c 0
 222 173 227.833007812 150.5 239.5 135.5 c 0
 251.166992188 120.5 267.666992188 113 289 113 c 0
 321.666992188 113 356.666992188 125.333007812 394 150 c 0
36 -224 m 0
 52 -122 l 0
 221 -122 l 0
 263 -122 296.333007812 -115.5 321 -102.5 c 0
 345.666992188 -89.5 360.333007812 -67 365 -35 c 0
 380 54 l 0
 359.333007812 37.3330078125 333.333007812 23.1669921875 302 11.5 c 0
 270.666992188 -0.1669921875 241.333007812 -6 214 -6 c 0
 169.333007812 -6 134.833007812 11.5 110.5 46.5 c 0
 86.1669921875 81.5 74 125.333007812 74 178 c 0
 74 208 78 249.666992188 86 303 c 0
 100 389.666992188 131.333007812 451.333007812 180 488 c 0
 228.666992188 524.666992188 291 543 367 543 c 0
 413 543 456.166992188 539.833007812 496.5 533.5 c 0
 536.833007812 527.166992188 571.333007812 519.333007812 600 510 c 0
 510 -58 l 0
 500 -120 472.833007812 -165.166992188 428.5 -193.5 c 0
 384.166992188 -221.833007812 322 -236 242 -236 c 0
 219.333007812 -236 195 -235 169 -233 c 0
 36 -224 l 0
EndSplineSet
EndChar

StartChar: h
Encoding: 75 104 75
Width: 590
VWidth: 500
Flags: HW
LayerCount: 2
Fore
SplineSet
175 763 m 0
 323 763 l 0
 278 482 l 0
 302.666992188 500 330.666992188 514.833007812 362 526.5 c 0
 393.333007812 538.166992188 427.666992188 544 465 544 c 0
 554.333007812 544 599 499.333007812 599 410 c 0
 599 392 597 371.333007812 593 348 c 0
 538 0 l 0
 390 0 l 0
 442 330 l 0
 442.666992188 335.333007812 443 343 443 353 c 0
 443 391.666992188 422.666992188 411 382 411 c 0
 358.666992188 411 337.5 407.166992188 318.5 399.5 c 0
 299.5 391.833007812 280 380.666992188 260 366 c 0
 202 0 l 0
 54 0 l 0
 175 763 l 0
EndSplineSet
EndChar

StartChar: i
Encoding: 76 105 76
Width: 254
VWidth: 500
Flags: HW
LayerCount: 2
Fore
SplineSet
138 537 m 0
 286 537 l 0
 202 0 l 0
 53 0 l 0
 138 537 l 0
155 621.5 m 0
 151.666992188 625.166992188 150.666992188 630 152 636 c 0
 167 734 l 0
 169 748 177 755 191 755 c 0
 305 755 l 0
 317 755 322.333007812 748 321 734 c 0
 306 636 l 0
 302.666992188 622.666992188 295 616 283 616 c 0
 169 616 l 0
 163 616 158.333007812 617.833007812 155 621.5 c 0
EndSplineSet
EndChar

StartChar: j
Encoding: 77 106 77
Width: 254
VWidth: 500
Flags: HW
LayerCount: 2
Fore
SplineSet
138 537 m 0
 286 537 l 0
 201 -4 l 0
 190.333007812 -72 165 -149.666992188 125 -237 c 0
 15 -237 l 0
 138 537 l 0
155 621.5 m 0
 151.666992188 625.166992188 150.666992188 630 152 636 c 0
 167 734 l 0
 169 748 177 755 191 755 c 0
 305 755 l 0
 317 755 322.333007812 748 321 734 c 0
 306 636 l 0
 302.666992188 622.666992188 295 616 283 616 c 0
 169 616 l 0
 163 616 158.333007812 617.833007812 155 621.5 c 0
EndSplineSet
EndChar

StartChar: k
Encoding: 78 107 78
Width: 563
VWidth: 500
Flags: HW
LayerCount: 2
Fore
SplineSet
175 763 m 0
 323 763 l 0
 257 347 l 0
 355 363.666992188 418.333007812 427 447 537 c 0
 596 537 l 0
 562 415.666992188 504.666992188 333.333007812 424 290 c 0
 565 0 l 0
 413 0 l 0
 300 245 l 0
 277.333007812 239 257 236 239 236 c 0
 202 0 l 0
 54 0 l 0
 175 763 l 0
EndSplineSet
EndChar

StartChar: l
Encoding: 79 108 79
Width: 322
VWidth: 500
Flags: HW
LayerCount: 2
Fore
SplineSet
120.5 32.5 m 0
 92.8330078125 54.1669921875 79 83.3330078125 79 120 c 0
 79 147.333007812 80.3330078125 169.333007812 83 186 c 0
 175 763 l 0
 323 763 l 0
 239 237 l 0
 233.666992188 197 231 172.666992188 231 164 c 0
 231 146.666992188 235.166992188 134.333007812 243.5 127 c 0
 251.833007812 119.666992188 265 115 283 113 c 0
 321 107 l 0
 304 0 l 0
 240 0 l 0
 188 0 148.166992188 10.8330078125 120.5 32.5 c 0
EndSplineSet
EndChar

StartChar: m
Encoding: 80 109 80
Width: 927
VWidth: 500
Flags: HW
LayerCount: 2
Fore
SplineSet
138 537 m 0
 261 537 l 0
 278 482 l 0
 304.666992188 501.333007812 333 516.5 363 527.5 c 0
 393 538.5 427 544 465 544 c 0
 497 544 523.333007812 537.666992188 544 525 c 0
 564.666992188 512.333007812 581.333007812 492.333007812 594 465 c 0
 622.666992188 491 654.5 510.666992188 689.5 524 c 0
 724.5 537.333007812 758.666992188 544 792 544 c 0
 886.666992188 544 934 501 934 415 c 0
 934 391 931.666992188 364.333007812 927 335 c 0
 874 0 l 0
 726 0 l 0
 778 331 l 0
 779.333007812 340.333007812 780 347.333007812 780 352 c 0
 780 391.333007812 758 411 714 411 c 0
 674 411 633.666992188 395 593 363 c 0
 593 354.333007812 592 342.333007812 590 327 c 0
 538 0 l 0
 390 0 l 0
 442 328 l 0
 443.333007812 341.333007812 444 349.666992188 444 353 c 0
 444 391.666992188 422.333007812 411 379 411 c 0
 356.333007812 411 336.333007812 407.333007812 319 400 c 0
 301.666992188 392.666992188 282 381.333007812 260 366 c 0
 202 0 l 0
 54 0 l 0
 138 537 l 0
EndSplineSet
EndChar

StartChar: n
Encoding: 81 110 81
Width: 590
VWidth: 500
Flags: HW
LayerCount: 2
Fore
SplineSet
138 537 m 0
 261 537 l 0
 278 482 l 0
 333.333007812 523.333007812 395 544 463 544 c 0
 506.333007812 544 539.833007812 532.833007812 563.5 510.5 c 0
 587.166992188 488.166992188 599 459 599 423 c 0
 599 397.666992188 595 360.666992188 587 312 c 0
 538 0 l 0
 390 0 l 0
 438 307 l 0
 442 335 444 350.666992188 444 354 c 0
 444 392 422.333007812 411 379 411 c 0
 357 411 336.5 407.166992188 317.5 399.5 c 0
 298.5 391.833007812 279.333007812 380.666992188 260 366 c 0
 202 0 l 0
 54 0 l 0
 138 537 l 0
EndSplineSet
EndChar

StartChar: o
Encoding: 82 111 82
Width: 574
VWidth: 500
Flags: HW
LayerCount: 2
Fore
SplineSet
365 125 m 0
 380.333007812 133 392.666992188 147.333007812 402 168 c 0
 411.333007812 188.666992188 419.333007812 219.666992188 426 261 c 0
 432 306.333007812 435 337.333007812 435 354 c 0
 435 380.666992188 428.833007812 399.5 416.5 410.5 c 0
 404.166992188 421.5 383 427 353 427 c 0
 325.666992188 427 304.333007812 422.5 289 413.5 c 0
 273.666992188 404.5 261.333007812 388.333007812 252 365 c 0
 242.666992188 341.666992188 234.666992188 307 228 261 c 0
 224 232.333007812 222 208 222 188 c 0
 222 159.333007812 228.5 139.666992188 241.5 129 c 0
 254.5 118.333007812 274.666992188 113 302 113 c 0
 328.666992188 113 349.666992188 117 365 125 c 0
75 181 m 0
 75 215 77.6669921875 249 83 283 c 0
 94.3330078125 353.666992188 111.333007812 407.666992188 134 445 c 0
 156.666992188 482.333007812 186.666992188 508 224 522 c 0
 261.333007812 536 310.666992188 543 372 543 c 0
 428 543 471.166992188 536 501.5 522 c 0
 531.833007812 508 553 487 565 459 c 0
 577 431 583 393.666992188 583 347 c 0
 583 314.333007812 580 278.333007812 574 239 c 0
 564 174.333007812 547.5 124.333007812 524.5 89 c 0
 501.5 53.6669921875 471.166992188 29 433.5 15 c 0
 395.833007812 1 346.666992188 -6 286 -6 c 0
 145.333007812 -6 75 56.3330078125 75 181 c 0
EndSplineSet
EndChar

StartChar: p
Encoding: 83 112 83
Width: 572
VWidth: 500
Flags: HW
LayerCount: 2
Fore
SplineSet
388 155.5 m 0
 407.333007812 179.166992188 421.666992188 218 431 272 c 0
 434.333007812 300.666992188 436 318.666992188 436 326 c 0
 436 359.333007812 430.333007812 384 419 400 c 0
 407.666992188 416 389.333007812 424 364 424 c 0
 268 423 l 0
 222 134 l 0
 236 128.666992188 249 125 261 123 c 0
 273 121 287.666992188 120 305 120 c 0
 341 120 368.666992188 131.833007812 388 155.5 c 0
135 516 m 0
 185.666992188 524.666992188 231.833007812 531.333007812 273.5 536 c 0
 315.166992188 540.666992188 359 543 405 543 c 0
 467.666992188 543 512.833007812 527.333007812 540.5 496 c 0
 568.166992188 464.666992188 582 416.333007812 582 351 c 0
 582 321 578.666992188 285.333007812 572 244 c 0
 558.666992188 160.666992188 530.333007812 98.1669921875 487 56.5 c 0
 443.666992188 14.8330078125 388.666992188 -6 322 -6 c 0
 270.666992188 -6 231.333007812 1 204 15 c 0
 164 -237 l 0
 16 -237 l 0
 135 516 l 0
EndSplineSet
EndChar

StartChar: q
Encoding: 84 113 84
Width: 570
VWidth: 500
Flags: HW
LayerCount: 2
Fore
SplineSet
393 150 m 0
 436 417 l 0
 403.333007812 421.666992188 378 424 360 424 c 0
 319.333007812 424 289.5 412 270.5 388 c 0
 251.5 364 237.333007812 326.333007812 228 275 c 0
 222.666992188 243 220 219.333007812 220 204 c 0
 220 174.666992188 226 152.166992188 238 136.5 c 0
 250 120.833007812 266.333007812 113 287 113 c 0
 319.666992188 113 355 125.333007812 393 150 c 0
378 54 m 0
 356.666992188 36.6669921875 331.166992188 22.3330078125 301.5 11 c 0
 271.833007812 -0.3330078125 243 -6 215 -6 c 0
 167.666992188 -6 132.333007812 9.6669921875 109 41 c 0
 85.6669921875 72.3330078125 74 117.333007812 74 176 c 0
 74 204.666992188 77.3330078125 241.333007812 84 286 c 0
 98.6669921875 379.333007812 129.333007812 445.5 176 484.5 c 0
 222.666992188 523.5 284.666992188 543 362 543 c 0
 407.333007812 543 451.833007812 539.833007812 495.5 533.5 c 0
 539.166992188 527.166992188 573.666992188 519.333007812 599 510 c 0
 480 -237 l 0
 332 -237 l 0
 378 54 l 0
EndSplineSet
EndChar

StartChar: r
Encoding: 85 114 85
Width: 419
VWidth: 500
Flags: HW
LayerCount: 2
Fore
SplineSet
139 537 m 0
 271 537 l 0
 277 468 l 0
 299 491.333007812 321.833007812 509.666992188 345.5 523 c 0
 369.166992188 536.333007812 395.333007812 543 424 543 c 0
 446.666992188 543 464.666992188 541 478 537 c 0
 455 389 l 0
 429.666992188 390.333007812 409 391 393 391 c 0
 365.666992188 391 340.5 387 317.5 379 c 0
 294.5 371 274.666992188 360.666992188 258 348 c 0
 203 0 l 0
 54 0 l 0
 139 537 l 0
EndSplineSet
EndChar

StartChar: s
Encoding: 86 115 86
Width: 512
VWidth: 500
Flags: HW
LayerCount: 2
Fore
SplineSet
52 18 m 0
 66 105 l 0
 300 105 l 0
 337.333007812 105 358.333007812 118 363 144 c 0
 366 166 l 0
 367 178 l 0
 367 198 353 208 325 208 c 0
 245 208 l 0
 198.333007812 208 161.166992188 217 133.5 235 c 0
 105.833007812 253 92 280.333007812 92 317 c 0
 92 333 93.3330078125 348 96 362 c 0
 102 400 l 0
 110 445.333007812 130.833007812 480.5 164.5 505.5 c 0
 198.166992188 530.5 251 543 323 543 c 0
 354.333007812 543 389.833007812 540.666992188 429.5 536 c 0
 469.166992188 531.333007812 502 525.333007812 528 518 c 0
 513 431 l 0
 294 431 l 0
 274.666992188 431 260.666992188 427.833007812 252 421.5 c 0
 243.333007812 415.166992188 237.333007812 404.666992188 234 390 c 0
 231 375 l 0
 229 366.333007812 228 359.333007812 228 354 c 0
 228 344.666992188 231.5 337.833007812 238.5 333.5 c 0
 245.5 329.166992188 257.333007812 327 274 327 c 0
 364 327 l 0
 406.666992188 327 440.833007812 317.5 466.5 298.5 c 0
 492.166992188 279.5 505 253.333007812 505 220 c 0
 505 206.666992188 504 192.333007812 502 177 c 0
 495 130 l 0
 487.666992188 82 464.666992188 47.3330078125 426 26 c 0
 387.333007812 4.6669921875 334 -6 266 -6 c 0
 176.666992188 -6 105.333007812 2 52 18 c 0
EndSplineSet
EndChar

StartChar: t
Encoding: 87 116 87
Width: 408
VWidth: 500
Flags: HW
LayerCount: 2
Fore
SplineSet
159.5 30 m 0
 132.5 50 119 80.6669921875 119 122 c 0
 119 151.333007812 122 182.333007812 128 215 c 0
 165 418 l 0
 82 418 l 0
 97 513 l 0
 189 537 l 0
 233 687 l 0
 350 687 l 0
 326 537 l 0
 452 537 l 0
 434 418 l 0
 307 418 l 0
 275 214 l 0
 274.333007812 211.333007812 273 204.166992188 271 192.5 c 0
 269 180.833007812 268 171 268 163 c 0
 268 147.666992188 272 136.333007812 280 129 c 0
 288 121.666992188 301 117.333007812 319 116 c 0
 380 110 l 0
 362 0 l 0
 281 0 l 0
 227 0 186.5 10 159.5 30 c 0
EndSplineSet
EndChar

StartChar: u
Encoding: 88 117 88
Width: 590
VWidth: 500
Flags: HW
LayerCount: 2
Fore
SplineSet
108.5 27 m 0
 86.8330078125 49 76 80 76 120 c 0
 76 142 77.6669921875 163.666992188 81 185 c 0
 137 537 l 0
 285 537 l 0
 233 203 l 0
 231.666992188 193.666992188 231 186.333007812 231 181 c 0
 231 145 252 127 294 127 c 0
 316.666992188 127 337.5 130.666992188 356.5 138 c 0
 375.5 145.333007812 395 156.333007812 415 171 c 0
 473 537 l 0
 621 537 l 0
 537 0 l 0
 405 0 l 0
 397 55 l 0
 365.666992188 33.6669921875 336.333007812 18.1669921875 309 8.5 c 0
 281.666992188 -1.1669921875 248.333007812 -6 209 -6 c 0
 163.666992188 -6 130.166992188 5 108.5 27 c 0
EndSplineSet
EndChar

StartChar: v
Encoding: 89 118 89
Width: 549
VWidth: 500
Flags: HW
LayerCount: 2
Fore
SplineSet
83 537 m 0
 235 537 l 0
 288 139 l 0
 407 391 l 0
 419 418.333007812 428.333007812 443.666992188 435 467 c 0
 441.666992188 490.333007812 446.666992188 516.333007812 450 545 c 0
 586 545 l 0
 585.333007812 510.333007812 579 475.666992188 567 441 c 0
 555 406.333007812 538.666992188 368.666992188 518 328 c 0
 349 0 l 0
 178 0 l 0
 83 537 l 0
EndSplineSet
EndChar

StartChar: w
Encoding: 90 119 90
Width: 850
VWidth: 500
Flags: HW
LayerCount: 2
Fore
SplineSet
83 537 m 0
 235 537 l 0
 281 139 l 0
 442 537 l 0
 539 537 l 0
 609 139 l 0
 708 408 l 0
 727.333007812 467.333007812 738.666992188 513 742 545 c 0
 886 545 l 0
 886 515.666992188 881 483.333007812 871 448 c 0
 861 412.666992188 849.333007812 381 836 353 c 0
 670 0 l 0
 513 0 l 0
 456 296 l 0
 326 0 l 0
 169 0 l 0
 83 537 l 0
EndSplineSet
EndChar

StartChar: x
Encoding: 91 120 91
Width: 556
VWidth: 500
Flags: HW
LayerCount: 2
Fore
SplineSet
400 256 m 0
 549 0 l 0
 397 0 l 0
 300 166 l 0
 160 0 l 0
 8 0 l 0
 238 273 l 0
 84 537 l 0
 236 537 l 0
 336 365 l 0
 466 537 l 0
 625 537 l 0
 400 256 l 0
EndSplineSet
EndChar

StartChar: y
Encoding: 92 121 92
Width: 575
VWidth: 500
Flags: HW
LayerCount: 2
Fore
SplineSet
96 -132 m 0
 140 -122.666992188 176.666992188 -108 206 -88 c 0
 235.333007812 -68 259.333007812 -38.6669921875 278 0 c 0
 231.333007812 4.6669921875 197.5 18 176.5 40 c 0
 155.5 62 142.333007812 96.6669921875 137 144 c 0
 91 537 l 0
 244 537 l 0
 268 175 l 0
 271.333007812 140.333007812 290 122.333007812 324 121 c 0
 442 410 l 0
 462 462.666992188 472.666992188 507.666992188 474 545 c 0
 613 545 l 0
 613 471 593 392 553 308 c 0
 411 8 l 0
 371.666992188 -76.6669921875 327.166992188 -137.166992188 277.5 -173.5 c 0
 227.833007812 -209.833007812 167.333007812 -231 96 -237 c 0
 96 -132 l 0
EndSplineSet
EndChar

StartChar: z
Encoding: 93 122 93
Width: 501
VWidth: 500
Flags: HW
LayerCount: 2
Fore
SplineSet
57 107 m 0
 355 418 l 0
 94 418 l 0
 113 537 l 0
 544 537 l 0
 528 430 l 0
 230 119 l 0
 484 119 l 0
 482.666992188 106.333007812 479.666992188 86.3330078125 475 59 c 0
 470.333007812 31.6669921875 467 12 465 0 c 0
 40 0 l 0
 57 107 l 0
EndSplineSet
EndChar

StartChar: braceleft
Encoding: 94 123 94
Width: 317
VWidth: 500
Flags: HW
LayerCount: 2
Fore
SplineSet
134.5 -179.5 m 0
 104.166992188 -159.166992188 89 -127.333007812 89 -84 c 0
 89 -58 98.3330078125 7.3330078125 117 112 c 0
 127.666992188 172.666992188 133 207.666992188 133 217 c 0
 133 234.333007812 128.5 246.666992188 119.5 254 c 0
 110.5 261.333007812 95 265 73 265 c 0
 95 402 l 0
 141 406 166.666992188 425.333007812 172 460 c 0
 203 656 l 0
 210.333007812 702.666992188 223.5 739.5 242.5 766.5 c 0
 261.5 793.5 287.833007812 812.833007812 321.5 824.5 c 0
 355.166992188 836.166992188 398.666992188 842 452 842 c 0
 432 723 l 0
 404.666992188 723 385 716.333007812 373 703 c 0
 361 689.666992188 352 663.666992188 346 625 c 0
 317 435 l 0
 307 373 268.666992188 339.333007812 202 334 c 0
 229.333007812 328.666992188 250.166992188 319 264.5 305 c 0
 278.833007812 291 286 273 286 251 c 0
 286 239 278.666992188 189 264 101 c 0
 250 19.6669921875 243 -28 243 -42 c 0
 243 -62 247.666992188 -76.5 257 -85.5 c 0
 266.333007812 -94.5 281.333007812 -99 302 -99 c 0
 285 -210 l 0
 215 -210 164.833007812 -199.833007812 134.5 -179.5 c 0
EndSplineSet
EndChar

StartChar: bar
Encoding: 95 124 95
Width: 251
VWidth: 500
Flags: HW
LayerCount: 2
Fore
SplineSet
188 770 m 0
 307 770 l 0
 174 -72 l 0
 55 -72 l 0
 188 770 l 0
EndSplineSet
EndChar

StartChar: braceright
Encoding: 96 125 96
Width: 317
VWidth: 500
Flags: HW
LayerCount: 2
Fore
SplineSet
0 -99 m 0
 27.3330078125 -99 47 -92 59 -78 c 0
 71 -64 79.3330078125 -42.3330078125 84 -13 c 0
 121 216 l 0
 125.666992188 242.666992188 137.666992188 264.333007812 157 281 c 0
 176.333007812 297.666992188 202 308.666992188 234 314 c 0
 178 318.666992188 150 344.666992188 150 392 c 0
 150 409.333007812 157.333007812 462 172 550 c 0
 182.666992188 622 188 660.666992188 188 666 c 0
 188 687.333007812 183.333007812 702.166992188 174 710.5 c 0
 164.666992188 718.833007812 150 723 130 723 c 0
 149 842 l 0
 277 842 341 794.333007812 341 699 c 0
 341 693 335.333007812 654 324 582 c 0
 310 488 303 437.333007812 303 430 c 0
 303 402 323 386 363 382 c 0
 341 245 l 0
 297 245 271.666992188 225.666992188 265 187 c 0
 230 -38 l 0
 223.333007812 -81.3330078125 211.333007812 -115.333007812 194 -140 c 0
 176.666992188 -164.666992188 151.166992188 -182.5 117.5 -193.5 c 0
 83.8330078125 -204.5 38.6669921875 -210 -18 -210 c 0
 0 -99 l 0
EndSplineSet
EndChar

StartChar: asciitilde
Encoding: 97 126 97
Width: 423
VWidth: 500
Flags: HW
LayerCount: 2
Fore
SplineSet
330 540 m 0
 321.333007812 544 310.666992188 550 298 558 c 0
 287.333007812 565.333007812 278.166992188 570.666992188 270.5 574 c 0
 262.833007812 577.333007812 255 579 247 579 c 0
 229 579 212.666992188 575.833007812 198 569.5 c 0
 183.333007812 563.166992188 165.666992188 553.333007812 145 540 c 0
 133 591 l 0
 177 637.666992188 220 661 262 661 c 0
 271.333007812 661 280 659.166992188 288 655.5 c 0
 296 651.833007812 307.333007812 645.666992188 322 637 c 0
 332.666992188 630.333007812 341.666992188 625.166992188 349 621.5 c 0
 356.333007812 617.833007812 363.333007812 616 370 616 c 0
 401.333007812 616 434 630.333007812 468 659 c 0
 480 603 l 0
 436.666992188 557 396 534 358 534 c 0
 348 534 338.666992188 536 330 540 c 0
EndSplineSet
EndChar

StartChar: inherent
Encoding: 98 -1 98
Width: 172
Flags: HW
LayerCount: 2
Fore
SplineSet
340 735 m 2
 332 696.333333333 307.166666667 662.333333333 265.5 633 c 128
 223.833333333 603.666666667 174.333333333 589 117 589 c 1
 139 695 l 1
 157.666666667 695 172.333333333 699.666666667 183 709 c 1
 195 716.333333333 202.333333333 725 205 735 c 1
 219 806 l 1
 354 806 l 1
 340 735 l 2
EndSplineSet
EndChar

StartChar: makewide
Encoding: 99 -1 99
Width: 347
Flags: HW
LayerCount: 2
Fore
SplineSet
488 138 m 2
 480 100.666666667 461 68.3333333333 431 41 c 128
 401 13.6666666667 369 0 335 0 c 2
 186 1 l 2
 168.666666667 1 152.833333333 3 138.5 7 c 128
 124.166666667 11 109.333333333 17.6666666667 94 27 c 128
 78.6666666667 36.3333333333 65.6666666667 47 55 59 c 128
 44.3333333333 71 33 87 21 107 c 1
 53 261 l 1
 74 265 l 1
 86 219.666666667 107.666666667 182.666666667 139 154 c 1
 167 126.666666667 197.666666667 113 231 113 c 2
 324 113 l 2
 331.333333333 113 337.333333333 116.666666667 342 124 c 0
 351.333333333 136.666666667 356.666666667 147 358 155 c 2
 429 493 l 2
 430.333333333 500.333333333 431 505.666666667 431 509 c 0
 431 521 427 533.333333333 419 546 c 1
 407 558.666666667 390.333333333 565 369 565 c 2
 260 565 l 1
 283 678 l 1
 530 678 l 1
 536 583 l 1
 556 561 566 538.333333333 566 515 c 0
 566 510.333333333 565.333333333 504.333333333 564 497 c 2
 488 138 l 2
EndSplineSet
EndChar

StartChar: shortrr
Encoding: 100 -1 100
Width: 821
Flags: HW
LayerCount: 2
Fore
SplineSet
964 569 m 1
 475 569 l 2
 461 569 450.333333333 566.666666667 443 562 c 128
 435.666666667 557.333333333 430.666666667 550.333333333 428 541 c 2
 410 463 l 1
 410 450.333333333 414.333333333 439.833333333 423 431.5 c 128
 431.666666667 423.166666667 443.333333333 419 458 419 c 2
 647 419 l 1
 622 306 l 1
 434 306 l 2
 418.666666667 306 405 302.333333333 393 295 c 0
 387 291.666666667 382.5 287.5 379.5 282.5 c 128
 376.5 277.5 374.333333333 272 373 266 c 2
 351 168 l 1
 349.666666667 153.333333333 351.666666667 142.333333333 357 135 c 1
 361.666666667 124.333333333 367.666666667 118.666666667 375 118 c 1
 471 118 l 1
 448 5 l 1
 307 5 l 2
 274.333333333 5 248 16.6666666667 228 40 c 0
 213.333333333 57.3333333333 206 76 206 96 c 0
 206 100.666666667 206.666666667 108.333333333 208 119 c 1
 240 273 l 2
 245.333333333 299 259 321.666666667 281 341 c 1
 283.666666667 342.333333333 291 346.5 303 353.5 c 128
 315 360.5 323.333333333 364.666666667 328 366 c 1
 292 391 l 1
 282 405.666666667 277 421.333333333 277 438 c 0
 277 446 277.333333333 451.666666667 278 455 c 2
 303 574 l 2
 310.333333333 608 329.333333333 633.666666667 360 651 c 1
 386.666666667 670.333333333 420 680 460 680 c 2
 992 680 l 1
 964 569 l 1
EndSplineSet
EndChar

StartChar: anusvara
Encoding: 101 3202 101
Width: 786
Flags: HW
LayerCount: 2
Fore
SplineSet
831 156 m 2
 821.666666667 113.333333333 800 77.3333333333 766 48 c 1
 732.666666667 16.6666666667 696.666666667 1 658 1 c 2
 344 1 l 2
 299.333333333 1 264 18 238 52 c 1
 218.666666667 74 209 101 209 133 c 0
 209 143 210.333333333 154.333333333 213 167 c 2
 290 533 l 1
 300 575.666666667 324 610.333333333 362 637 c 1
 380.666666667 651.666666667 400.5 662.166666667 421.5 668.5 c 128
 442.5 674.833333333 465 678 489 678 c 2
 775 678 l 2
 820.333333333 678 856.333333333 662.666666667 883 632 c 0
 902.333333333 610 912 583.666666667 912 553 c 0
 912 542.333333333 910.666666667 531.666666667 908 521 c 2
 831 156 l 2
700 176 m 1
 771 513 l 2
 771.666666667 516.333333333 772 521 772 527 c 0
 772 535.666666667 768.5 544.166666667 761.5 552.5 c 128
 754.5 560.833333333 744 565 730 565 c 2
 501 565 l 2
 481.666666667 565 463.333333333 560.333333333 446 551 c 1
 432 541.666666667 423.666666667 531 421 519 c 2
 349 174 l 2
 345.666666667 157.333333333 350.166666667 142.5 362.5 129.5 c 128
 374.833333333 116.5 390.666666667 110 410 110 c 2
 634 110 l 2
 648 110 661.666666667 116.166666667 675 128.5 c 128
 688.333333333 140.833333333 696.666666667 156.666666667 700 176 c 1
EndSplineSet
EndChar

StartChar: u0C83
Encoding: 102 3203 102
Width: 508
Flags: HW
LayerCount: 2
Fore
SplineSet
645 461 m 2
 639.666666667 433.666666667 623.666666667 410 597 390 c 1
 573.666666667 370 545.666666667 360 513 360 c 2
 354 360 l 2
 318.666666667 360 292.666666667 371 276 393 c 1
 261.333333333 408.333333333 254 426.666666667 254 448 c 0
 254 456.666666667 254.333333333 463.666666667 255 469 c 2
 277 574 l 2
 283 605.333333333 300.333333333 631 329 651 c 128
 357.666666667 671 388.666666667 681 422 681 c 2
 566 681 l 2
 590 681 609 676 623 666 c 1
 631 662.666666667 638 657.5 644 650.5 c 128
 650 643.5 655.5 634.5 660.5 623.5 c 128
 665.5 612.5 668 601.666666667 668 591 c 0
 668 585.666666667 667.333333333 578.333333333 666 569 c 2
 645 461 l 2
571 117 m 2
 565 85.6666666667 549.5 58.6666666667 524.5 36 c 128
 499.5 13.3333333333 473 2 445 2 c 2
 277 3 l 2
 245.666666667 3 219.333333333 13.6666666667 198 35 c 1
 183.333333333 52.3333333333 176 70.6666666667 176 90 c 0
 176 93.3333333333 176.666666667 100.333333333 178 111 c 1
 200 216 l 2
 206 247.333333333 223.666666667 273.166666667 253 293.5 c 128
 282.333333333 313.833333333 313.333333333 324 346 324 c 2
 490 324 l 2
 526 324 552.333333333 312.333333333 569 289 c 1
 583.666666667 273.666666667 591 254 591 230 c 0
 591 226 590.333333333 217.666666667 589 205 c 1
 571 117 l 2
514 489 m 2
 526 549 l 2
 526.666666667 552.333333333 526.333333333 555.5 525 558.5 c 128
 523.666666667 561.5 522.666666667 563.833333333 522 565.5 c 128
 521.333333333 567.166666667 517 568 509 568 c 2
 444 568 l 2
 433.333333333 568 424.833333333 566.166666667 418.5 562.5 c 128
 412.166666667 558.833333333 408.333333333 554 407 548 c 2
 395 497 l 1
 395.666666667 489.666666667 398 483.666666667 402 479 c 128
 406 474.333333333 411.666666667 472 419 472 c 2
 490 472 l 1
 495.333333333 473.333333333 500 474.833333333 504 476.5 c 128
 508 478.166666667 510.666666667 479.833333333 512 481.5 c 128
 513.333333333 483.166666667 514 485.666666667 514 489 c 2
440 129 m 1
 452 190 l 2
 453.333333333 197.333333333 452.666666667 202.333333333 450 205 c 2
 446 209 l 1
 361 209 l 1
 340 205 l 1
 334.666666667 201.666666667 331.666666667 198.666666667 331 196 c 2
 317 139 l 1
 321 120 l 1
 322.333333333 117.333333333 323.833333333 115.666666667 325.5 115 c 128
 327.166666667 114.333333333 328.333333333 114 329 114 c 2
 415 114 l 2
 419.666666667 114 424.666666667 115.333333333 430 118 c 1
 440 129 l 1
EndSplineSet
EndChar

StartChar: avowel
Encoding: 103 3205 103
Width: 1021
Flags: HW
LayerCount: 2
Fore
SplineSet
1096 144 m 2
 1088 104 1065.33333333 70.6666666667 1028 44 c 1
 994 15.3333333333 955.333333333 1 912 1 c 2
 358 2 l 2
 310.666666667 2 273.666666667 16 247 44 c 1
 236.333333333 54 228.666666667 64.8333333333 224 76.5 c 128
 219.333333333 88.1666666667 217 101.333333333 217 116 c 0
 217 121.333333333 217.666666667 130.333333333 219 143 c 1
 302 540 l 2
 310 580.666666667 331.666666667 614.166666667 367 640.5 c 128
 402.333333333 666.833333333 441 680 483 680 c 2
 680 680 l 1
 630 448 l 1
 496 448 l 1
 522 567 l 1
 487 567 l 2
 474.333333333 567 463 561.666666667 453 551 c 0
 439 535.666666667 430.333333333 519 427 501 c 2
 359 178 l 2
 356.333333333 165.333333333 360 150.666666667 370 134 c 1
 385.333333333 121.333333333 401.666666667 115 419 115 c 2
 883 115 l 2
 891 115 897.333333333 115.666666667 902 117 c 128
 906.666666667 118.333333333 912 120.5 918 123.5 c 128
 924 126.5 930 131.166666667 936 137.5 c 128
 942 143.833333333 947.666666667 150 953 156 c 0
 962.333333333 168 968.333333333 181.333333333 971 196 c 2
 1041 526 l 2
 1043.66666667 536.666666667 1041.33333333 547 1034 557 c 1
 1028 563 1018 566 1004 566 c 2
 972 566 l 1
 958 506 l 2
 957.333333333 502.666666667 957 498 957 492 c 0
 957 465.333333333 974.666666667 438.666666667 1010 412 c 1
 987 305 l 1
 535 305 l 1
 560 418 l 1
 848 418 l 1
 829.333333333 442 820 464 820 484 c 0
 820 491.333333333 820.333333333 496.333333333 821 499 c 2
 860 680 l 1
 1040 680 l 2
 1069.33333333 680 1096 674 1120 662 c 128
 1144 650 1161 634.333333333 1171 615 c 1
 1178.33333333 603 1182 588.666666667 1182 572 c 0
 1182 566.666666667 1181.33333333 558.666666667 1180 548 c 1
 1096 144 l 2
EndSplineSet
EndChar

StartChar: aavowel
Encoding: 104 3206 104
Width: 1093
Flags: HW
LayerCount: 2
Fore
SplineSet
1243 485 m 1
 1235 444.333333333 1214.66666667 411.666666667 1182 387 c 1
 1163.33333333 371.666666667 1145.66666667 360.5 1129 353.5 c 128
 1112.33333333 346.5 1094 343 1074 343 c 2
 1055 343 l 1
 1069.66666667 321 1076.33333333 303 1075 289 c 1
 1038 113 l 2
 1032 81.6666666667 1012.33333333 55 979 33 c 0
 963.666666667 23 947 15.3333333333 929 10 c 128
 911 4.66666666667 890.333333333 2 867 2 c 2
 337 6 l 2
 297 6 266.333333333 20 245 48 c 1
 228.333333333 66 220 88 220 114 c 0
 220 124.666666667 221.333333333 135.333333333 224 146 c 2
 308 543 l 2
 312.666666667 562.333333333 320.833333333 580.333333333 332.5 597 c 128
 344.166666667 613.666666667 360.666666667 629.333333333 382 644 c 1
 424.666666667 670 470.666666667 683 520 683 c 2
 674 683 l 1
 624 451 l 1
 490 451 l 1
 516 570 l 1
 502 570 l 2
 486.666666667 570 473.166666667 565.333333333 461.5 556 c 128
 449.833333333 546.666666667 442.666666667 536 440 524 c 2
 368 179 l 2
 366.666666667 169.666666667 366 163.666666667 366 161 c 0
 366 153 368.666666667 144 374 134 c 1
 384.666666667 121.333333333 397.666666667 115 413 115 c 2
 844 115 l 2
 858.666666667 115 873.333333333 121.333333333 888 134 c 0
 896 141.333333333 902.5 148.5 907.5 155.5 c 128
 912.5 162.5 915.666666667 170.666666667 917 180 c 2
 940 291 l 2
 942.666666667 305.666666667 936.333333333 323.666666667 921 345 c 1
 622 345 l 1
 647 458 l 1
 894 458 l 1
 884.666666667 476.666666667 881.333333333 490 884 498 c 1
 900 577 l 2
 905.333333333 606.333333333 923.5 630.5 954.5 649.5 c 128
 985.5 668.5 1020 678 1058 678 c 2
 1150 678 l 2
 1188.66666667 678 1216.83333333 667.5 1234.5 646.5 c 128
 1252.16666667 625.5 1261 604 1261 582 c 0
 1261 577.333333333 1260.33333333 569.666666667 1259 559 c 1
 1243 485 l 1
1108 492 m 2
 1117 538 l 2
 1117.66666667 540.666666667 1118 543.5 1118 546.5 c 128
 1118 551 1118 551 1118 552 c 0
 1118 561.333333333 1114 566 1106 566 c 2
 1063 566 l 2
 1052.33333333 566 1043.83333333 563 1037.5 557 c 128
 1031.16666667 551 1027.66666667 544.333333333 1027 537 c 1
 1020 505 l 2
 1016.66666667 489.666666667 1020.33333333 473.333333333 1031 456 c 1
 1074 456 l 2
 1081.33333333 456 1088.5 459.666666667 1095.5 467 c 128
 1102.5 474.333333333 1106.66666667 482.666666667 1108 492 c 2
EndSplineSet
EndChar

StartChar: ivowel
Encoding: 105 3207 105
Width: 824
Flags: HW
LayerCount: 2
Fore
SplineSet
863 0 m 1
 781 0 l 2
 745 0 714.666666667 11 690 33 c 1
 673.333333333 51.6666666667 665 72 665 94 c 0
 665 98.6666666667 665.666666667 105.666666667 667 115 c 2
 678 171 l 1
 573 171 l 2
 539 171 512.666666667 180.666666667 494 200 c 1
 484.666666667 206 478.166666667 213.333333333 474.5 222 c 128
 470.833333333 230.666666667 469 240 469 250 c 0
 469 257.333333333 469.333333333 262.666666667 470 266 c 2
 485 337 l 1
 488.333333333 359 503.333333333 377.666666667 530 393 c 1
 556 405.666666667 584.666666667 412 616 412 c 2
 739 412 l 2
 760.333333333 412 778.333333333 406 793 394 c 1
 808 380 l 1
 838 529 l 1
 840.666666667 538.333333333 838.166666667 546.166666667 830.5 552.5 c 128
 822.833333333 558.833333333 809.666666667 562 791 562 c 2
 713 562 l 2
 701 562 692.333333333 561.333333333 687 560 c 128
 681.666666667 558.666666667 674 554.833333333 664 548.5 c 128
 654 542.166666667 647.666666667 533 645 521 c 2
 629 444 l 1
 495 444 l 1
 510 516 l 2
 512.666666667 528 509.333333333 538.666666667 500 548 c 128
 490.666666667 557.333333333 476.666666667 562 458 562 c 2
 363 562 l 2
 347.666666667 562 334.5 558.166666667 323.5 550.5 c 128
 312.5 542.833333333 305.666666667 533 303 521 c 2
 288 457 l 1
 288 440.333333333 290.666666667 430.333333333 296 427 c 1
 301.333333333 417.666666667 308.666666667 413 318 413 c 2
 353 413 l 1
 328 300 l 1
 267 301 l 2
 226.333333333 301 195.333333333 314.333333333 174 341 c 1
 156.666666667 359.666666667 148 382.333333333 148 409 c 0
 148 413.666666667 148.666666667 422.333333333 150 435 c 1
 171 534 l 2
 177 562 189.333333333 586.666666667 208 608 c 128
 226.666666667 629.333333333 249.666666667 645.333333333 277 656 c 1
 301.666666667 668 328.666666667 674 358 674 c 2
 495 674 l 2
 527 674 551.333333333 667.666666667 568 655 c 1
 580 649 590 638.333333333 598 623 c 1
 600.666666667 626.333333333 605.5 631.5 612.5 638.5 c 128
 619.5 645.5 627.666666667 650.666666667 637 654 c 1
 658.333333333 668 682 675 708 675 c 2
 838 675 l 2
 887.333333333 675 923.666666667 661.666666667 947 635 c 1
 967 615 977 590.333333333 977 561 c 0
 977 551.666666667 975.666666667 541.666666667 973 531 c 2
 938 365 l 2
 925.333333333 306.333333333 885 250.666666667 817 198 c 1
 803 135 l 2
 801.666666667 127.666666667 802.333333333 122.333333333 805 119 c 1
 813 113.666666667 818.333333333 111 821 111 c 2
 884 111 l 1
 863 0 l 1
698 283 m 1
 699 287 l 2
 701.666666667 297 696.666666667 302 684 302 c 2
 619 302 l 2
 615.666666667 302 613.333333333 301.666666667 612 301 c 1
 610 294 l 1
 610 289 l 1
 610.666666667 287.666666667 611.666666667 286.666666667 613 286 c 128
 614.333333333 285.333333333 615.333333333 285 616 285 c 2
 698 283 l 1
EndSplineSet
EndChar

StartChar: iivowel
Encoding: 106 3208 106
Width: 1281
Flags: HW
LayerCount: 2
Fore
SplineSet
1409 404 m 1
 1403.66666667 376 1387 348 1359 320 c 1
 1334.33333333 298 1305.66666667 280.666666667 1273 268 c 1
 1313 211.333333333 1331.33333333 173.333333333 1328 154 c 1
 1314 87 l 2
 1311.33333333 75 1307.5 64.8333333333 1302.5 56.5 c 128
 1297.5 48.1666666667 1290 39 1280 29 c 1
 1260 11.6666666667 1240 3 1220 3 c 2
 975 3 l 1
 998 116 l 1
 1158 116 l 2
 1163.33333333 116 1169.66666667 119.166666667 1177 125.5 c 128
 1184.33333333 131.833333333 1188.33333333 136.666666667 1189 140 c 2
 1190 145 l 2
 1192.66666667 159 1186.66666667 172.333333333 1172 185 c 1
 1119 253 l 1
 904 253 l 1
 881 139 l 2
 873 101.666666667 851.333333333 69.6666666667 816 43 c 1
 782.666666667 15 745.666666667 1 705 1 c 2
 346 2 l 2
 310.666666667 2 283.333333333 14 264 38 c 1
 248.666666667 54.6666666667 241 75.3333333333 241 100 c 0
 241 105.333333333 241.666666667 113.333333333 243 124 c 1
 269 251 l 1
 156 251 l 1
 181 364 l 1
 294 364 l 1
 309 441 l 1
 318.333333333 483.666666667 349.333333333 526.333333333 402 569 c 1
 323 569 l 1
 346 682 l 1
 872 682 l 2
 882.666666667 682 891.5 685.666666667 898.5 693 c 128
 905.5 700.333333333 909.333333333 706.666666667 910 712 c 2
 922 775 l 1
 1059 775 l 1
 1047 712 l 1
 1039 674.666666667 1018.66666667 643 986 617 c 1
 964 595 936 579.333333333 902 570 c 1
 918.666666667 556 932 540.166666667 942 522.5 c 128
 952 504.833333333 955.666666667 486.666666667 953 468 c 1
 931 363 l 1
 1045 363 l 1
 1039 375 1036 389.666666667 1036 407 c 0
 1036 417.666666667 1036.66666667 426 1038 432 c 2
 1053 504 l 2
 1060.33333333 538 1078.66666667 566.666666667 1108 590 c 1
 1134.66666667 613.333333333 1166 625 1202 625 c 2
 1322 625 l 2
 1360 625 1388.33333333 612.666666667 1407 588 c 1
 1423.66666667 569.333333333 1432 548 1432 524 c 0
 1432 512 1431.33333333 503 1430 497 c 2
 1409 404 l 1
1276 413 m 1
 1291 485 l 2
 1291.66666667 488.333333333 1291.16666667 492 1289.5 496 c 128
 1287.83333333 500 1286.16666667 503.5 1284.5 506.5 c 128
 1282.83333333 509.5 1278 511 1270 511 c 2
 1214 511 l 2
 1204.66666667 511 1198.66666667 509.333333333 1196 506 c 2
 1185 490 l 1
 1169 414 l 1
 1168.33333333 404.666666667 1170.33333333 396 1175 388 c 1
 1215 360 l 1
 1227 362.666666667 1238.33333333 368 1249 376 c 0
 1263.66666667 388 1272.66666667 400.333333333 1276 413 c 1
793 364 m 1
 816 474 l 2
 816.666666667 477.333333333 817 480.833333333 817 484.5 c 128
 817 490 817 490 817 492 c 0
 817 523.333333333 801.666666667 548.666666667 771 568 c 1
 553 568 l 1
 489.666666667 530.666666667 453.333333333 489.333333333 444 444 c 2
 426 362 l 1
 793 364 l 1
753 175 m 1
 768 249 l 1
 402 249 l 1
 384 161 l 2
 381.333333333 149 383.666666667 137 391 125 c 1
 399 115 408 110 418 110 c 2
 675 110 l 2
 682.333333333 110 689.5 111.5 696.5 114.5 c 128
 703.5 117.5 711 121.666666667 719 127 c 1
 736.333333333 141.666666667 747.666666667 157.666666667 753 175 c 1
EndSplineSet
EndChar

StartChar: uvowel
Encoding: 107 3209 107
Width: 1535
Flags: HW
LayerCount: 2
Fore
SplineSet
1612 152 m 2
 1606.66666667 126 1594.5 100.666666667 1575.5 76 c 128
 1556.5 51.3333333333 1533.33333333 32.5 1506 19.5 c 128
 1478.66666667 6.5 1453 0 1429 0 c 2
 1233 0 l 2
 1218.33333333 0 1204 1.83333333333 1190 5.5 c 128
 1176 9.16666666667 1163 14 1151 20 c 128
 1139 26 1129.33333333 33.3333333333 1122 42 c 128
 1114.66666667 50.6666666667 1107.33333333 61.3333333333 1100 74 c 1
 1094 89.3333333333 1091 106.333333333 1091 125 c 0
 1091 130.333333333 1091.66666667 138.333333333 1093 149 c 1
 1174 532 l 2
 1175.33333333 537.333333333 1173.66666667 545.333333333 1169 556 c 1
 1161.66666667 561.333333333 1152 564 1140 564 c 2
 953 564 l 2
 940.333333333 564 931 561.666666667 925 557 c 1
 917.666666667 549.666666667 912.666666667 541 910 531 c 2
 828 140 l 2
 825.333333333 126 821.333333333 114.166666667 816 104.5 c 128
 810.666666667 94.8333333333 802 82.6666666667 790 68 c 0
 772.666666667 48 748.666666667 31.3333333333 718 18 c 128
 687.333333333 4.66666666667 658 -2 630 -2 c 2
 371 -1 l 2
 323 -1 284.333333333 14.3333333333 255 45 c 0
 235 65 225 90.6666666667 225 122 c 0
 225 134 226.333333333 146.333333333 229 159 c 2
 305 523 l 1
 312.333333333 552.333333333 323.333333333 578.666666667 338 602 c 1
 359.333333333 628 384 647 412 659 c 128
 440 671 465.666666667 677 489 677 c 2
 715 677 l 1
 672 477 l 1
 669.333333333 460.333333333 662.666666667 443.666666667 652 427 c 128
 641.333333333 410.333333333 628.666666667 395 614 381 c 1
 580.666666667 353 546 339 510 339 c 2
 422 339 l 1
 447 452 l 1
 505 452 l 2
 507.666666667 452 510.833333333 452.833333333 514.5 454.5 c 128
 518.166666667 456.166666667 521.333333333 457.666666667 524 459 c 0
 530 463.666666667 533.666666667 469 535 475 c 2
 554 561 l 1
 491 561 l 2
 475.666666667 561 463.166666667 556.666666667 453.5 548 c 128
 443.833333333 539.333333333 438.333333333 530 437 520 c 1
 360 156 l 2
 357.333333333 145.333333333 360.166666667 134.5 368.5 123.5 c 128
 376.833333333 112.5 388 107 402 107 c 2
 645 107 l 2
 657.666666667 107 667.666666667 111 675 119 c 1
 687 129 693.666666667 139 695 149 c 1
 774 528 l 2
 779.333333333 552 786.333333333 571.666666667 795 587 c 128
 803.666666667 602.333333333 817.333333333 617 836 631 c 1
 870 659.666666667 907.333333333 674 948 674 c 2
 1177 674 l 2
 1206.33333333 674 1231.83333333 668.166666667 1253.5 656.5 c 128
 1275.16666667 644.833333333 1291 628 1301 606 c 0
 1307 592 1310 576.333333333 1310 559 c 0
 1310 553.666666667 1309.33333333 545.666666667 1308 535 c 1
 1229 157 l 2
 1225.66666667 143 1227.83333333 131.166666667 1235.5 121.5 c 128
 1243.16666667 111.833333333 1252.33333333 107 1263 107 c 2
 1426 107 l 2
 1438.66666667 107 1448.66666667 111 1456 119 c 1
 1461.33333333 123.666666667 1465.5 128.333333333 1468.5 133 c 128
 1471.5 137.666666667 1473.66666667 143 1475 149 c 2
 1553 520 l 1
 1553.66666667 527.333333333 1551 534 1545 540 c 128
 1539 546 1530 549 1518 549 c 2
 1488 549 l 1
 1514 675 l 1
 1586 675 l 2
 1624.66666667 675 1653.33333333 662.666666667 1672 638 c 1
 1686.66666667 620.666666667 1694 599.666666667 1694 575 c 0
 1694 570.333333333 1693.33333333 561.666666667 1692 549 c 1
 1612 152 l 2
EndSplineSet
EndChar

StartChar: uuvowel
Encoding: 108 3210 108
Width: 1840
Flags: HW
LayerCount: 2
Fore
SplineSet
1913 144 m 1
 1903.66666667 103.333333333 1882.66666667 70.6666666667 1850 46 c 1
 1814.66666667 16.6666666667 1779 2 1743 2 c 2
 1685 2 l 2
 1649.66666667 2 1620 15 1596 41 c 1
 1580.66666667 59 1573 79 1573 101 c 0
 1573 110.333333333 1574.33333333 120 1577 130 c 2
 1598 232 l 1
 1733 232 l 1
 1712 130 l 2
 1710.66666667 124 1710.66666667 120.333333333 1712 119 c 0
 1712.66666667 117.666666667 1716.66666667 116.666666667 1724 116 c 1
 1759 116 l 1
 1764.33333333 118.666666667 1767.33333333 120.666666667 1768 122 c 2
 1776 140 l 1
 1855 516 l 2
 1855.66666667 519.333333333 1856 524 1856 530 c 0
 1856 538.666666667 1853.33333333 547.166666667 1848 555.5 c 128
 1842.66666667 563.833333333 1833.66666667 568 1821 568 c 2
 1679 568 l 2
 1660.33333333 568 1644.33333333 562.666666667 1631 552 c 128
 1617.66666667 541.333333333 1609.66666667 528.666666667 1607 514 c 2
 1533 163 l 2
 1529.66666667 149 1525.33333333 136 1520 124 c 128
 1514.66666667 112 1506.66666667 98.3333333333 1496 83 c 1
 1488 73.6666666667 1481 65.3333333333 1475 58 c 0
 1462.33333333 44 1447.66666667 33 1431 25 c 0
 1401.66666667 9.66666666667 1374 2 1348 2 c 2
 1140 2 l 2
 1100 2 1068.33333333 17.6666666667 1045 49 c 1
 1031.66666667 68.3333333333 1025 91.3333333333 1025 118 c 0
 1025 130 1026.33333333 143 1029 157 c 2
 1107 528 l 2
 1109.66666667 540.666666667 1107.33333333 550.666666667 1100 558 c 128
 1092.66666667 565.333333333 1082.66666667 569 1070 569 c 2
 926 569 l 2
 911.333333333 569 899 564.333333333 889 555 c 128
 879 545.666666667 872.666666667 535 870 523 c 2
 796 169 l 2
 786 123 760 83.5 718 50.5 c 128
 676 17.5 631 1 583 1 c 2
 392 2 l 2
 340.666666667 2 297.333333333 17.3333333333 262 48 c 1
 240 70 229 96.6666666667 229 128 c 0
 229 138 230.333333333 149.333333333 233 162 c 2
 311 534 l 1
 316.333333333 555.333333333 324.333333333 574.5 335 591.5 c 128
 345.666666667 608.5 361 624 381 638 c 0
 419 666 462.666666667 680 512 680 c 2
 719 680 l 1
 680 499 l 2
 672 461 650 428 614 400 c 1
 581.333333333 371.333333333 543.666666667 357 501 357 c 2
 443 357 l 1
 468 470 l 1
 512 470 l 2
 515.333333333 470 518.833333333 470.833333333 522.5 472.5 c 128
 526.166666667 474.166666667 528.666666667 475.333333333 530 476 c 0
 536 480.666666667 539.666666667 486 541 492 c 2
 557 566 l 1
 501 566 l 2
 485.666666667 566 472.333333333 561.833333333 461 553.5 c 128
 449.666666667 545.166666667 442.666666667 535.666666667 440 525 c 2
 365 167 l 2
 362.333333333 151.666666667 366 138.666666667 376 128 c 128
 386 117.333333333 400.333333333 112 419 112 c 2
 599 112 l 2
 609 112 621.333333333 117 636 127 c 1
 648 139 655.333333333 152.333333333 658 167 c 2
 733 525 l 1
 740.333333333 555.666666667 754 582 774 604 c 0
 784.666666667 616.666666667 795.833333333 627.333333333 807.5 636 c 128
 819.166666667 644.666666667 832.666666667 652 848 658 c 0
 878.666666667 670.666666667 908.333333333 677 937 677 c 2
 1095 677 l 2
 1126.33333333 677 1154.33333333 670.5 1179 657.5 c 128
 1203.66666667 644.5 1220.33333333 627.333333333 1229 606 c 128
 1237.66666667 584.666666667 1242 565.333333333 1242 548 c 0
 1242 542.666666667 1241.33333333 534.666666667 1240 524 c 1
 1162 153 l 2
 1159.33333333 142.333333333 1160.33333333 133 1165 125 c 1
 1173 115.666666667 1183.33333333 111 1196 111 c 2
 1330 111 l 2
 1337.33333333 111 1344.66666667 112.333333333 1352 115 c 128
 1359.33333333 117.666666667 1366 121 1372 125 c 1
 1381.33333333 134.333333333 1387.5 141.5 1390.5 146.5 c 128
 1393.5 151.5 1395.66666667 157.666666667 1397 165 c 2
 1469 510 l 1
 1476.33333333 541.333333333 1489.33333333 569.333333333 1508 594 c 1
 1518.66666667 606.666666667 1530.16666667 618 1542.5 628 c 128
 1554.83333333 638 1568.33333333 646.666666667 1583 654 c 0
 1612.33333333 668 1642.66666667 675 1674 675 c 2
 1840 675 l 2
 1872.66666667 675 1901.33333333 668 1926 654 c 128
 1950.66666667 640 1968 619.666666667 1978 593 c 0
 1981.33333333 585.666666667 1983.83333333 577 1985.5 567 c 128
 1987.16666667 557 1988 547 1988 537 c 0
 1988 525 1987.33333333 516 1986 510 c 2
 1913 144 l 1
EndSplineSet
EndChar

StartChar: rvocalicvowel.part
Encoding: 110 -1 110
Width: 1051
Flags: HW
LayerCount: 2
Fore
SplineSet
1122 152 m 2
 1117.33333333 130 1110.83333333 111.333333333 1102.5 96 c 128
 1094.16666667 80.6666666667 1082.66666667 64.6666666667 1068 48 c 1
 1036.66666667 16.6666666667 1005.33333333 1 974 1 c 2
 760 1 l 2
 731.333333333 1 703.666666667 8.33333333333 677 23 c 0
 657.666666667 33 643 47.6666666667 633 67 c 1
 618.333333333 49.6666666667 603.333333333 35.6666666667 588 25 c 1
 564 9.66666666667 543.333333333 2 526 2 c 2
 281 3 l 2
 245.666666667 3 219.5 12.6666666667 202.5 32 c 128
 185.5 51.3333333333 177 71.6666666667 177 93 c 0
 177 96.3333333333 177.666666667 102.666666667 179 112 c 2
 218 299 l 1
 401 299 l 2
 441.666666667 299 471.333333333 289.333333333 490 270 c 1
 510 252.666666667 520 233.333333333 520 212 c 0
 520 208.666666667 519.333333333 202.333333333 518 193 c 2
 506 136 l 1
 371 136 l 1
 380 180 l 2
 380.666666667 185.333333333 375.666666667 188 365 188 c 2
 332 188 l 1
 323 146 l 1
 323 138 324.666666667 131 328 125 c 1
 334 119 341 116 349 116 c 2
 504 116 l 2
 513.333333333 116 521.833333333 117.333333333 529.5 120 c 128
 537.166666667 122.666666667 544.666666667 126 552 130 c 0
 564.666666667 137.333333333 572.333333333 146.333333333 575 157 c 2
 657 544 l 1
 657.666666667 552 654.166666667 558.5 646.5 563.5 c 128
 638.833333333 568.5 626.666666667 571 610 571 c 2
 458 571 l 2
 444.666666667 571 432.666666667 568.333333333 422 563 c 1
 416 562.333333333 412.333333333 558.333333333 411 551 c 2
 397 487 l 1
 430 487 l 2
 437.333333333 487 444.666666667 490 452 496 c 128
 459.333333333 502 463.666666667 508.666666667 465 516 c 2
 473 553 l 1
 608 553 l 1
 600 510 l 1
 592 474 572.166666667 442 540.5 414 c 128
 508.833333333 386 475.333333333 372 440 372 c 2
 235 372 l 1
 276 569 l 2
 278.666666667 583.666666667 285 598.333333333 295 613 c 128
 305 627.666666667 317.666666667 641 333 653 c 1
 365.666666667 673 400.666666667 683 438 683 c 2
 669 683 l 2
 711 683 744 670.666666667 768 646 c 1
 787.333333333 624 797 600 797 574 c 0
 797 569.333333333 796.333333333 561.666666667 795 551 c 1
 717 186 l 1
 723 164.666666667 733.833333333 147.333333333 749.5 134 c 128
 765.166666667 120.666666667 780.666666667 114 796 114 c 2
 931 114 l 2
 937 114 942.666666667 115.333333333 948 118 c 128
 953.333333333 120.666666667 959 124.666666667 965 130 c 0
 977.666666667 140.666666667 985.333333333 153.666666667 988 169 c 2
 1059 502 l 2
 1059.66666667 505.333333333 1060 510 1060 516 c 0
 1060 528.666666667 1055.66666667 540.5 1047 551.5 c 128
 1038.33333333 562.5 1025 568 1007 568 c 2
 845 568 l 1
 868 681 l 1
 1044 681 l 2
 1050 681 1056 682.333333333 1062 685 c 128
 1068 687.666666667 1075 691.666666667 1083 697 c 1
 1097 709.666666667 1105.33333333 723 1108 737 c 2
 1120 800 l 1
 1255 800 l 1
 1240 723 l 2
 1234.66666667 697 1222.66666667 674.666666667 1204 656 c 1
 1190 638.666666667 1174.66666667 626 1158 618 c 1
 1170.66666667 608.666666667 1180.16666667 596.666666667 1186.5 582 c 128
 1192.83333333 567.333333333 1196 553 1196 539 c 0
 1196 527 1195.33333333 518.333333333 1194 513 c 2
 1122 152 l 2
EndSplineSet
EndChar

StartChar: lvocalicvowel.part
Encoding: 112 -1 112
Width: 824
Flags: HW
LayerCount: 2
Fore
SplineSet
1058 217 m 1
 893 58 l 1
 881 44 869 33.1666666667 857 25.5 c 128
 845 17.8333333333 834.666666667 13.1666666667 826 11.5 c 128
 817.333333333 9.83333333333 809 9 801 9 c 0
 781.666666667 9 760.333333333 12.8333333333 737 20.5 c 128
 713.666666667 28.1666666667 694.666666667 39.3333333333 680 54 c 0
 672.666666667 62 665.333333333 71 658 81 c 0
 646 97.6666666667 640 114.666666667 640 132 c 0
 640 135.333333333 640.666666667 141.166666667 642 149.5 c 128
 643.333333333 157.833333333 669.666666667 192.333333333 721 253 c 0
 737.666666667 272.333333333 763 302 797 342 c 1
 814.333333333 372.666666667 827 413.666666667 835 465 c 0
 837.666666667 481.666666667 839.666666667 504.333333333 841 533 c 1
 843.666666667 542.333333333 841.166666667 550.166666667 833.5 556.5 c 128
 825.833333333 562.833333333 812.666666667 566 794 566 c 2
 716 566 l 2
 704 566 695.333333333 565.333333333 690 564 c 128
 684.666666667 562.666666667 677 558.833333333 667 552.5 c 128
 657 546.166666667 650.666666667 537 648 525 c 2
 632 448 l 1
 498 448 l 1
 513 520 l 2
 515.666666667 532 512.333333333 542.666666667 503 552 c 128
 493.666666667 561.333333333 479.666666667 566 461 566 c 2
 366 566 l 2
 350.666666667 566 337.5 562.166666667 326.5 554.5 c 128
 315.5 546.833333333 308.666666667 537 306 525 c 2
 291 461 l 1
 291 444.333333333 293.666666667 434.333333333 299 431 c 1
 304.333333333 421.666666667 311.666666667 417 321 417 c 2
 356 417 l 1
 331 304 l 1
 270 305 l 2
 229.333333333 305 198.333333333 318.333333333 177 345 c 1
 159.666666667 363.666666667 151 386.333333333 151 413 c 0
 151 417.666666667 151.666666667 426.333333333 153 439 c 1
 174 538 l 2
 180 566 192.333333333 590.666666667 211 612 c 128
 229.666666667 633.333333333 252.666666667 649.333333333 280 660 c 1
 304.666666667 672 331.666666667 678 361 678 c 2
 498 678 l 2
 530 678 554.333333333 671.666666667 571 659 c 1
 583 653 593 642.333333333 601 627 c 1
 603.666666667 630.333333333 608.5 635.5 615.5 642.5 c 128
 622.5 649.5 630.666666667 654.666666667 640 658 c 1
 661.333333333 672 685 679 711 679 c 2
 841 679 l 2
 890.333333333 679 926.666666667 665.666666667 950 639 c 1
 970 619 980 594.333333333 980 565 c 0
 980 555.666666667 978.666666667 545.666666667 976 535 c 2
 941 369 l 2
 936.333333333 347.666666667 926.666666667 327 912 307 c 0
 906.666666667 299.666666667 874.666666667 264.333333333 816 201 c 0
 802 187 802 187 797 182 c 0
 783 168 775.666666667 159.333333333 775 156 c 0
 773.666666667 144 777 136.333333333 785 133 c 1
 789.666666667 129.666666667 796.833333333 129.333333333 806.5 132 c 128
 816.166666667 134.666666667 822.666666667 138.333333333 826 143 c 1
 967 285 l 1
 1058 217 l 1
EndSplineSet
EndChar

StartChar: evowel
Encoding: 113 3214 113
Width: 996
Flags: HW
LayerCount: 2
Fore
SplineSet
1071 152 m 2
 1063 110 1041.83333333 74.1666666667 1007.5 44.5 c 128
 973.166666667 14.8333333333 937.333333333 0 900 0 c 2
 682 1 l 2
 655.333333333 1 632.666666667 8 614 22 c 1
 604 28 596.666666667 36.3333333333 592 47 c 1
 582.666666667 36.3333333333 572 27.3333333333 560 20 c 0
 538 6 516.333333333 -1 495 -1 c 2
 329 0 l 2
 283 0 246.666666667 13.3333333333 220 40 c 1
 200.666666667 61.3333333333 191 86 191 114 c 0
 191 119.333333333 191.666666667 128.333333333 193 141 c 1
 251 415 l 1
 433 415 l 2
 454.333333333 415 473.333333333 407.333333333 490 392 c 128
 506.666666667 376.666666667 517.666666667 359.666666667 523 341 c 128
 528.333333333 322.333333333 531.333333333 303.666666667 532 285 c 128
 532.666666667 266.333333333 533 251.666666667 533 241 c 1
 402 208 l 1
 402 238.666666667 397 263.333333333 387 282 c 0
 382.333333333 292 373.666666667 298.333333333 361 301 c 1
 332 169 l 1
 331.333333333 154.333333333 334.666666667 141 342 129 c 1
 352 118.333333333 364.666666667 113 380 113 c 2
 489 113 l 2
 503 113 516 118 528 128 c 0
 531.333333333 131.333333333 536 136.666666667 542 144 c 128
 548 151.333333333 551.666666667 159 553 167 c 2
 568 244 l 1
 705 244 l 1
 691 176 l 2
 690.333333333 173.333333333 690 170.5 690 167.5 c 128
 690 163 690 163 690 162 c 0
 690 152.666666667 693.666666667 143.333333333 701 134 c 1
 713 120.666666667 727.666666667 114 745 114 c 2
 865 114 l 2
 881.666666667 114 897.333333333 120.5 912 133.5 c 128
 926.666666667 146.5 935.666666667 161.333333333 939 178 c 2
 1006 495 l 2
 1007.33333333 502.333333333 1008 508.333333333 1008 513 c 0
 1008 525.666666667 1002.66666667 538 992 550 c 128
 981.333333333 562 964.333333333 568 941 568 c 2
 836 568 l 1
 859 681 l 1
 978 681 l 2
 1014.66666667 681 1046 673.666666667 1072 659 c 1
 1100.66666667 644.333333333 1121 623.666666667 1133 597 c 0
 1141 578.333333333 1145 559.666666667 1145 541 c 0
 1145 531 1143.66666667 520.666666667 1141 510 c 2
 1071 152 l 2
EndSplineSet
EndChar

StartChar: eevowel
Encoding: 114 3215 114
Width: 993
Flags: HW
LayerCount: 2
Fore
SplineSet
1071 166 m 1
 1065.66666667 137.333333333 1050.66666667 109 1026 81 c 1
 1015.33333333 67.6666666667 1000.33333333 54 981 40 c 0
 973 34 961.666666667 28 947 22 c 128
 932.333333333 16 915.5 10.6666666667 896.5 6 c 128
 877.5 1.33333333333 858.333333333 -1 839 -1 c 2
 685 3 l 2
 661 3 639.666666667 10 621 24 c 1
 609 36 601.666666667 49.3333333333 599 64 c 1
 561 22.6666666667 518.333333333 2 471 2 c 2
 343 2 l 2
 293 2 253.666666667 17.3333333333 225 48 c 1
 203 70 192 96.3333333333 192 127 c 0
 192 136.333333333 193.333333333 146.333333333 196 157 c 2
 252 418 l 1
 433 418 l 2
 454.333333333 418 472.333333333 411 487 397 c 128
 501.666666667 383 514 363 524 337 c 1
 531.333333333 313.666666667 535 282.666666667 535 244 c 1
 400 212 l 1
 400 230.666666667 399.166666667 245.333333333 397.5 256 c 128
 395.833333333 266.666666667 392 276 386 284 c 1
 380.666666667 294 372.666666667 300.333333333 362 303 c 1
 333 171 l 1
 333 155.666666667 336.666666667 142.666666667 344 132 c 1
 354 120 366.666666667 114 382 114 c 2
 489 114 l 2
 498.333333333 114 507.666666667 116 517 120 c 0
 518.333333333 120.666666667 521.5 123.166666667 526.5 127.5 c 128
 531.5 131.833333333 537 137.666666667 543 145 c 128
 549 152.333333333 552.666666667 160 554 168 c 2
 569 245 l 1
 706 245 l 1
 692 177 l 2
 691.333333333 173.666666667 691 168.333333333 691 161 c 0
 691 151.666666667 693.666666667 142 699 132 c 1
 709.666666667 119.333333333 723.666666667 113 741 113 c 2
 865 113 l 2
 879.666666667 113 894.333333333 119.333333333 909 132 c 0
 917 139.333333333 923.5 146.5 928.5 153.5 c 128
 933.5 160.5 936.666666667 168.666666667 938 178 c 2
 1005 495 l 2
 1006.33333333 502.333333333 1007 507.666666667 1007 511 c 0
 1007 525 1002 537 992 547 c 1
 981.333333333 561 963.666666667 568 939 568 c 2
 843 568 l 1
 838 547 l 1
 832 518.333333333 813.5 495 782.5 477 c 128
 751.5 459 719 450 685 450 c 2
 551 450 l 2
 512.333333333 450 479.666666667 462.333333333 453 487 c 1
 433.666666667 508.333333333 424 531.333333333 424 556 c 0
 424 559.333333333 424.666666667 566.333333333 426 577 c 1
 448 679 l 1
 583 679 l 1
 564 591 l 2
 563.333333333 585 565.333333333 578 570 570 c 1
 577.333333333 564.666666667 584 562 590 562 c 2
 682 562 l 2
 687.333333333 562 693.666666667 565.666666667 701 573 c 128
 708.333333333 580.333333333 713.333333333 589.333333333 716 600 c 2
 732 679 l 1
 977 679 l 2
 1015.66666667 679 1048 671.666666667 1074 657 c 1
 1103.33333333 642.333333333 1123.33333333 621.666666667 1134 595 c 1
 1143.33333333 576.333333333 1148 557.666666667 1148 539 c 0
 1148 529 1146.66666667 518.666666667 1144 508 c 2
 1071 166 l 1
EndSplineSet
EndChar

StartChar: aivowel
Encoding: 115 3216 115
Width: 1054
Flags: HW
LayerCount: 2
Fore
SplineSet
1125 154 m 1
 1117 111.333333333 1093 74.6666666667 1053 44 c 128
 1013 13.3333333333 967 -2 915 -2 c 1
 763 2 l 1
 731.666666667 2 706 9 686 23 c 128
 666 37 652 52.6666666667 644 70 c 1
 631.333333333 57.3333333333 621.833333333 48.5 615.5 43.5 c 128
 609.166666667 38.5 599.666666667 32.3333333333 587 25 c 0
 560.333333333 9.66666666667 535 2 511 2 c 2
 331 3 l 2
 285 3 248.666666667 16.3333333333 222 43 c 1
 202.666666667 64.3333333333 193 89 193 117 c 0
 193 122.333333333 193.666666667 131.333333333 195 144 c 1
 225 289 l 2
 235 334.333333333 259 371 297 399 c 1
 314.333333333 413 334.333333333 423.833333333 357 431.5 c 128
 379.666666667 439.166666667 402 443 424 443 c 2
 635 443 l 1
 603 295 l 2
 595 255 571.666666667 220.666666667 533 192 c 1
 511.666666667 174.666666667 490.833333333 162.166666667 470.5 154.5 c 128
 450.166666667 146.833333333 426 143 398 143 c 1
 386 253 l 1
 401.333333333 253 412.666666667 254.166666667 420 256.5 c 128
 427.333333333 258.833333333 435.666666667 263 445 269 c 0
 459.666666667 278.333333333 467.333333333 288 468 298 c 1
 475 327 l 1
 436 327 l 2
 414 327 396.333333333 322.166666667 383 312.5 c 128
 369.666666667 302.833333333 361.666666667 292 359 280 c 2
 336 180 l 1
 333.333333333 161.333333333 336.333333333 145 345 131 c 128
 353.666666667 117 366.333333333 110 383 110 c 2
 506 110 l 2
 527.333333333 110 547.666666667 117.166666667 567 131.5 c 128
 586.333333333 145.833333333 597.666666667 161.666666667 601 179 c 2
 612 228 l 1
 749 228 l 1
 738 179 l 2
 737.333333333 175.666666667 737 171.333333333 737 166 c 0
 737 154 741 142.666666667 749 132 c 1
 761.666666667 118 777.333333333 111 796 111 c 2
 934 111 l 2
 940 111 946.166666667 112.833333333 952.5 116.5 c 128
 958.833333333 120.166666667 965 124.666666667 971 130 c 0
 985.666666667 144.666666667 994.666666667 161.333333333 998 180 c 2
 1069 511 l 2
 1070.33333333 519 1070.33333333 525.666666667 1069 531 c 128
 1067.66666667 536.333333333 1064.66666667 543.166666667 1060 551.5 c 128
 1055.33333333 559.833333333 1044.33333333 564 1027 564 c 2
 904 564 l 2
 891.333333333 564 879 560 867 552 c 1
 859 544 853.333333333 533 850 519 c 2
 841 473 l 1
 706 473 l 1
 717 523 l 2
 719.666666667 533 715 542.333333333 703 551 c 128
 691 559.666666667 673 564 649 564 c 2
 472 564 l 2
 456.666666667 564 443 559 431 549 c 1
 416.333333333 539.666666667 401.333333333 522 386 496 c 1
 294 560 l 1
 322.666666667 600 352.333333333 629.5 383 648.5 c 128
 413.666666667 667.5 444.333333333 677 475 677 c 2
 699 677 l 2
 732.333333333 677 757.333333333 670 774 656 c 1
 789.333333333 646.666666667 799.666666667 633.666666667 805 617 c 1
 811 624.333333333 818.166666667 631.166666667 826.5 637.5 c 128
 834.833333333 643.833333333 843.666666667 649.666666667 853 655 c 0
 876.333333333 669 901.333333333 676 928 676 c 2
 1070 676 l 2
 1099.33333333 676 1126 670.166666667 1150 658.5 c 128
 1174 646.833333333 1190.66666667 630 1200 608 c 0
 1204.66666667 596 1207.66666667 587 1209 581 c 128
 1210.33333333 575 1211 567.333333333 1211 558 c 0
 1211 554.666666667 1210.33333333 547.666666667 1209 537 c 1
 1125 154 l 1
EndSplineSet
EndChar

StartChar: ovowel
Encoding: 116 3218 116
Width: 964
Flags: HW
LayerCount: 2
Fore
SplineSet
1029 124 m 0
 1025.66699219 107.333007812 1020.16699219 92.1669921875 1012.5 78.5 c 0
 1004.83300781 64.8330078125 994 51.6669921875 980 39 c 0
 952 14.3330078125 922.333007812 2 891 2 c 0
 672 2 l 0
 648 2 628.333007812 9 613 23 c 0
 605 28.3330078125 598 37 592 49 c 0
 586 39 577 30.3330078125 565 23 c 0
 543 9 522.666992188 2 504 2 c 0
 303 2 l 0
 265.666992188 2 233.666992188 13 207 35 c 0
 187.666992188 51.6669921875 178 71.6669921875 178 95 c 0
 178 100.333007812 178.666992188 107.666992188 180 117 c 0
 212 269 l 0
 359 348 l 0
 383 362 405.833007812 375.166992188 427.5 387.5 c 0
 449.166992188 399.833007812 466 410 478 418 c 0
 495.333007812 428.666992188 505.333007812 440.333007812 508 453 c 0
 526 538 l 0
 527.333007812 545.333007812 525.666992188 551.666992188 521 557 c 0
 516.333007812 562.333007812 509.333007812 565 500 565 c 0
 411 565 l 0
 402 523 l 0
 401.333007812 517 403 510.833007812 407 504.5 c 0
 411 498.166992188 418 495 428 495 c 0
 453 495 l 0
 428 382 l 0
 368 382 l 0
 332 382 304.333007812 396.333007812 285 425 c 0
 269.666992188 443.666992188 262 466 262 492 c 0
 262 502 263.333007812 512.333007812 266 523 c 0
 299 678 l 0
 553 678 l 0
 577 678 598.333007812 673.833007812 617 665.5 c 0
 635.666992188 657.166992188 650 644.333007812 660 627 c 0
 667.333007812 614.333007812 671 601.666992188 671 589 c 0
 671 585.666992188 670.333007812 580.333007812 669 573 c 0
 637 421 l 0
 632.333007812 402.333007812 618.833007812 384.5 596.5 367.5 c 0
 574.166992188 350.5 525 321 449 279 c 0
 337 218 l 0
 325 157 l 0
 322.333007812 146.333007812 324 136.333007812 330 127 c 0
 338 119 348 115 360 115 c 0
 490 115 l 0
 500 115 511.5 120.333007812 524.5 131 c 0
 537.5 141.666992188 545.333007812 153 548 165 c 0
 559 219 l 0
 694 219 l 0
 685 170 l 0
 684.333007812 167.333007812 684 163 684 157 c 0
 684 147.666992188 686.666992188 139.333007812 692 132 c 0
 702 121.333007812 715.333007812 116 732 116 c 0
 846 116 l 0
 856 116 867.166992188 121 879.5 131 c 0
 891.833007812 141 899.666992188 152.333007812 903 165 c 0
 922 258 l 0
 924.666992188 268.666992188 923 277 917 283 c 0
 911 289 902 292 890 292 c 0
 843 292 l 0
 866 404 l 0
 975 404 l 0
 1009 404 1033.16699219 395.5 1047.5 378.5 c 0
 1061.83300781 361.5 1069 343.666992188 1069 325 c 0
 1069 319.666992188 1068.33300781 312.333007812 1067 303 c 0
 1029 124 l 0
EndSplineSet
EndChar

StartChar: oovowel
Encoding: 117 3219 117
Width: 964
Flags: HW
LayerCount: 2
Fore
SplineSet
1031 140 m 0
 1025.66699219 115.333007812 1014.5 92.1669921875 997.5 70.5 c 0
 980.5 48.8330078125 962.666992188 33 944 23 c 0
 922 9 900 2 878 2 c 0
 671 2 l 0
 647 2 627.333007812 9 612 23 c 0
 601.333007812 30.3330078125 593.666992188 40.3330078125 589 53 c 0
 586.333007812 50.3330078125 580 45 570 37 c 0
 567.333007812 35.6669921875 561 31 551 23 c 0
 529.666992188 10.3330078125 508.333007812 4 487 4 c 0
 301 4 l 0
 263.666992188 4 231.666992188 15 205 37 c 0
 185.666992188 53.6669921875 176 74 176 98 c 0
 176 103.333007812 176.666992188 110.666992188 178 120 c 0
 210 273 l 0
 357 352 l 0
 361.666992188 354.666992188 386.333007812 369 431 395 c 0
 457 409.666992188 472.333007812 418.666992188 477 422 c 0
 495.666992188 434 506.333007812 446.333007812 509 459 c 0
 524 531 l 0
 526.666992188 541 524 550.666992188 516 560 c 0
 510.666992188 568 500.666992188 572 486 572 c 0
 412 572 l 0
 404 530 l 0
 402.666992188 524 404.333007812 517.5 409 510.5 c 0
 413.666992188 503.5 420.666992188 500 430 500 c 0
 455 500 l 0
 432 386 l 0
 372 386 l 0
 336 386 308 400.333007812 288 429 c 0
 273.333007812 449 266 471.333007812 266 496 c 0
 266 505.333007812 267.333007812 516.333007812 270 529 c 0
 303 684 l 0
 388 684 l 0
 338.666992188 721.333007812 316.666992188 752.333007812 322 777 c 0
 340 861 l 0
 345.333007812 887.666992188 362.666992188 909.333007812 392 926 c 0
 416 942.666992188 446 951 482 951 c 0
 622 951 l 0
 599 837 l 0
 497 837 l 0
 475 833 l 0
 470.333007812 830.333007812 468 826.666992188 468 822 c 0
 459 782 l 0
 454.333007812 760 483 727.666992188 545 685 c 0
 556 685 l 0
 580 685 601.333007812 680.833007812 620 672.5 c 0
 638.666992188 664.166992188 653 651.333007812 663 634 c 0
 669 622 672 609 672 595 c 0
 672 587.666992188 671.666992188 582.333007812 671 579 c 0
 639 424 l 0
 634.333007812 405.333007812 620 386.666992188 596 368 c 0
 578.666992188 354 530 325.333007812 450 282 c 0
 430.666992188 271.333007812 406.333007812 257.666992188 377 241 c 0
 358.333007812 231 346.333007812 224.666992188 341 222 c 0
 327 159 l 0
 325.666992188 149.666992188 327.666992188 139.666992188 333 129 c 0
 342.333007812 119.666992188 352.333007812 115 363 115 c 0
 493 115 l 0
 500.333007812 115 511.666992188 120 527 130 c 0
 539.666992188 142.666992188 547.333007812 154.333007812 550 165 c 0
 562 221 l 0
 697 221 l 0
 683 158 l 0
 680.333007812 146 684 135.666992188 694 127 c 0
 704 118.333007812 716.666992188 114 732 114 c 0
 846 114 l 0
 853.333007812 114 864.666992188 119 880 129 c 0
 892.666992188 139.666992188 900.333007812 151.333007812 903 164 c 0
 924 259 l 0
 925.333007812 271 923.333007812 279.666992188 918 285 c 0
 910.666992188 289.666992188 902 292 892 292 c 0
 845 292 l 0
 868 406 l 0
 964 406 l 0
 999.333007812 406 1025.66699219 393 1043 367 c 0
 1057 348.333007812 1064 327 1064 303 c 0
 1064 291 1063.33300781 282.333007812 1062 277 c 0
 1031 140 l 0
EndSplineSet
EndChar

StartChar: auvowel
Encoding: 118 3220 118
Width: 960
Flags: HW
LayerCount: 2
Fore
SplineSet
1135 508 m 1
 814 508 l 2
 778.666666667 508 751.333333333 521.666666667 732 549 c 1
 718 565.666666667 711 586.333333333 711 611 c 0
 711 621.666666667 712.333333333 633.333333333 715 646 c 2
 740 766 l 1
 1020 766 l 1
 997 653 l 1
 839 653 l 1
 838 646 l 2
 837.333333333 642.666666667 838.666666667 637 842 629 c 1
 847.333333333 623 854 620 862 620 c 2
 1024 620 l 1
 1061 793 l 2
 1063.66666667 805.666666667 1060.33333333 816.666666667 1051 826 c 128
 1041.66666667 835.333333333 1029.66666667 840 1015 840 c 2
 743 840 l 1
 745.666666667 834 746.333333333 827.333333333 745 820 c 2
 740 794 l 1
 734.666666667 770 723.333333333 750.333333333 706 735 c 1
 684.666666667 718.333333333 664.666666667 710 646 710 c 2
 315 710 l 1
 338 823 l 1
 620 823 l 1
 634 827 l 1
 643 839 l 1
 635 839.666666667 628.333333333 840.666666667 623 842 c 1
 342 841 l 1
 365 955 l 1
 1055 955 l 2
 1087.66666667 955 1116 949.666666667 1140 939 c 1
 1166 925 1183.66666667 909 1193 891 c 128
 1202.33333333 873 1207 856.333333333 1207 841 c 0
 1207 837.666666667 1206.33333333 831.333333333 1205 822 c 1
 1135 508 l 1
1029 127 m 2
 1025.66666667 110.333333333 1020.16666667 95 1012.5 81 c 128
 1004.83333333 67 994.666666667 53 982 39 c 1
 954 14.3333333333 924.333333333 2 893 2 c 2
 669 2 l 2
 647 2 628.333333333 9 613 23 c 1
 603 29 595.333333333 38.3333333333 590 51 c 1
 584.666666667 43.6666666667 578.5 37.5 571.5 32.5 c 128
 564.5 27.5 559.333333333 23.6666666667 556 21 c 0
 536 8.33333333333 517.666666667 2 501 2 c 2
 314 3 l 2
 271.333333333 3 237.666666667 17 213 45 c 0
 193.666666667 67 184 91.3333333333 184 118 c 0
 184 123.333333333 184.666666667 132.333333333 186 145 c 1
 212 270 l 1
 360 349 l 1
 384 363 408 377.166666667 432 391.5 c 128
 456 405.833333333 471 415.333333333 477 420 c 1
 495.666666667 432 506.333333333 444.333333333 509 457 c 2
 529 554 l 1
 530.333333333 564.666666667 520.333333333 570 499 570 c 2
 410 570 l 1
 402 528 l 2
 400.666666667 522 402.333333333 515.5 407 508.5 c 128
 411.666666667 501.5 418.666666667 498 428 498 c 2
 467 498 l 1
 444 384 l 1
 367 384 l 2
 331.666666667 384 304 398.333333333 284 427 c 1
 270 448.333333333 263 471 263 495 c 0
 263 505.666666667 264.333333333 516.333333333 267 527 c 2
 300 682 l 1
 554 682 l 2
 578 682 600 677.333333333 620 668 c 128
 640 658.666666667 653.5 647 660.5 633 c 128
 667.5 619 671 605 671 591 c 0
 671 583.666666667 670.666666667 578.333333333 670 575 c 2
 638 420 l 1
 633.333333333 404.666666667 622.666666667 390.666666667 606 378 c 1
 601.333333333 373.333333333 593.166666667 366.666666667 581.5 358 c 128
 569.833333333 349.333333333 559.333333333 342.666666667 550 338 c 0
 547.333333333 336.666666667 537.333333333 331 520 321 c 0
 490.666666667 304.333333333 463.666666667 289 439 275 c 2
 340 219 l 1
 326 156 l 2
 323.333333333 144 325.666666667 134.333333333 333 127 c 1
 338.333333333 117 348 112 362 112 c 2
 506 112 l 2
 514 112 521.666666667 116.666666667 529 126 c 0
 533.666666667 131.333333333 538 137.5 542 144.5 c 128
 546 151.5 548.333333333 157.666666667 549 163 c 2
 561 219 l 1
 695 219 l 1
 681 156 l 2
 679.666666667 148 682 138 688 126 c 1
 694 116.666666667 703.333333333 112 716 112 c 2
 830 112 l 2
 845.333333333 112 860.666666667 117.333333333 876 128 c 1
 890.666666667 142 899.333333333 153.666666667 902 163 c 2
 923 258 l 1
 924.333333333 268.666666667 921.333333333 276.666666667 914 282 c 128
 906.666666667 287.333333333 898 290 888 290 c 2
 844 290 l 1
 867 404 l 1
 977 404 l 2
 995.666666667 404 1010.33333333 402.166666667 1021 398.5 c 128
 1031.66666667 394.833333333 1041.66666667 387 1051 375 c 1
 1063 362.333333333 1069 346 1069 326 c 0
 1069 321.333333333 1068.33333333 313.666666667 1067 303 c 1
 1029 127 l 2
EndSplineSet
EndChar

StartChar: ka.base
Encoding: 120 -1 120
Width: 554
Flags: HW
AnchorPoint: "s" 278 -62 basechar 0
LayerCount: 2
Fore
SplineSet
845 385 m 1
 662 385 l 1
 674 375.666666667 685 365.166666667 695 353.5 c 128
 705 341.833333333 713 330.666666667 719 320 c 1
 733 298.666666667 740 277 740 255 c 0
 740 245.666666667 739.666666667 239.333333333 739 236 c 2
 718 136 l 1
 712 100.666666667 692.666666667 70.6666666667 660 46 c 1
 645.333333333 34 630.833333333 24.6666666667 616.5 18 c 128
 602.166666667 11.3333333333 587.333333333 8 572 8 c 2
 302 7 l 2
 268.666666667 7 243.666666667 16.6666666667 227 36 c 1
 213 50 206 66.6666666667 206 86 c 0
 206 89.3333333333 206.666666667 96.3333333333 208 107 c 1
 233 226 l 1
 241 268.666666667 290 322.666666667 380 388 c 1
 179 388 l 1
 204 501 l 1
 475 501 l 1
 490 572 l 1
 219 572 l 1
 242 685 l 1
 737 685 l 1
 714 572 l 1
 626 572 l 1
 611 501 l 1
 870 501 l 1
 845 385 l 1
589 163 m 2
 601 223 l 2
 602.333333333 230.333333333 603 235.666666667 603 239 c 0
 603 254.333333333 597.166666667 270.166666667 585.5 286.5 c 128
 573.833333333 302.833333333 562.666666667 316 552 326 c 128
 541.333333333 336 528.333333333 345.666666667 513 355 c 1
 423.666666667 313 375 271 367 229 c 1
 352 158 l 2
 350.666666667 150 352.333333333 140.666666667 357 130 c 1
 364.333333333 124.666666667 374.333333333 122 387 122 c 1
 386 118 l 1
 555 118 l 2
 559.666666667 118 566 121 574 127 c 1
 581.333333333 137 586.333333333 149 589 163 c 2
EndSplineSet
EndChar

StartChar: ka.imathra
Encoding: 121 -1 121
Width: 651
Flags: HW
AnchorPoint: "s" 270 -80 basechar 0
LayerCount: 2
Fore
SplineSet
778 386 m 1
 643 386 l 1
 655 376 667 364.666666667 679 352 c 0
 688.333333333 342 698 329.666666667 708 315 c 1
 722 290.333333333 729 266.666666667 729 244 c 0
 729 238.666666667 728.333333333 231.333333333 727 222 c 2
 704 108 l 2
 701.333333333 96 695.666666667 83.5 687 70.5 c 128
 678.333333333 57.5 668.666666667 46 658 36 c 1
 632 16 603.333333333 6 572 6 c 2
 299 7 l 2
 280.333333333 7 265 9.16666666667 253 13.5 c 128
 241 17.8333333333 229.666666667 25 219 35 c 1
 204.333333333 50.3333333333 197 68.6666666667 197 90 c 0
 197 97.3333333333 197.333333333 102.666666667 198 106 c 2
 224 236 l 1
 228.666666667 253.333333333 243 273 267 295 c 0
 274.333333333 301 289 312.666666667 311 330 c 0
 365 372 365 372 383 386 c 1
 228 386 l 1
 251 500 l 1
 512 500 l 1
 615 597 l 1
 644 737 l 2
 644.666666667 739.666666667 644.666666667 741.333333333 644 742 c 128
 643 743 643 743 642 744 c 1
 582 744 l 1
 571 697 l 1
 573 690 l 1
 585 685 l 1
 610 685 l 1
 587 572 l 1
 520 572 l 2
 492 572 467.333333333 581.333333333 446 600 c 1
 433.333333333 612.666666667 427 627.666666667 427 645 c 0
 427 652.333333333 427.333333333 657.666666667 428 661 c 2
 469 857 l 1
 694 857 l 2
 725.333333333 857 749.333333333 847.666666667 766 829 c 1
 778.666666667 817 785 801 785 781 c 0
 785 770.333333333 784.333333333 762.333333333 783 757 c 2
 744 575 l 1
 663 500 l 1
 801 500 l 1
 778 386 l 1
575 143 m 2
 591 222 l 2
 595.666666667 245.333333333 565 288 499 350 c 1
 407 286.666666667 358.333333333 242 353 216 c 2
 335 130 l 2
 334.333333333 125.333333333 336.5 121.166666667 341.5 117.5 c 128
 346.5 113.833333333 351.666666667 112 357 112 c 2
 548 112 l 2
 552.666666667 112 558 115.333333333 564 122 c 128
 570 128.666666667 573.666666667 135.666666667 575 143 c 2
EndSplineSet
LCarets2: 1 0
EndChar

StartChar: ka.sub
Encoding: 122 -1 122
Width: 172
Flags: HW
AnchorPoint: "Sub" -182 290 mark 0
AnchorPoint: "Sub" 240 -414 basemark 0
LayerCount: 2
Fore
SplineSet
326 -154 m 1
 219 -154 l 1
 249.666666667 -182.666666667 262.333333333 -209.333333333 257 -234 c 2
 241 -312 l 2
 235.666666667 -338.666666667 218.666666667 -362 190 -382 c 1
 157.333333333 -400.666666667 125.666666667 -410 95 -410 c 2
 -77 -410 l 1
 -92.3333333333 -408.666666667 -106 -405.5 -118 -400.5 c 128
 -130 -395.5 -141 -387.666666667 -151 -377 c 1
 -169.666666667 -360.333333333 -179 -340.333333333 -179 -317 c 0
 -179 -314.333333333 -178.333333333 -308.333333333 -177 -299 c 2
 -169 -255 l 1
 -159.666666667 -221.666666667 -131.666666667 -187.333333333 -85 -152 c 1
 -208 -152 l 1
 -187 -53 l 1
 38 -53 l 1
 117 14 l 2
 135 28.6666666667 147 38.6666666667 153 44 c 0
 163 52 170.333333333 58.6666666667 175 64 c 0
 184.333333333 73.3333333333 189.333333333 80.6666666667 190 86 c 2
 216 213 l 2
 219.333333333 230.333333333 200 247.666666667 158 265 c 1
 257 333 l 1
 317.666666667 287.666666667 345.333333333 251 340 223 c 2
 307 69 l 2
 306.333333333 63 302.833333333 55.8333333333 296.5 47.5 c 128
 290.166666667 39.1666666667 282 30 272 20 c 1
 175 -58 l 1
 348 -58 l 1
 326 -154 l 1
127 -286 m 2
 136 -239 l 2
 138.666666667 -227 133 -212.333333333 119 -195 c 1
 105.666666667 -181 85.6666666667 -169 59 -159 c 1
 30.3333333333 -167 6.66666666667 -179.5 -12 -196.5 c 128
 -30.6666666667 -213.5 -41.6666666667 -232 -45 -252 c 1
 -53 -291 l 1
 -53.6666666667 -298.333333333 -52.3333333333 -304.666666667 -49 -310 c 1
 -41 -316 -31 -319 -19 -319 c 2
 94 -319 l 2
 101.333333333 -319 107.333333333 -316 112 -310 c 1
 121.333333333 -300.666666667 126.333333333 -292.666666667 127 -286 c 2
EndSplineSet
LCarets2: 1 0
EndChar

StartChar: ka_rvocalicmatra.sub
Encoding: 123 -1 123
Width: 341
Flags: HW
LayerCount: 2
Fore
SplineSet
639 -268 m 2
 631 -308 610.666666667 -341.333333333 578 -368 c 1
 545.333333333 -396.666666667 507.666666667 -411 465 -411 c 2
 68 -409 l 2
 34 -409 8.5 -399 -8.5 -379 c 128
 -25.5 -359 -34 -339.333333333 -34 -320 c 0
 -34 -316.666666667 -33.3333333333 -309.666666667 -32 -299 c 1
 7 -112 l 1
 128 -112 l 1
 99 -90 l 1
 83.6666666667 -74.6666666667 77.3333333333 -59.3333333333 80 -44 c 2
 99 49 l 2
 104.333333333 75.6666666667 126.333333333 102.333333333 165 129 c 1
 73 129 l 1
 95 229 l 1
 298 229 l 1
 320 335 l 1
 454 335 l 1
 432 229 l 1
 632 229 l 1
 610 129 l 1
 497 129 l 1
 504.333333333 125.666666667 511.666666667 119 519 109 c 128
 526.333333333 99 531.5 89 534.5 79 c 128
 537.5 69 538.333333333 59.6666666667 537 51 c 2
 525 -7 l 2
 517.666666667 -41 498.333333333 -69.3333333333 467 -92 c 1
 435.666666667 -118 401.333333333 -131 364 -131 c 2
 283 -131 l 1
 267 -209 l 1
 111 -209 l 1
 96 -284 l 2
 94.6666666667 -290 96.6666666667 -293.666666667 102 -295 c 1
 111.333333333 -302.333333333 119.666666667 -306 127 -306 c 2
 471 -306 l 2
 476.333333333 -306 483.666666667 -299.833333333 493 -287.5 c 128
 502.333333333 -275.166666667 508.666666667 -260.333333333 512 -243 c 2
 567 23 l 2
 568.333333333 30.3333333333 566.5 36.6666666667 561.5 42 c 128
 556.5 47.3333333333 545.666666667 54 529 62 c 1
 638 143 l 1
 650.666666667 135.666666667 661.333333333 128.333333333 670 121 c 128
 678.666666667 113.666666667 686 105 692 95 c 1
 700 78.3333333333 704 62.3333333333 704 47 c 0
 704 42.3333333333 703.333333333 35.3333333333 702 26 c 2
 639 -268 l 2
404 8 m 1
 413 52 l 2
 413.666666667 54.6666666667 414 59.6666666667 414 67 c 0
 414 79 411 89.6666666667 405 99 c 1
 399 112.333333333 387.333333333 122.666666667 370 130 c 1
 293 130 l 1
 274.333333333 120.666666667 258.333333333 109 245 95 c 128
 231.666666667 81 224.666666667 68 224 56 c 1
 209 -11 l 2
 207.666666667 -19 209.333333333 -23.6666666667 214 -25 c 1
 226 -33 l 1
 380 -32 l 2
 384.666666667 -32 389.5 -28.3333333333 394.5 -21 c 128
 399.5 -13.6666666667 402.666666667 -4 404 8 c 1
EndSplineSet
EndChar

StartChar: kha
Encoding: 124 3222 124
Width: 981
Flags: HW
LayerCount: 2
Fore
SplineSet
1043 113 m 2
 1037 83.6666666667 1024 57.3333333333 1004 34 c 1
 978 10 954.333333333 -2 933 -2 c 2
 780 -2 l 2
 753.333333333 -2 725.666666667 10 697 34 c 1
 633 81 l 1
 619 58.3333333333 599.666666667 40.3333333333 575 27 c 1
 560.333333333 17.6666666667 545.333333333 10.6666666667 530 6 c 128
 514.666666667 1.33333333333 498.666666667 -1 482 -1 c 2
 238 -1 l 1
 226 0.333333333333 214.166666667 3 202.5 7 c 128
 190.833333333 11 180.666666667 16.3333333333 172 23 c 128
 163.333333333 29.6666666667 157.166666667 36.6666666667 153.5 44 c 128
 149.833333333 51.3333333333 148 59 148 67 c 0
 148 74.3333333333 148.333333333 79.6666666667 149 83 c 2
 177 214 l 2
 182.333333333 242 197 265.333333333 221 284 c 1
 245.666666667 300.666666667 271.333333333 309 298 309 c 2
 505 309 l 2
 531.666666667 309 551 304.333333333 563 295 c 1
 612 524 l 2
 612.666666667 527.333333333 613 530.833333333 613 534.5 c 128
 613 540 613 540 613 541 c 0
 613 547 611.666666667 552.333333333 609 557 c 128
 606.333333333 561.666666667 602.666666667 564 598 564 c 2
 468 564 l 1
 461 560 l 1
 456.333333333 554 452.666666667 544.666666667 450 532 c 2
 428 422 l 1
 291 422 l 1
 321 571 l 2
 327 602.333333333 344.333333333 628 373 648 c 0
 385.666666667 657.333333333 400.333333333 664.5 417 669.5 c 128
 433.666666667 674.5 450.666666667 677 468 677 c 2
 647 677 l 2
 683 677 710.666666667 664 730 638 c 0
 744.666666667 619.333333333 752 597 752 571 c 0
 752 559 751.333333333 550 750 544 c 2
 679 208 l 1
 758 131 l 1
 773.333333333 114.333333333 792.666666667 106 816 106 c 2
 881 106 l 2
 888.333333333 106 893.666666667 109 897 115 c 1
 904.333333333 123 909.333333333 134 912 148 c 2
 994 533 l 1
 995.333333333 543 993.333333333 549.666666667 988 553 c 1
 982.666666667 558.333333333 974 561 962 561 c 2
 829 561 l 1
 852 673 l 1
 1032 673 l 2
 1049.33333333 673 1064.66666667 670.666666667 1078 666 c 128
 1091.33333333 661.333333333 1102.66666667 653 1112 641 c 1
 1128.66666667 622.333333333 1137 603 1137 583 c 0
 1137 578.333333333 1136.33333333 570.666666667 1135 560 c 1
 1043 113 l 2
521 136 m 1
 528 164 l 1
 516 182.666666667 492.333333333 192 457 192 c 2
 329 192 l 2
 319 192 310.333333333 190.666666667 303 188 c 2
 296 186 l 1
 282 124 l 1
 283.333333333 118.666666667 285.5 114.666666667 288.5 112 c 128
 291.5 109.333333333 296.666666667 108 304 108 c 2
 477 108 l 2
 487 108 496 111.666666667 504 119 c 1
 512 124.333333333 517.666666667 130 521 136 c 1
EndSplineSet
LCarets2: 1 0
EndChar

StartChar: kha.base
Encoding: 125 -1 125
Width: 812
Flags: HW
LayerCount: 2
Fore
SplineSet
1045 113 m 1
 1039 81.6666666667 1024.66666667 54.6666666667 1002 32 c 128
 979.333333333 9.33333333333 956 -2 932 -2 c 1
 930 0 l 1
 779 0 l 2
 753 0 725.666666667 12 697 36 c 1
 639 75 l 1
 629.666666667 56.3333333333 610 39.1666666667 580 23.5 c 128
 550 7.83333333333 518 0 484 0 c 2
 249 0 l 2
 216.333333333 0 190.666666667 7.66666666667 172 23 c 0
 164 29 158.166666667 35.6666666667 154.5 43 c 128
 150.833333333 50.3333333333 149 58 149 66 c 0
 149 73.3333333333 149.333333333 78.6666666667 150 82 c 2
 178 213 l 2
 183.333333333 239.666666667 198 262 222 280 c 128
 246 298 273.666666667 307 305 307 c 2
 506 307 l 2
 532.666666667 307 552 302.333333333 564 293 c 1
 615 536 l 2
 616.333333333 543.333333333 615.333333333 550.666666667 612 558 c 1
 608.666666667 561.333333333 604 563 598 563 c 2
 484 563 l 2
 476 563 469.333333333 560.5 464 555.5 c 128
 458.666666667 550.5 454.666666667 542 452 530 c 2
 430 420 l 1
 295 420 l 1
 325 569 l 2
 331 600.333333333 347.666666667 626 375 646 c 128
 402.333333333 666 434.666666667 676 472 676 c 2
 652 676 l 2
 688 676 715.666666667 663 735 637 c 1
 749.666666667 619.666666667 757 599 757 575 c 0
 757 565 755.666666667 554.666666667 753 544 c 2
 682 207 l 1
 764 146 l 1
 787.333333333 120 806.333333333 107 821 107 c 2
 902 107 l 2
 906.666666667 107 909.666666667 110.666666667 911 118 c 2
 985 463 l 2
 986.333333333 472.333333333 987 479.333333333 987 484 c 0
 987 504 980.666666667 520.333333333 968 533 c 0
 949.333333333 552.333333333 925.333333333 562 896 562 c 2
 836 562 l 1
 859 674 l 1
 986 674 l 1
 1021.33333333 669.333333333 1050.66666667 657 1074 637 c 1
 1084.66666667 626.333333333 1093.66666667 615 1101 603 c 128
 1108.33333333 591 1114 577.333333333 1118 562 c 128
 1122 546.666666667 1124 528 1124 506 c 0
 1124 492 1122.66666667 478 1120 464 c 2
 1045 113 l 1
527 138 m 2
 531 157 l 1
 507.666666667 181 478.333333333 193 443 193 c 2
 319 193 l 2
 313.666666667 193 309.666666667 192.333333333 307 191 c 0
 305.666666667 191 304.666666667 189.666666667 304 187 c 2
 290 125 l 1
 290.666666667 119.666666667 292.5 115.666666667 295.5 113 c 128
 298.5 110.333333333 303.666666667 109 311 109 c 2
 484 109 l 2
 492 109 500.666666667 112 510 118 c 128
 519.333333333 124 525 130.666666667 527 138 c 2
EndSplineSet
EndChar

StartChar: kha.imathra
Encoding: 126 -1 126
Width: 981
Flags: HW
LayerCount: 2
Fore
SplineSet
1045 114 m 1
 1039 81.3333333333 1024.66666667 53.6666666667 1002 31 c 128
 979.333333333 8.33333333333 956 -3 932 -3 c 1
 930 -1 l 1
 779 -1 l 2
 753 -1 725.666666667 11 697 35 c 1
 633 81 l 1
 618.333333333 59 600.333333333 40.6666666667 579 26 c 1
 548.333333333 8.66666666667 519.666666667 0 493 0 c 2
 249 0 l 2
 216.333333333 0 190.666666667 7.66666666667 172 23 c 0
 164 29 158.166666667 35.6666666667 154.5 43 c 128
 150.833333333 50.3333333333 149 58 149 66 c 0
 149 73.3333333333 149.333333333 78.6666666667 150 82 c 2
 178 215 l 2
 183.333333333 243 199 265.666666667 225 283 c 1
 246.333333333 300.333333333 273.666666667 309 307 309 c 2
 508 309 l 2
 527.333333333 309 545.666666667 300.333333333 563 283 c 1
 614 526 l 1
 615.333333333 538.666666667 613.333333333 548.666666667 608 556 c 1
 600.666666667 563.333333333 593 567 585 567 c 2
 483 567 l 2
 477.666666667 567 471.333333333 564.666666667 464 560 c 1
 456.666666667 552 452.666666667 543.333333333 452 534 c 1
 429 422 l 1
 294 422 l 1
 326 573 l 1
 331.333333333 605.666666667 348.333333333 631.333333333 377 650 c 1
 389.666666667 660 404.333333333 667.5 421 672.5 c 128
 437.666666667 677.5 454.333333333 680 471 680 c 2
 651 680 l 2
 687 680 714.666666667 667 734 641 c 0
 748.666666667 622.333333333 756 600 756 574 c 0
 756 569.333333333 755.333333333 559.666666667 754 545 c 1
 683 210 l 1
 748 146 l 1
 766.666666667 133.333333333 784.166666667 123.833333333 800.5 117.5 c 128
 816.833333333 111.166666667 833.333333333 108 850 108 c 2
 886 108 l 2
 892 108 898 110.5 904 115.5 c 128
 910 120.5 913.333333333 126 914 132 c 2
 1017 624 l 1
 1019.66666667 633.333333333 1019.5 641.166666667 1016.5 647.5 c 128
 1013.5 653.833333333 1009 657 1003 657 c 2
 967 657 l 2
 957.666666667 657 951.666666667 656.666666667 949 656 c 1
 947 651 l 1
 942 632 l 1
 942 619.333333333 942.833333333 611.666666667 944.5 609 c 128
 946.166666667 606.333333333 947.833333333 604.333333333 949.5 603 c 128
 951.166666667 601.666666667 952.666666667 601 954 601 c 2
 1008 601 l 1
 983 488 l 1
 878 488 l 2
 850 488 828.333333333 498.666666667 813 520 c 1
 801 534.666666667 795 550.666666667 795 568 c 0
 795 572.666666667 795.666666667 580.333333333 797 591 c 1
 816 683 l 2
 821.333333333 707.666666667 837 728.666666667 863 746 c 1
 891 762.666666667 921.333333333 771 954 771 c 2
 1068 771 l 2
 1100.66666667 771 1125.66666667 759.333333333 1143 736 c 0
 1155.66666667 718.666666667 1162 700 1162 680 c 0
 1162 670.666666667 1160.66666667 661 1158 651 c 2
 1045 114 l 1
526 138 m 2
 530 153 l 1
 503.333333333 179.666666667 476.666666667 193 450 193 c 2
 329 193 l 2
 318.333333333 193 311.333333333 192.333333333 308 191 c 1
 304 187 l 1
 293 133 l 1
 293 115 l 1
 298 108 l 1
 485 108 l 2
 491 108 499 111.166666667 509 117.5 c 128
 519 123.833333333 524.666666667 130.666666667 526 138 c 2
EndSplineSet
LCarets2: 1 0
EndChar

StartChar: kha.sub
Encoding: 127 -1 127
Width: 163
Flags: HW
AnchorPoint: "Sub" -310 185 mark 0
AnchorPoint: "Sub" 216 -373 basemark 0
LayerCount: 2
Fore
SplineSet
284 -232 m 1
 274.666666667 -270.666666667 251.666666667 -305.333333333 215 -336 c 128
 178.333333333 -366.666666667 139 -382 97 -382 c 2
 27 -382 l 2
 15 -382 -10 -375 -48 -361 c 1
 -100 -392.333333333 -139.333333333 -408 -166 -408 c 2
 -317 -408 l 2
 -343.666666667 -408 -366.333333333 -399.666666667 -385 -383 c 0
 -399 -370.333333333 -406 -356.333333333 -406 -341 c 0
 -406 -337.666666667 -405.333333333 -332.333333333 -404 -325 c 2
 -392 -267 l 2
 -386.666666667 -240.333333333 -372 -217.666666667 -348 -199 c 0
 -336 -189.666666667 -323.833333333 -183 -311.5 -179 c 128
 -299.166666667 -175 -285.333333333 -173 -270 -173 c 2
 -156 -173 l 2
 -141.333333333 -173 -131.333333333 -175.333333333 -126 -180 c 2
 -79 -215 l 1
 -67 -154 l 2
 -64.3333333333 -142 -66 -131 -72 -121 c 1
 -80 -113 -89.3333333333 -109 -100 -109 c 1
 -111 -160 l 1
 -231 -160 l 1
 -199 -14 l 1
 -53 -14 l 2
 -11 -14 19 -27.3333333333 37 -54 c 1
 51.6666666667 -74 59 -98 59 -126 c 0
 59 -138 58.3333333333 -147 57 -153 c 2
 29 -281 l 1
 34.3333333333 -284.333333333 38.8333333333 -286.333333333 42.5 -287 c 128
 46.1666666667 -287.666666667 50.3333333333 -288 55 -288 c 2
 112 -288 l 2
 121.333333333 -288 129 -283.666666667 135 -275 c 128
 141 -266.333333333 146 -258.333333333 150 -251 c 128
 154 -243.666666667 156.666666667 -236 158 -228 c 2
 244 185 l 2
 245.333333333 193 241.833333333 200.833333333 233.5 208.5 c 128
 225.166666667 216.166666667 212.333333333 220 195 220 c 2
 128 220 l 1
 150 324 l 1
 227 324 l 2
 271.666666667 324 308.333333333 312 337 288 c 1
 359 266 370 241.666666667 370 215 c 0
 370 209.666666667 369.333333333 202.333333333 368 193 c 2
 284 -232 l 1
-143 -306 m 1
 -166.333333333 -287.333333333 -189.666666667 -278 -213 -278 c 2
 -275 -278 l 2
 -282.333333333 -278 -286.333333333 -278.666666667 -287 -280 c 2
 -292 -312 l 1
 -283 -314 l 1
 -167 -314 l 1
 -143 -306 l 1
EndSplineSet
LCarets2: 1 0
EndChar

StartChar: ga.base
Encoding: 129 -1 129
Width: 578
Flags: HW
LayerCount: 2
Fore
SplineSet
788 0 m 1
 654 0 l 1
 756 482 l 2
 756.666666667 484.666666667 757 489 757 495 c 0
 757 505 754.666666667 514.666666667 750 524 c 0
 742.666666667 538.666666667 733.166666667 549 721.5 555 c 128
 709.833333333 561 700.5 564.333333333 693.5 565 c 128
 686.5 565.666666667 676.666666667 566 664 566 c 2
 557 566 l 2
 526.333333333 566 499.833333333 557.833333333 477.5 541.5 c 128
 455.166666667 525.166666667 441.333333333 504.666666667 436 480 c 2
 334 -2 l 1
 197 -2 l 1
 300 486 l 2
 306 516.666666667 324.333333333 543.666666667 355 567 c 1
 318 567 l 1
 341 680 l 1
 753 680 l 1
 803 669.333333333 841.333333333 645.333333333 868 608 c 1
 884.666666667 580 893 550.666666667 893 520 c 0
 893 508 891.666666667 495 889 481 c 2
 788 0 l 1
EndSplineSet
EndChar

StartChar: ga.imathra
Encoding: 130 -1 130
Width: 765
Flags: HW
LayerCount: 2
Fore
SplineSet
803 0 m 1
 668 0 l 1
 771 487 l 2
 772.333333333 496.333333333 773 503.333333333 773 508 c 0
 773 524.666666667 768.333333333 539.666666667 759 553 c 128
 749.666666667 566.333333333 734 573 712 573 c 2
 526 573 l 2
 504 573 485.666666667 565.666666667 471 551 c 1
 453.666666667 536.333333333 442.666666667 517 438 493 c 2
 333 1 l 1
 196 1 l 1
 299 488 l 2
 306.333333333 524 321 554.333333333 343 579 c 1
 357.666666667 599 376.666666667 616 400 630 c 1
 384.666666667 636 372 646.333333333 362 661 c 1
 352.666666667 671 348 684.666666667 348 702 c 0
 348 711.333333333 348.333333333 718.333333333 349 723 c 2
 364 790 l 2
 369.333333333 816.666666667 385.5 839 412.5 857 c 128
 439.5 875 469.333333333 884 502 884 c 2
 693 884 l 2
 747.666666667 884 794.333333333 870.333333333 833 843 c 128
 871.666666667 815.666666667 899.666666667 777.333333333 917 728 c 1
 925 698.666666667 929 669.333333333 929 640 c 0
 929 620.666666667 926.666666667 597 922 569 c 1
 803 0 l 1
795 664 m 1
 789.666666667 690 777 712.666666667 757 732 c 1
 725.666666667 758 685.333333333 771 636 771 c 2
 536 771 l 2
 509.333333333 771 495.333333333 766 494 756 c 1
 487 724 l 1
 485.666666667 711.333333333 485.666666667 702.666666667 487 698 c 0
 487.666666667 694.666666667 488.666666667 692.166666667 490 690.5 c 128
 491.333333333 688.833333333 492.333333333 687.666666667 493 687 c 1
 736 687 l 2
 762.666666667 687 782.333333333 679.333333333 795 664 c 1
EndSplineSet
LCarets2: 1 0
EndChar

StartChar: ga.sub
Encoding: 131 -1 131
Width: 99
Flags: HW
AnchorPoint: "Sub" -222 -64 mark 0
AnchorPoint: "Sub" 118 -432 basemark 0
LayerCount: 2
Fore
SplineSet
128 -410 m 1
 7 -410 l 1
 53 -193 l 1
 53.6666666667 -183 50.3333333333 -173.833333333 43 -165.5 c 128
 35.6666666667 -157.166666667 26 -153 14 -153 c 2
 -71 -153 l 2
 -85.6666666667 -153 -98 -156 -108 -162 c 1
 -118 -172 -123.333333333 -182 -124 -192 c 1
 -170 -409 l 1
 -293 -409 l 1
 -247 -192 l 2
 -239 -152 -218 -119 -184 -93 c 1
 -152.666666667 -67 -116 -54 -74 -54 c 2
 49 -54 l 2
 91 -54 125 -65.6666666667 151 -89 c 0
 170.333333333 -105.666666667 180 -127.666666667 180 -155 c 0
 180 -159.666666667 179.333333333 -167.333333333 178 -178 c 1
 128 -410 l 1
EndSplineSet
LCarets2: 1 0
EndChar

StartChar: gha.base
Encoding: 133 -1 133
Width: 1019
Flags: HW
LayerCount: 2
Fore
SplineSet
1365 569 m 1
 1055 569 l 1
 1062.33333333 559 1067.33333333 547.5 1070 534.5 c 128
 1072.66666667 521.5 1074 506 1074 488 c 1
 1094 441.333333333 1116 418 1140 418 c 1
 1152.66666667 418.666666667 1163 422 1171 428 c 1
 1181 438 1186 443.666666667 1186 445 c 2
 1208 548 l 1
 1342 548 l 1
 1323 459 l 2
 1319.66666667 443.666666667 1314.33333333 427.666666667 1307 411 c 0
 1304.33333333 405.666666667 1299 396 1291 382 c 1
 1274.33333333 358 1255.33333333 339 1234 325 c 1
 1209.33333333 311 1187.33333333 304 1168 304 c 2
 1111 305 l 2
 1085 305 1062.33333333 313.333333333 1043 330 c 1
 1001 141 l 1
 993 100.333333333 973.666666667 67 943 41 c 1
 913.666666667 11.6666666667 881.333333333 -3 846 -3 c 2
 674 -3 l 2
 645.333333333 -3 622.666666667 7 606 27 c 0
 604.666666667 28.3333333333 600.333333333 33.6666666667 593 43 c 128
 585.666666667 52.3333333333 580.666666667 62 578 72 c 1
 566 54.6666666667 550.333333333 39.6666666667 531 27 c 1
 507.666666667 7 482.666666667 -3 456 -3 c 2
 277 -2 l 2
 245.666666667 -2 221.666666667 10.3333333333 205 35 c 0
 195 50.3333333333 190 69 190 91 c 0
 190 97 190.666666667 106.333333333 192 119 c 1
 255 414 l 1
 422 414 l 2
 462.666666667 414 492.666666667 402 512 378 c 1
 529.333333333 359.333333333 538 337 538 311 c 0
 538 305 537.333333333 296.666666667 536 286 c 1
 528 250 l 1
 391 250 l 1
 398 280 l 1
 398.666666667 286 397.666666667 291 395 295 c 128
 392.333333333 299 386.333333333 301 377 301 c 2
 366 301 l 1
 334 148 l 2
 331.333333333 138 331.666666667 129 335 121 c 1
 343 113 348.333333333 109 351 109 c 2
 465 109 l 2
 477.666666667 109 490.333333333 117.666666667 503 135 c 1
 519.666666667 154.333333333 530.666666667 176.333333333 536 201 c 2
 552 280 l 1
 687 280 l 1
 671 201 l 2
 670.333333333 196.333333333 670 189.333333333 670 180 c 0
 670 167.333333333 672.666666667 154 678 140 c 1
 688.666666667 118.666666667 699.333333333 108 710 108 c 2
 824 108 l 2
 829.333333333 108 836.833333333 111.5 846.5 118.5 c 128
 856.166666667 125.5 862.333333333 135.333333333 865 148 c 2
 932 467 l 2
 932.666666667 470.333333333 933 475.666666667 933 483 c 0
 933 503 925.333333333 520.666666667 910 536 c 0
 890.666666667 555.333333333 864 565 830 565 c 2
 282 565 l 1
 305 678 l 1
 1388 678 l 1
 1365 569 l 1
709 392 m 1
 574 392 l 1
 600 519 l 1
 735 519 l 1
 709 392 l 1
594 -147 m 1
 459 -147 l 1
 492 6 l 1
 627 6 l 1
 594 -147 l 1
EndSplineSet
EndChar

StartChar: gha.imathra
Encoding: 134 -1 134
Width: 1213
Flags: HW
LayerCount: 2
Fore
SplineSet
756 597 m 2
 748.666666667 563 731.666666667 535.333333333 705 514 c 1
 680.333333333 492 652.666666667 481 622 481 c 2
 425 481 l 1
 448 594 l 1
 599 594 l 1
 606.333333333 595.333333333 611.833333333 598 615.5 602 c 128
 619.166666667 606 621.666666667 609.333333333 623 612 c 128
 624.333333333 614.666666667 625.333333333 618.333333333 626 623 c 2
 649 737 l 2
 651.666666667 749 651.666666667 758 649 764 c 0
 646.333333333 768.666666667 642.666666667 771 638 771 c 2
 587 771 l 2
 581 771 577.666666667 768.666666667 577 764 c 2
 572 736 l 1
 572 729 l 1
 579 725 l 1
 642 725 l 1
 617 611 l 1
 513 611 l 2
 487 611 465.666666667 620.666666667 449 640 c 1
 436.333333333 652.666666667 430 667.666666667 430 685 c 0
 430 692.333333333 430.333333333 698.333333333 431 703 c 2
 447 777 l 1
 452.333333333 809.666666667 469 835.333333333 497 854 c 1
 523 874 552.333333333 884 585 884 c 2
 722 884 l 2
 750 884 771 874 785 854 c 1
 795 843.333333333 800 828 800 808 c 0
 800 797.333333333 799.333333333 789 798 783 c 2
 756 597 l 2
1357 463 m 2
 1349.66666667 425 1332.5 393.666666667 1305.5 369 c 128
 1278.5 344.333333333 1249.33333333 332 1218 332 c 2
 1119 332 l 2
 1093 332 1070.66666667 341.333333333 1052 360 c 1
 1005 144 l 2
 995.666666667 104 975.666666667 70 945 42 c 1
 916.333333333 13.3333333333 884.333333333 -1 849 -1 c 1
 853 18 l 1
 852 -1 l 1
 680 0 l 2
 652 0 628 7.66666666667 608 23 c 0
 594 33.6666666667 584.666666667 46.6666666667 580 62 c 1
 566 45.3333333333 550.666666667 31.6666666667 534 21 c 1
 508 5.66666666667 482.666666667 -2 458 -2 c 2
 281 -1 l 2
 249.666666667 -1 226.333333333 9.66666666667 211 31 c 1
 199 45.6666666667 193 62.6666666667 193 82 c 0
 193 94 193.666666667 102.666666667 195 108 c 2
 260 418 l 1
 428 418 l 2
 466.666666667 418 496.666666667 407 518 385 c 0
 536.666666667 366.333333333 546 345.333333333 546 322 c 0
 546 317.333333333 545.333333333 310.333333333 544 301 c 1
 533 251 l 1
 396 251 l 1
 405 295 l 1
 400 300 l 1
 396.666666667 301.333333333 390 302 380 302 c 2
 372 302 l 1
 340 148 l 2
 337.333333333 138 338 128.833333333 342 120.5 c 128
 346 112.166666667 350.333333333 108 355 108 c 2
 469 108 l 2
 483.666666667 108 497.333333333 116.666666667 510 134 c 1
 526.666666667 151.333333333 537.666666667 173.333333333 543 200 c 2
 559 281 l 1
 694 281 l 1
 676 200 l 1
 673.333333333 178.666666667 677 158.333333333 687 139 c 1
 696.333333333 117.666666667 706.333333333 107 717 107 c 2
 831 107 l 2
 839 107 847.166666667 111.166666667 855.5 119.5 c 128
 863.833333333 127.833333333 869.333333333 137 872 147 c 2
 953 526 l 1
 953.666666667 538 951 547.833333333 945 555.5 c 128
 939 563.166666667 928.666666667 567 914 567 c 2
 823 567 l 1
 846 681 l 1
 972 681 l 2
 1000.66666667 681 1024.33333333 672.833333333 1043 656.5 c 128
 1061.66666667 640.166666667 1074.66666667 620 1082 596 c 1
 1085.33333333 581.333333333 1087 564.666666667 1087 546 c 0
 1087 531.333333333 1086.33333333 520.333333333 1085 513 c 1
 1108.33333333 465.666666667 1129.33333333 442 1148 442 c 2
 1199 442 l 2
 1202.33333333 442 1206.66666667 445.5 1212 452.5 c 128
 1217.33333333 459.5 1222.33333333 470.666666667 1227 486 c 1
 1267 682 l 1
 1401 682 l 1
 1357 463 l 2
592 -169 m 1
 457 -169 l 1
 490 -16 l 1
 625 -16 l 1
 592 -169 l 1
EndSplineSet
LCarets2: 1 0
EndChar

StartChar: gha.sub
Encoding: 135 -1 135
Width: 210
Flags: HW
AnchorPoint: "Sub" -274 81 mark 0
AnchorPoint: "Sub" 294 -337 basemark 0
LayerCount: 2
Fore
SplineSet
421 -37 m 2
 411.666666667 -85 380 -123.333333333 326 -152 c 1
 308 -233 l 2
 304.666666667 -249.666666667 299.5 -263.833333333 292.5 -275.5 c 128
 285.5 -287.166666667 275 -299.333333333 261 -312 c 0
 235 -335.333333333 205.666666667 -347 173 -347 c 2
 21 -347 l 2
 -3.66666666667 -347 -26 -339.333333333 -46 -324 c 0
 -60.6666666667 -313.333333333 -73 -298 -83 -278 c 1
 -93 -288.666666667 -103.333333333 -298.333333333 -114 -307 c 128
 -124.666666667 -315.666666667 -136 -322.666666667 -148 -328 c 1
 -179.333333333 -346.666666667 -208 -356 -234 -356 c 2
 -383 -356 l 2
 -413.666666667 -356 -436.333333333 -347.166666667 -451 -329.5 c 128
 -465.666666667 -311.833333333 -473 -294.666666667 -473 -278 c 0
 -473 -270 -472.666666667 -263.666666667 -472 -259 c 2
 -453 -168 l 2
 -445.666666667 -134.666666667 -429.666666667 -109.666666667 -405 -93 c 1
 -381 -73 -353.666666667 -63 -323 -63 c 2
 -168 -63 l 1
 -187 -161 l 1
 -305 -161 l 2
 -313 -161 -319.666666667 -163 -325 -167 c 128
 -330.333333333 -171 -333.333333333 -176 -334 -182 c 2
 -346 -240 l 1
 -344 -251 l 1
 -338.666666667 -254.333333333 -334.666666667 -256 -332 -256 c 2
 -202 -256 l 2
 -196 -256 -188.333333333 -252.5 -179 -245.5 c 128
 -169.666666667 -238.5 -162.333333333 -232.333333333 -157 -227 c 0
 -135.666666667 -207 -123.666666667 -189.666666667 -121 -175 c 2
 -112 -128 l 1
 11 -128 l 1
 0 -182 l 2
 -2.66666666667 -194.666666667 2 -208 14 -222 c 1
 21.3333333333 -229.333333333 28 -234.833333333 34 -238.5 c 128
 40 -242.166666667 47 -244 55 -244 c 2
 175 -244 l 2
 183 -244 187.666666667 -238.666666667 189 -228 c 1
 198 -186 l 1
 85 -186 l 1
 106 -87 l 1
 244 -87 l 2
 254.666666667 -87 266.5 -81.3333333333 279.5 -70 c 128
 292.5 -58.6666666667 300.333333333 -46.6666666667 303 -34 c 2
 318 40 l 2
 318.666666667 44.6666666667 302.333333333 59 269 83 c 1
 355 162 l 1
 416.333333333 118.666666667 444 80 438 46 c 1
 421 -37 l 2
-53 -410 m 1
 -176 -410 l 1
 -161 -335 l 1
 -84 -267 l 1
 -40 -335 l 1
 -53 -410 l 1
EndSplineSet
LCarets2: 1 0
EndChar

StartChar: nga
Encoding: 136 3225 136
Width: 915
Flags: HW
LayerCount: 2
Fore
SplineSet
984 116 m 2
 978 84.6666666667 961 58 933 36 c 1
 907 12.6666666667 878.666666667 1 848 1 c 2
 647 2 l 2
 623.666666667 2 602.666666667 9 584 23 c 0
 574 31 566.333333333 42.3333333333 561 57 c 1
 553.666666667 45 542.333333333 33.6666666667 527 23 c 0
 507 8.33333333333 486.333333333 1 465 1 c 2
 272 2 l 2
 255.333333333 2 241.166666667 4.16666666667 229.5 8.5 c 128
 217.833333333 12.8333333333 206 20 194 30 c 1
 179.333333333 46.6666666667 172 64.3333333333 172 83 c 0
 172 86.3333333333 172.666666667 92.6666666667 174 102 c 2
 204 249 l 1
 453 415 l 1
 467 423 475.666666667 437.666666667 479 459 c 1
 495 538 l 1
 497.666666667 545.333333333 495.166666667 551.666666667 487.5 557 c 128
 479.833333333 562.333333333 469 565 455 565 c 2
 409 565 l 1
 402 537 l 1
 400.666666667 527 401.666666667 520.333333333 405 517 c 0
 405.666666667 516.333333333 406.833333333 514.833333333 408.5 512.5 c 128
 410.166666667 510.166666667 411.333333333 508.666666667 412 508 c 1
 438 508 l 1
 413 395 l 1
 331 396 l 2
 305 396 284.666666667 407 270 429 c 0
 260 443.666666667 255 461 255 481 c 0
 255 485.666666667 255.666666667 493.333333333 257 504 c 1
 294 677 l 1
 499 677 l 2
 533 677 561.666666667 670.666666667 585 658 c 0
 603.666666667 648 614.333333333 634.333333333 617 617 c 1
 669.666666667 657.666666667 720.666666667 678 770 678 c 2
 985 678 l 2
 1011 678 1030 670.333333333 1042 655 c 1
 1051.33333333 638.333333333 1056 623 1056 609 c 0
 1056 604.333333333 1055.33333333 598.333333333 1054 591 c 2
 1036 500 l 1
 901 500 l 1
 909 544 l 2
 909.666666667 549.333333333 909.333333333 553.5 908 556.5 c 128
 906.666666667 559.5 903.5 561.333333333 898.5 562 c 128
 893.5 562.666666667 890.666666667 563 890 563 c 2
 781 563 l 2
 761.666666667 563 744.833333333 561.5 730.5 558.5 c 128
 716.166666667 555.5 701.166666667 550.166666667 685.5 542.5 c 128
 669.833333333 534.833333333 655 526 641 516 c 128
 627 506 615 494.666666667 605 482 c 1
 593 428 l 2
 583 380.666666667 560 347 524 327 c 1
 327 186 l 1
 318 137 l 2
 317.333333333 131.666666667 320.166666667 126.333333333 326.5 121 c 128
 332.833333333 115.666666667 341.333333333 113 352 113 c 2
 443 113 l 2
 458.333333333 113 473.333333333 117.333333333 488 126 c 128
 502.666666667 134.666666667 511.333333333 144.333333333 514 155 c 2
 526 216 l 1
 661 216 l 1
 649 155 l 2
 646.333333333 144.333333333 648.666666667 135 656 127 c 1
 668 117.666666667 682.333333333 113 699 113 c 2
 827 113 l 2
 833 113 837.333333333 113.666666667 840 115 c 1
 848 129 l 1
 876 262 l 2
 876.666666667 266.666666667 877.333333333 272.666666667 878 280 c 128
 878.666666667 287.333333333 876.666666667 291 872 291 c 2
 781 291 l 1
 804 403 l 1
 928 403 l 2
 951.333333333 403 969.333333333 398 982 388 c 1
 997.333333333 380.666666667 1008 368.666666667 1014 352 c 1
 1016.66666667 341.333333333 1018 330.666666667 1018 320 c 0
 1018 314.666666667 1017.33333333 307.333333333 1016 298 c 2
 984 116 l 2
662 254 m 1
 527 254 l 1
 555 381 l 1
 690 381 l 1
 662 254 l 1
EndSplineSet
LCarets2: 1 0
EndChar

StartChar: nga.sub
Encoding: 137 -1 137
Width: 196
Flags: HW
AnchorPoint: "Sub" -418 -32 mark 0
AnchorPoint: "Sub" 326 -396 basemark 0
LayerCount: 2
Fore
SplineSet
28 -228 m 1
 -92 -228 l 1
 -74 -144 l 1
 46 -144 l 1
 28 -228 l 1
334 -314 m 1
 328.666666667 -342 314.333333333 -363.666666667 291 -379 c 1
 267 -398.333333333 242.666666667 -408 218 -408 c 2
 18 -408 l 2
 7.33333333333 -408 -2.33333333333 -406.166666667 -11 -402.5 c 128
 -19.6666666667 -398.833333333 -28.1666666667 -393.833333333 -36.5 -387.5 c 128
 -44.8333333333 -381.166666667 -51.3333333333 -373 -56 -363 c 1
 -63.3333333333 -371 -74.3333333333 -379.666666667 -89 -389 c 0
 -97 -393.666666667 -106 -398 -116 -402 c 128
 -126 -406 -137.333333333 -408 -150 -408 c 2
 -365 -408 l 2
 -393 -408 -415.5 -400.333333333 -432.5 -385 c 128
 -449.5 -369.666666667 -458 -353.666666667 -458 -337 c 0
 -458 -329.666666667 -457.666666667 -324.333333333 -457 -321 c 2
 -442 -250 l 2
 -436.666666667 -226 -423.5 -206.833333333 -402.5 -192.5 c 128
 -381.5 -178.166666667 -357 -171 -329 -171 c 2
 -258 -171 l 1
 -253 -167 l 1
 -249 -144 l 1
 -251 -140 l 1
 -405 -140 l 1
 -384 -44 l 1
 -187 -44 l 2
 -167.666666667 -44 -152.666666667 -48 -142 -56 c 0
 -137.333333333 -59.3333333333 -133.333333333 -65 -130 -73 c 1
 -106.666666667 -53 -78.3333333333 -43 -45 -43 c 2
 127 -43 l 2
 157.666666667 -43 181.666666667 -50.3333333333 199 -65 c 1
 213 -75.6666666667 220 -91 220 -111 c 0
 220 -117 219.666666667 -121.666666667 219 -125 c 2
 205 -187 l 1
 85 -187 l 1
 96 -138 l 1
 96.6666666667 -130.666666667 87.3333333333 -127 68 -127 c 2
 -46 -127 l 2
 -62.6666666667 -127 -78.6666666667 -132.333333333 -94 -143 c 1
 -110.666666667 -151 -124.333333333 -163.666666667 -135 -181 c 1
 -142 -213 l 2
 -144.666666667 -225 -155 -236.333333333 -173 -247 c 128
 -191 -257.666666667 -209.666666667 -263 -229 -263 c 2
 -308 -263 l 2
 -318 -263 -323.333333333 -265.333333333 -324 -270 c 2
 -329 -295 l 1
 -327 -300 l 1
 -316 -305 l 1
 -151 -305 l 2
 -138.333333333 -305 -126.5 -301.833333333 -115.5 -295.5 c 128
 -104.5 -289.166666667 -98.6666666667 -283 -98 -277 c 2
 -89 -230 l 1
 31 -230 l 1
 23 -270 l 2
 20.3333333333 -282 22.6666666667 -290.666666667 30 -296 c 1
 40 -306 50 -311 60 -311 c 2
 198 -311 l 2
 205.333333333 -311 210.666666667 -308.666666667 214 -304 c 2
 225 -290 l 1
 240 -216 l 1
 356 -216 l 1
 334 -314 l 1
EndSplineSet
LCarets2: 1 0
EndChar

StartChar: ca.base
Encoding: 139 -1 139
Width: 819
Flags: HW
LayerCount: 2
Fore
SplineSet
1103 331 m 1
 1004 331 l 1
 1008.66666667 321.666666667 1011 312.333333333 1011 303 c 0
 1011 297 1010.66666667 292.666666667 1010 290 c 2
 974 117 l 2
 966.666666667 84.3333333333 948.666666667 57.3333333333 920 36 c 1
 892 12.6666666667 861.666666667 1 829 1 c 2
 622 2 l 2
 600.666666667 2 583 7.33333333333 569 18 c 0
 563 23.3333333333 557.666666667 30 553 38 c 1
 547 30 538 23.3333333333 526 18 c 1
 504.666666667 6 482 0 458 0 c 2
 281 1 l 2
 245.666666667 1 219.666666667 13 203 37 c 1
 187.666666667 55.6666666667 180 76.6666666667 180 100 c 0
 180 104.666666667 180.666666667 112.333333333 182 123 c 1
 214 274 l 1
 458 407 l 1
 484 534 l 1
 486.666666667 543.333333333 484.833333333 551.166666667 478.5 557.5 c 128
 472.166666667 563.833333333 463 567 451 567 c 2
 414 567 l 1
 406 535 l 1
 405.333333333 527 407.333333333 520.666666667 412 516 c 128
 416.666666667 511.333333333 421.333333333 509 426 509 c 2
 459 509 l 1
 434 396 l 1
 345 397 l 2
 317 397 294.666666667 407 278 427 c 1
 266 439.666666667 260 456 260 476 c 0
 260 480.666666667 260.666666667 487.666666667 262 497 c 2
 301 678 l 1
 533 678 l 2
 566.333333333 678 591.333333333 666.333333333 608 643 c 1
 622 626.333333333 629 606.333333333 629 583 c 0
 629 572.333333333 628.333333333 564.333333333 627 559 c 2
 583 342 l 1
 337 201 l 1
 326 155 l 1
 325.333333333 141 327 130.166666667 331 122.5 c 128
 335 114.833333333 341.666666667 111 351 111 c 2
 470 111 l 2
 482 111 492.833333333 114.166666667 502.5 120.5 c 128
 512.166666667 126.833333333 517.333333333 133.666666667 518 141 c 1
 533 215 l 1
 668 215 l 1
 656 154 l 2
 655.333333333 150.666666667 655 146 655 140 c 0
 655 134.666666667 656.833333333 128.833333333 660.5 122.5 c 128
 664.166666667 116.166666667 669.666666667 113 677 113 c 2
 797 113 l 2
 809.666666667 113 820.833333333 116.166666667 830.5 122.5 c 128
 840.166666667 128.833333333 845.333333333 135.666666667 846 143 c 1
 875 283 l 2
 878.333333333 297.666666667 875.333333333 308.666666667 866 316 c 1
 860.666666667 325.333333333 851 330 837 330 c 2
 685 330 l 1
 710 443 l 1
 886 443 l 1
 912 567 l 1
 736 567 l 1
 759 680 l 1
 1002 680 l 1
 1048 581 l 1
 1020 443 l 1
 1129 443 l 1
 1103 331 l 1
EndSplineSet
EndChar

StartChar: ca.imathra
Encoding: 140 -1 140
Width: 996
Flags: HW
LayerCount: 2
Fore
SplineSet
1110 333 m 1
 1011 333 l 1
 1014.33333333 325.666666667 1016 317 1016 307 c 0
 1016 299.666666667 1015.66666667 294.333333333 1015 291 c 2
 979 119 l 2
 973 89.6666666667 959 63 937 39 c 1
 913 15 888.666666667 3 864 3 c 2
 628 4 l 2
 608 4 591.666666667 10 579 22 c 0
 573 27.3333333333 567.666666667 33.6666666667 563 41 c 1
 557.666666667 35 548.666666667 29 536 23 c 1
 513.333333333 10.3333333333 491 4 469 4 c 2
 276 4 l 2
 245.333333333 4 221.666666667 13.6666666667 205 33 c 0
 192.333333333 47 186 63.6666666667 186 83 c 0
 186 90.3333333333 186.333333333 96.3333333333 187 101 c 2
 227 294 l 1
 467 414 l 1
 495 541 l 1
 496.333333333 551.666666667 494 559.333333333 488 564 c 1
 482 570 473 573 461 573 c 2
 424 573 l 1
 417 540 l 2
 415.666666667 532.666666667 416.333333333 526.666666667 419 522 c 1
 424.333333333 516.666666667 429.666666667 514 435 514 c 2
 482 514 l 1
 459 401 l 1
 354 401 l 2
 325.333333333 401 304 410.666666667 290 430 c 1
 277.333333333 442.666666667 271 457.666666667 271 475 c 0
 271 482.333333333 271.333333333 487.666666667 272 491 c 2
 312 685 l 1
 552 685 l 2
 584.666666667 685 608.333333333 674 623 652 c 1
 633.666666667 633.333333333 639 613 639 591 c 0
 639 581.666666667 638.666666667 574.666666667 638 570 c 2
 591 346 l 1
 348 219 l 1
 332 147 l 1
 332 137.666666667 334.333333333 130 339 124 c 128
 343.666666667 118 350 115 358 115 c 2
 464 115 l 2
 479.333333333 115 493.166666667 118.166666667 505.5 124.5 c 128
 517.833333333 130.833333333 524.333333333 137.666666667 525 145 c 1
 546 247 l 1
 681 247 l 1
 663 158 l 2
 660.333333333 147.333333333 661.666666667 137.666666667 667 129 c 128
 672.333333333 120.333333333 677.666666667 116 683 116 c 2
 818 116 l 2
 825.333333333 116 832.666666667 119.166666667 840 125.5 c 128
 847.333333333 131.833333333 851.333333333 138.666666667 852 146 c 1
 881 287 l 2
 883.666666667 297.666666667 882.333333333 307 877 315 c 1
 872.333333333 319.666666667 868.166666667 323.5 864.5 326.5 c 128
 860.833333333 329.5 855.333333333 331.666666667 848 333 c 1
 692 332 l 1
 715 445 l 1
 878 445 l 1
 904.666666667 455.666666667 920.333333333 470.333333333 925 489 c 1
 961 661 l 2
 961 661.666666667 951.666666667 662 933 662 c 2
 892 662 l 1
 892.666666667 656 892.666666667 650.333333333 892 645 c 2
 888 622 l 2
 887.333333333 618.666666667 889.333333333 615.166666667 894 611.5 c 128
 898.666666667 607.833333333 902.666666667 606 906 606 c 2
 956 606 l 1
 933 493 l 1
 820 493 l 2
 795.333333333 493 775.333333333 502.333333333 760 521 c 0
 749.333333333 533.666666667 744 547.666666667 744 563 c 0
 744 566.333333333 744.666666667 572.666666667 746 582 c 2
 768 688 l 2
 774 714.666666667 787.5 736.166666667 808.5 752.5 c 128
 829.5 768.833333333 853.333333333 777 880 777 c 2
 1015 777 l 2
 1045.66666667 777 1068.33333333 766.333333333 1083 745 c 1
 1095 730.333333333 1101 713 1101 693 c 0
 1101 688.333333333 1100.33333333 680.666666667 1099 670 c 1
 1063 503 l 1
 1059.66666667 483.666666667 1050.66666667 465.333333333 1036 448 c 1
 1138 448 l 1
 1110 333 l 1
EndSplineSet
LCarets2: 1 0
EndChar

StartChar: ca.sub
Encoding: 141 -1 141
Width: 196
Flags: HW
AnchorPoint: "Sub" -330 135 mark 0
AnchorPoint: "Sub" 267 -398 basemark 0
LayerCount: 2
Fore
SplineSet
368 -158 m 1
 305 -158 l 1
 311 -167.333333333 314 -179.333333333 314 -194 c 0
 314 -197.333333333 313.333333333 -204.333333333 312 -215 c 1
 293 -307 l 2
 287.666666667 -333.666666667 273.166666667 -356.5 249.5 -375.5 c 128
 225.833333333 -394.5 201.666666667 -404 177 -404 c 2
 33 -404 l 2
 3.66666666667 -404 -21 -396.666666667 -41 -382 c 0
 -53.6666666667 -372 -62.6666666667 -359.666666667 -68 -345 c 1
 -80 -361.666666667 -94.6666666667 -374.666666667 -112 -384 c 1
 -122.666666667 -388.666666667 -135.666666667 -393.333333333 -151 -398 c 128
 -166.333333333 -402.666666667 -180 -405 -192 -405 c 2
 -345 -405 l 1
 -366.333333333 -406.333333333 -383 -405.5 -395 -402.5 c 128
 -407 -399.5 -420 -394.333333333 -434 -387 c 1
 -443.333333333 -381 -450 -372.666666667 -454 -362 c 128
 -458 -351.333333333 -459.333333333 -341.333333333 -458 -332 c 1
 -439 -246 l 2
 -434.333333333 -222 -422 -202.333333333 -402 -187 c 1
 -389.333333333 -179.666666667 -378.333333333 -174.5 -369 -171.5 c 128
 -359.666666667 -168.5 -348.666666667 -167 -336 -167 c 2
 -265 -167 l 2
 -259.666666667 -167 -252.333333333 -164.666666667 -243 -160 c 1
 -236 -155 l 1
 -232 -137 l 1
 -239.333333333 -135.666666667 -245.333333333 -135 -250 -135 c 2
 -403 -135 l 1
 -382 -37 l 1
 -196 -37 l 2
 -168 -37 -144 -42 -124 -52 c 1
 -106.666666667 -69.3333333333 -99.3333333333 -86.3333333333 -102 -103 c 1
 -120 -189 l 2
 -124.666666667 -211 -140 -231.666666667 -166 -251 c 1
 -192.666666667 -268.333333333 -220 -277 -248 -277 c 2
 -311 -277 l 1
 -325 -279 l 1
 -327 -284 l 1
 -329 -298 l 1
 -327 -302 l 1
 -318 -307 l 1
 -187 -307 l 2
 -170.333333333 -307 -153.833333333 -301 -137.5 -289 c 128
 -121.166666667 -277 -110.666666667 -262.333333333 -106 -245 c 1
 -95 -189 l 1
 26 -189 l 1
 12 -253 l 1
 11.3333333333 -263.666666667 15.6666666667 -275.166666667 25 -287.5 c 128
 34.3333333333 -299.833333333 44.3333333333 -306 55 -306 c 2
 147 -306 l 2
 150.333333333 -306 156.666666667 -303.666666667 166 -299 c 1
 172 -293.666666667 175.666666667 -286.333333333 177 -277 c 1
 195 -198 l 2
 197.666666667 -187.333333333 195.333333333 -178 188 -170 c 1
 182.666666667 -162 172.333333333 -158 157 -158 c 2
 19 -158 l 1
 40 -59 l 1
 130 -59 l 1
 182 -19 211 15.3333333333 217 44 c 2
 256 231 l 1
 380 231 l 1
 340 44 l 1
 330 6.66666666667 307.333333333 -27.6666666667 272 -59 c 1
 389 -59 l 1
 368 -158 l 1
EndSplineSet
LCarets2: 1 0
EndChar

StartChar: cha.base
Encoding: 143 -1 143
Width: 729
Flags: HW
LayerCount: 2
Fore
SplineSet
967 121 m 2
 959.666666667 85.6666666667 941.333333333 56.3333333333 912 33 c 1
 882.666666667 8.33333333333 851 -4 817 -4 c 2
 673 -4 l 2
 649 -4 628.333333333 3.33333333333 611 18 c 1
 601.666666667 24 593 33.3333333333 585 46 c 1
 577.666666667 36 566.333333333 26.6666666667 551 18 c 0
 527 3.33333333333 504.333333333 -4 483 -4 c 2
 328 -3 l 2
 292.666666667 -3 264 8 242 30 c 1
 225.333333333 45.3333333333 217 64.6666666667 217 88 c 0
 217 92.6666666667 217.666666667 100.333333333 219 111 c 1
 311 545 l 2
 316.333333333 571 326.666666667 593.666666667 342 613 c 1
 359.333333333 637 379 653 401 661 c 1
 421 673 444 679 470 679 c 2
 686 679 l 1
 647 496 l 2
 639.666666667 462.666666667 624.333333333 436 601 416 c 1
 574.333333333 392 547.666666667 380 521 380 c 2
 430 380 l 1
 453 494 l 1
 490 494 l 1
 497.333333333 495.333333333 502.333333333 497.333333333 505 500 c 0
 511 507.333333333 514.333333333 515 515 523 c 1
 524 565 l 1
 485 565 l 2
 471 565 460.333333333 562.333333333 453 557 c 1
 445.666666667 549.666666667 440.666666667 541.333333333 438 532 c 1
 357 145 l 1
 354.333333333 135.666666667 355.333333333 126.833333333 360 118.5 c 128
 364.666666667 110.166666667 371 106 379 106 c 2
 474 106 l 2
 486 106 500.333333333 111 517 121 c 1
 520.333333333 125.666666667 524 130.333333333 528 135 c 128
 532 139.666666667 534.333333333 144.333333333 535 149 c 2
 551 226 l 1
 685 226 l 1
 669 149 l 1
 668.333333333 139.666666667 670.666666667 130.166666667 676 120.5 c 128
 681.333333333 110.833333333 691.333333333 106 706 106 c 2
 791 106 l 2
 799 106 807.333333333 110.333333333 816 119 c 128
 824.666666667 127.666666667 830.333333333 137.333333333 833 148 c 2
 912 523 l 2
 916.666666667 542.333333333 903.333333333 555.666666667 872 563 c 1
 720 562 l 1
 743 675 l 1
 909 675 l 1
 956.333333333 669.666666667 993.333333333 653 1020 625 c 1
 1039.33333333 601 1049 575.666666667 1049 549 c 0
 1049 543.666666667 1048.33333333 535.666666667 1047 525 c 1
 967 121 l 2
598 -166 m 1
 464 -166 l 1
 496 -14 l 1
 630 -14 l 1
 598 -166 l 1
EndSplineSet
EndChar

StartChar: cha.imathra
Encoding: 144 -1 144
Width: 901
Flags: HW
LayerCount: 2
Fore
SplineSet
968 123 m 1
 960 87.6666666667 943 58.3333333333 917 35 c 1
 890.333333333 9 860.666666667 -4 828 -4 c 2
 672 -4 l 2
 648 -4 627.333333333 3.33333333333 610 18 c 1
 598 26 589.666666667 36.3333333333 585 49 c 1
 580.333333333 43 575 37.3333333333 569 32 c 0
 568.333333333 31.3333333333 562 26.3333333333 550 17 c 1
 528 3.66666666667 505.333333333 -3 482 -3 c 2
 327 -2 l 2
 291.666666667 -2 263 9 241 31 c 0
 224.333333333 47.6666666667 216 67.6666666667 216 91 c 0
 216 95.6666666667 216.666666667 103.333333333 218 114 c 1
 311 549 l 1
 314.333333333 572.333333333 324.5 595.166666667 341.5 617.5 c 128
 358.5 639.833333333 378 656 400 666 c 1
 410.666666667 672 422.166666667 676.333333333 434.5 679 c 128
 446.833333333 681.666666667 458 683 468 683 c 2
 684 683 l 1
 645 500 l 2
 637.666666667 466 622.333333333 439 599 419 c 1
 572.333333333 395 545.666666667 383 519 383 c 2
 428 383 l 1
 453 499 l 1
 490 499 l 1
 505 503 l 1
 506.333333333 506.333333333 507.333333333 508.333333333 508 509 c 128
 508.666666667 509.666666667 509.333333333 510.666666667 510 512 c 2
 522 568 l 1
 483 568 l 2
 471 568 461 565.666666667 453 561 c 1
 444.333333333 553.666666667 439.666666667 545 439 535 c 1
 357 148 l 2
 354.333333333 136 356.5 126.5 363.5 119.5 c 128
 370.5 112.5 378.666666667 109 388 109 c 2
 474 109 l 2
 481.333333333 109 487.5 109.833333333 492.5 111.5 c 128
 497.5 113.166666667 505.333333333 116.666666667 516 122 c 1
 519.333333333 126.666666667 523 131.333333333 527 136 c 128
 531 140.666666667 533.333333333 145.666666667 534 151 c 2
 550 227 l 1
 684 227 l 1
 668 151 l 1
 667.333333333 140.333333333 670.166666667 130.666666667 676.5 122 c 128
 682.833333333 113.333333333 692.333333333 109 705 109 c 2
 790 109 l 2
 799.333333333 109 808.166666667 113.166666667 816.5 121.5 c 128
 824.833333333 129.833333333 830.333333333 140 833 152 c 2
 938 643 l 1
 939.333333333 653 938.166666667 661 934.5 667 c 128
 930.833333333 673 926 676 920 676 c 2
 877 676 l 2
 869.666666667 676 863 674.333333333 857 671 c 1
 852.333333333 663.666666667 849.666666667 658.666666667 849 656 c 2
 841 616 l 2
 840.333333333 610.666666667 840.666666667 605.333333333 842 600 c 1
 849.333333333 594.666666667 855.333333333 592 860 592 c 2
 904 592 l 1
 881 479 l 1
 800 480 l 2
 764.666666667 480 737.333333333 489.666666667 718 509 c 0
 703.333333333 524.333333333 696 543 696 565 c 0
 696 569.666666667 696.666666667 577.333333333 698 588 c 1
 717 681 l 2
 724.333333333 713.666666667 740.833333333 739.666666667 766.5 759 c 128
 792.166666667 778.333333333 819.666666667 788 849 788 c 2
 987 788 l 2
 1007 788 1025.66666667 782 1043 770 c 1
 1051 762 1057.33333333 754.333333333 1062 747 c 128
 1066.66666667 739.666666667 1069.83333333 731.833333333 1071.5 723.5 c 128
 1073.16666667 715.166666667 1074.66666667 708.5 1076 703.5 c 128
 1077.33333333 698.5 1078 692 1078 684 c 256
 1078 676 1076.66666667 667 1074 657 c 1
 968 123 l 1
597 -164 m 1
 463 -164 l 1
 496 -11 l 1
 630 -11 l 1
 597 -164 l 1
EndSplineSet
LCarets2: 1 0
EndChar

StartChar: cha.sub
Encoding: 145 -1 145
Width: 156
Flags: HW
AnchorPoint: "Sub" -292 169 mark 0
AnchorPoint: "Sub" 261 -370 basemark 0
LayerCount: 2
Fore
SplineSet
284 -232 m 2
 276 -272 260 -306 236 -334 c 1
 212 -364.666666667 187 -380 161 -380 c 2
 35 -380 l 2
 8.33333333333 -380 -12.6666666667 -373 -28 -359 c 1
 -40 -349.666666667 -47.6666666667 -339.666666667 -51 -329 c 1
 -60.3333333333 -341 -72 -351 -86 -359 c 1
 -107.333333333 -373 -129.333333333 -380 -152 -380 c 2
 -296 -379 l 1
 -300 -378 l 1
 -326 -378 -347.333333333 -367 -364 -345 c 1
 -374.666666667 -328.333333333 -380 -310.666666667 -380 -292 c 0
 -380 -288.666666667 -379.333333333 -281.666666667 -378 -271 c 1
 -356 -165 l 2
 -350 -135.666666667 -335 -110 -311 -88 c 1
 -287 -68 -258.333333333 -58 -225 -58 c 2
 -94 -58 l 1
 -117 -170 l 1
 -220 -170 l 1
 -227.333333333 -171.333333333 -232.333333333 -173.333333333 -235 -176 c 128
 -237.666666667 -178.666666667 -239.666666667 -184.666666667 -241 -194 c 2
 -253 -251 l 2
 -254.333333333 -260.333333333 -253.5 -266.5 -250.5 -269.5 c 128
 -247.5 -272.5 -244.333333333 -274 -241 -274 c 2
 -139 -274 l 2
 -129 -274 -118.666666667 -269.166666667 -108 -259.5 c 128
 -97.3333333333 -249.833333333 -90.6666666667 -236.333333333 -88 -219 c 1
 -79 -177 l 1
 35 -177 l 1
 24 -224 l 1
 23.3333333333 -231.333333333 23 -236.666666667 23 -240 c 0
 23 -248 25.1666666667 -255.333333333 29.5 -262 c 128
 33.8333333333 -268.666666667 42 -272 54 -272 c 2
 125 -272 l 2
 135 -272 145 -268.333333333 155 -261 c 1
 165 -251.666666667 171.333333333 -241.666666667 174 -231 c 2
 217 -26 l 2
 219.666666667 -15.3333333333 221 -4.66666666667 221 6 c 0
 221 23.3333333333 216.333333333 39.6666666667 207 55 c 1
 195 77 171 91.6666666667 135 99 c 1
 198 197 l 1
 215.333333333 192.333333333 228 188.666666667 236 186 c 0
 256 178.666666667 271.333333333 167.666666667 282 153 c 1
 305.333333333 131.666666667 319.666666667 105 325 73 c 1
 328.333333333 58.3333333333 330 42 330 24 c 0
 330 18 329.833333333 11.3333333333 329.5 4 c 128
 329.166666667 -3.33333333333 327.666666667 -14 325 -28 c 2
 284 -232 l 2
-20 -443 m 1
 -141 -443 l 1
 -129 -385 l 1
 -51 -314 l 1
 -9 -385 l 1
 -20 -443 l 1
EndSplineSet
LCarets2: 1 0
EndChar

StartChar: ja
Encoding: 146 3228 146
Width: 928
Flags: HW
LayerCount: 2
Fore
SplineSet
1029 270 m 1
 996 116 l 1
 990.666666667 96 981.666666667 77.3333333333 969 60 c 0
 963 50.6666666667 955.833333333 42.8333333333 947.5 36.5 c 128
 939.166666667 30.1666666667 930.333333333 24.3333333333 921 19 c 1
 907 13.6666666667 895.833333333 9.66666666667 887.5 7 c 128
 879.166666667 4.33333333333 870.333333333 3 861 3 c 2
 642 3 l 2
 622.666666667 3 605.333333333 10 590 24 c 1
 582 30 576.666666667 37.6666666667 574 47 c 1
 568 37.6666666667 560 30.3333333333 550 25 c 1
 534.666666667 10.3333333333 516 3 494 3 c 2
 273 4 l 2
 256.333333333 4 242.166666667 6.16666666667 230.5 10.5 c 128
 218.833333333 14.8333333333 207 22 195 32 c 1
 180.333333333 48.6666666667 173 66.3333333333 173 85 c 0
 173 88.3333333333 173.666666667 94.6666666667 175 104 c 2
 211 277 l 1
 465 391 l 1
 487 405.666666667 499.333333333 420.333333333 502 435 c 2
 521 527 l 2
 523.666666667 537.666666667 520.833333333 547.166666667 512.5 555.5 c 128
 504.166666667 563.833333333 492.666666667 568 478 568 c 2
 424 568 l 1
 413 521 l 2
 412.333333333 518.333333333 415 517 421 517 c 128
 430 517 430 517 445 517 c 2
 484 517 l 1
 458 396 l 1
 363 397 l 2
 331.666666667 397 307.666666667 407 291 427 c 0
 278.333333333 441.666666667 272 458.333333333 272 477 c 0
 272 481.666666667 272.666666667 488.666666667 274 498 c 2
 313 679 l 1
 546 679 l 2
 570.666666667 679 593 675.333333333 613 668 c 1
 635 656 649 643 655 629 c 1
 663 618.333333333 667 606 667 592 c 0
 667 586 666.666666667 581.666666667 666 579 c 1
 683.333333333 550.333333333 703.666666667 536 727 536 c 2
 871 536 l 2
 872.333333333 536 877.666666667 538.333333333 887 543 c 1
 891.666666667 546.333333333 894.166666667 548.333333333 894.5 549 c 128
 894.833333333 549.666666667 895.333333333 550.333333333 896 551 c 2
 901 573 l 1
 897.666666667 577.666666667 894.666666667 580 892 580 c 2
 860 580 l 1
 883 693 l 1
 944 693 l 2
 964 693 981.666666667 689 997 681 c 0
 1006.33333333 675.666666667 1013.66666667 670.333333333 1019 665 c 128
 1024.33333333 659.666666667 1027.66666667 652.333333333 1029 643 c 1
 1034.33333333 632.333333333 1037 620.666666667 1037 608 c 0
 1037 604.666666667 1036.33333333 598.333333333 1035 589 c 2
 1023 529 l 2
 1020.33333333 515.666666667 1015.16666667 503.166666667 1007.5 491.5 c 128
 999.833333333 479.833333333 989.666666667 468.666666667 977 458 c 1
 951 438 922.666666667 428 892 428 c 2
 715 428 l 2
 687 428 661 437.333333333 637 456 c 1
 626 406 l 2
 622.666666667 389.333333333 615.5 373.666666667 604.5 359 c 128
 593.5 344.333333333 579.333333333 331 562 319 c 1
 330 216 l 1
 318 158 l 2
 315.333333333 146 317.666666667 136.666666667 325 130 c 128
 332.333333333 123.333333333 340.666666667 120 350 120 c 2
 478 120 l 2
 485.333333333 120 495 124 507 132 c 0
 510.333333333 134.666666667 513.833333333 138.333333333 517.5 143 c 128
 521.166666667 147.666666667 523.666666667 154 525 162 c 2
 534 212 l 1
 669 212 l 1
 661 169 l 1
 658.333333333 158.333333333 661 147.666666667 669 137 c 1
 679 126.333333333 690.333333333 121 703 121 c 2
 809 121 l 2
 821.666666667 121 833.5 126 844.5 136 c 128
 855.5 146 862.666666667 157.333333333 866 170 c 1
 884 256 l 2
 885.333333333 263.333333333 883 269.666666667 877 275 c 128
 871 280.333333333 862 283 850 283 c 2
 775 283 l 1
 800 396 l 1
 948 396 l 2
 976 396 997.333333333 384 1012 360 c 0
 1022 342.666666667 1027 323.333333333 1027 302 c 0
 1027 297.333333333 1027.66666667 286.666666667 1029 270 c 1
EndSplineSet
LCarets2: 1 0
EndChar

StartChar: ja.base
Encoding: 147 -1 147
Width: 756
Flags: HW
LayerCount: 2
Fore
SplineSet
1000 130 m 1
 992 96.6666666667 972.833333333 66.8333333333 942.5 40.5 c 128
 912.166666667 14.1666666667 880.333333333 1 847 1 c 2
 637 2 l 2
 618.333333333 2 602 8.33333333333 588 21 c 1
 582 28.3333333333 576.666666667 36.6666666667 572 46 c 1
 569.333333333 42.6666666667 566.166666667 39.1666666667 562.5 35.5 c 128
 558.833333333 31.8333333333 552.333333333 27.3333333333 543 22 c 0
 521.666666667 8 499 1 475 1 c 2
 267 2 l 2
 236.333333333 2 211.333333333 11.6666666667 192 31 c 1
 177.333333333 47.6666666667 170 65.3333333333 170 84 c 0
 170 87.3333333333 170.666666667 93.6666666667 172 103 c 2
 208 276 l 1
 441 389 l 1
 461 403.666666667 476 416.333333333 486 427 c 128
 496 437.666666667 501.666666667 448.333333333 503 459 c 1
 517 524 l 2
 519.666666667 536 518 546.666666667 512 556 c 1
 506 562 497.666666667 565 487 565 c 2
 422 565 l 1
 417 544 l 1
 416.333333333 536 416.833333333 530 418.5 526 c 128
 420.166666667 522 421.833333333 519.333333333 423.5 518 c 128
 425.166666667 516.666666667 426.666666667 516 428 516 c 2
 467 516 l 1
 441 395 l 1
 360 396 l 2
 330.666666667 396 306.666666667 406 288 426 c 1
 275.333333333 440.666666667 269 457.333333333 269 476 c 0
 269 480.666666667 269.666666667 487.666666667 271 497 c 2
 310 678 l 1
 541 678 l 2
 565.666666667 678 588.166666667 673.166666667 608.5 663.5 c 128
 628.833333333 653.833333333 644 639 654 619 c 0
 660 607 663 593.666666667 663 579 c 0
 663 571.666666667 662.666666667 566.333333333 662 563 c 1
 677.333333333 544.333333333 692.333333333 535 707 535 c 2
 845 535 l 2
 846.333333333 535 848.333333333 536.166666667 851 538.5 c 128
 853.666666667 540.833333333 856.5 542.833333333 859.5 544.5 c 128
 862.5 546.166666667 864.666666667 551 866 559 c 1
 868 566 l 1
 710 566 l 1
 733 679 l 1
 903 679 l 2
 938.333333333 679 965.333333333 670.333333333 984 653 c 1
 998.666666667 635.666666667 1006 617.666666667 1006 599 c 0
 1006 594.333333333 1005.33333333 587.333333333 1004 578 c 2
 993 525 l 2
 987.666666667 499 971.333333333 475.5 944 454.5 c 128
 916.666666667 433.5 888.666666667 423 860 423 c 2
 709 423 l 2
 695 423 682.166666667 425 670.5 429 c 128
 658.833333333 433 646.666666667 440 634 450 c 1
 626 414 l 2
 620.666666667 388 594 358.666666667 546 326 c 1
 327 209 l 1
 315 151 l 2
 314.333333333 146.333333333 314.333333333 141.666666667 315 137 c 128
 315.666666667 132.333333333 317.833333333 127 321.5 121 c 128
 325.166666667 115 332.333333333 112 343 112 c 2
 471 112 l 2
 480.333333333 112 491 116 503 124 c 1
 513 133.333333333 519.333333333 143.333333333 522 154 c 1
 531 203 l 1
 666 203 l 1
 658 161 l 2
 654.666666667 147 656.666666667 135.333333333 664 126 c 1
 668.666666667 116 675.666666667 111 685 111 c 2
 808 111 l 2
 820 111 832 115 844 123 c 1
 856 133 862.666666667 143 864 153 c 1
 885 253 l 2
 885.666666667 257.666666667 883.333333333 262.333333333 878 267 c 128
 872.666666667 271.666666667 862.666666667 274 848 274 c 2
 776 274 l 1
 799 386 l 1
 937 386 l 2
 970.333333333 386 994.666666667 376 1010 356 c 1
 1022 343.333333333 1028 326.333333333 1028 305 c 0
 1028 300.333333333 1027.33333333 292.666666667 1026 282 c 2
 1000 130 l 1
EndSplineSet
EndChar

StartChar: ja.imathra
Encoding: 148 -1 148
Width: 939
Flags: HW
LayerCount: 2
Fore
SplineSet
1006 117 m 2
 1000 84.3333333333 981.666666667 57 951 35 c 1
 922.333333333 11.6666666667 891 0 857 0 c 2
 633 1 l 2
 613 1 597 7.33333333333 585 20 c 1
 577 25.3333333333 571.666666667 33 569 43 c 1
 544 20 l 1
 525.333333333 6 506 -1 486 -1 c 2
 278 -1 l 2
 262.666666667 -1 247.666666667 2.16666666667 233 8.5 c 128
 218.333333333 14.8333333333 205.666666667 23 195 33 c 1
 180.333333333 50.3333333333 173 69.6666666667 173 91 c 0
 173 95.6666666667 173.666666667 103.333333333 175 114 c 1
 205 260 l 1
 472 400 l 1
 488.666666667 414 498.333333333 428.666666667 501 444 c 2
 520 533 l 2
 522.666666667 542.333333333 521.666666667 550.666666667 517 558 c 1
 511.666666667 563.333333333 504.333333333 566 495 566 c 2
 420 566 l 1
 412 534 l 1
 412.666666667 526.666666667 414.166666667 521.666666667 416.5 519 c 128
 418.833333333 516.333333333 422.333333333 515 427 515 c 2
 466 515 l 1
 441 394 l 1
 359 395 l 2
 328.333333333 395 304.666666667 405 288 425 c 1
 274 439 267 456 267 476 c 0
 267 479.333333333 267.666666667 485.666666667 269 495 c 2
 308 678 l 1
 539 678 l 2
 579.666666667 678 611.333333333 670.166666667 634 654.5 c 128
 656.666666667 638.833333333 668 618 668 592 c 1
 698.666666667 575.333333333 731.666666667 567 767 567 c 2
 800 567 l 1
 825 683 l 1
 830.333333333 712.333333333 845.333333333 736.666666667 870 756 c 1
 880.666666667 765.333333333 893.666666667 772.333333333 909 777 c 128
 924.333333333 781.666666667 939 784 953 784 c 2
 1024 784 l 2
 1057.33333333 784 1081.66666667 773 1097 751 c 1
 1107.66666667 734.333333333 1113 715.333333333 1113 694 c 0
 1113 690.666666667 1112.33333333 682.666666667 1111 670 c 1
 1089 564 l 2
 1085.66666667 547.333333333 1079.33333333 532.5 1070 519.5 c 128
 1060.66666667 506.5 1048.33333333 494.666666667 1033 484 c 1
 1006.33333333 460 975.333333333 448 940 448 c 2
 759 448 l 2
 715.666666667 448 676.333333333 455.333333333 641 470 c 1
 627 406 l 1
 621 375.333333333 605.666666667 353 581 339 c 1
 329 209 l 1
 315 141 l 1
 314.333333333 133 316.333333333 126.666666667 321 122 c 1
 323.666666667 114.666666667 330 111 340 111 c 2
 474 111 l 2
 482 111 492.333333333 115.666666667 505 125 c 1
 513.666666667 130.333333333 519.333333333 138.333333333 522 149 c 2
 533 203 l 1
 668 203 l 1
 660 161 l 2
 659.333333333 158.333333333 659 155.5 659 152.5 c 128
 659 148 659 148 659 147 c 0
 659 139 661.5 131.166666667 666.5 123.5 c 128
 671.5 115.833333333 677.666666667 112 685 112 c 2
 829 112 l 2
 838.333333333 112 848.833333333 116.5 860.5 125.5 c 128
 872.166666667 134.5 878.666666667 144 880 154 c 1
 898 242 l 1
 900.666666667 251.333333333 898.333333333 259.666666667 891 267 c 1
 881.666666667 273 871 276 859 276 c 2
 778 276 l 1
 801 389 l 1
 939 389 l 2
 963 389 982.666666667 385 998 377 c 1
 1015.33333333 366.333333333 1026.66666667 353.333333333 1032 338 c 1
 1038 326 1041 314.666666667 1041 304 c 0
 1041 300.666666667 1040.33333333 294.333333333 1039 285 c 2
 1006 117 l 2
971 597 m 1
 985 662 l 1
 986.333333333 672 982.333333333 677 973 677 c 2
 955 677 l 1
 940 673 l 2
 938.666666667 672.333333333 937.333333333 669 936 663 c 2
 915 565 l 1
 947 565 l 2
 950.333333333 565 954.333333333 567.5 959 572.5 c 128
 963.666666667 577.5 967.666666667 585.666666667 971 597 c 1
EndSplineSet
LCarets2: 1 0
EndChar

StartChar: ja.sub
Encoding: 149 -1 149
Width: 189
Flags: HW
AnchorPoint: "Sub" -430 -26 mark 0
AnchorPoint: "Sub" 310 -404 basemark 0
LayerCount: 2
Fore
SplineSet
359 -120 m 1
 353.666666667 -146 339.166666667 -168.333333333 315.5 -187 c 128
 291.833333333 -205.666666667 267 -215 241 -215 c 2
 26 -215 l 2
 -25.3333333333 -215 -77 -188.666666667 -129 -136 c 1
 -62 -65 l 1
 -40 -77.6666666667 -22 -88 -8 -96 c 0
 16.6666666667 -110.666666667 31.6666666667 -118 37 -118 c 2
 209 -118 l 2
 216.333333333 -118 222.666666667 -115.833333333 228 -111.5 c 128
 233.333333333 -107.166666667 236.333333333 -104.666666667 237 -104 c 128
 238 -103 238 -103 239 -102 c 2
 246 -65 l 2
 247.333333333 -57.6666666667 238.333333333 -45.3333333333 219 -28 c 1
 305 39 l 1
 347 8.33333333333 368 -21.3333333333 368 -50 c 0
 368 -56 367.666666667 -60.6666666667 367 -64 c 2
 359 -120 l 1
328 -302 m 2
 322.666666667 -330.666666667 308.333333333 -355 285 -375 c 1
 263 -398.333333333 237.666666667 -410 209 -410 c 2
 37 -410 l 2
 13.6666666667 -410 -8 -403 -28 -389 c 1
 -36 -381 -36 -381 -42 -375 c 128
 -46 -371 -48.6666666667 -365.333333333 -50 -358 c 1
 -82 -393.333333333 -117.333333333 -411 -156 -411 c 2
 -357 -411 l 2
 -386.333333333 -411 -411 -403.333333333 -431 -388 c 0
 -445.666666667 -377.333333333 -453 -362.666666667 -453 -344 c 0
 -453 -338 -452.666666667 -333.333333333 -452 -330 c 2
 -437 -262 l 2
 -431.666666667 -235.333333333 -419.333333333 -215 -400 -201 c 1
 -380.666666667 -184.333333333 -358 -176 -332 -176 c 2
 -261 -176 l 2
 -257.666666667 -176 -253.333333333 -174.333333333 -248 -171 c 1
 -241 -164 l 1
 -237 -148 l 1
 -245 -146 l 1
 -399 -146 l 1
 -377 -40 l 1
 -195 -40 l 2
 -168.333333333 -40 -146 -47.3333333333 -128 -62 c 1
 -112.666666667 -81.3333333333 -106.666666667 -101 -110 -121 c 1
 -128 -203 l 1
 -131.333333333 -221.666666667 -144.166666667 -238.166666667 -166.5 -252.5 c 128
 -188.833333333 -266.833333333 -210.666666667 -274 -232 -274 c 2
 -303 -274 l 2
 -315 -274 -321.333333333 -275.666666667 -322 -279 c 2
 -327 -305 l 1
 -325 -310 l 1
 -321.666666667 -313.333333333 -317.333333333 -315 -312 -315 c 2
 -156 -315 l 2
 -146.666666667 -315 -133.666666667 -310 -117 -300 c 1
 -104.333333333 -290 -96.6666666667 -278.666666667 -94 -266 c 2
 -86 -226 l 1
 37 -226 l 1
 29 -266 l 2
 26.3333333333 -278.666666667 29 -289.666666667 37 -299 c 1
 49.6666666667 -309.666666667 61.3333333333 -315 72 -315 c 2
 188 -315 l 1
 194 -311.666666667 198.333333333 -309.333333333 201 -308 c 128
 203.666666667 -306.666666667 205.166666667 -305.333333333 205.5 -304 c 128
 205.833333333 -302.666666667 206 -301.666666667 206 -301 c 2
 221 -226 l 1
 342 -226 l 1
 328 -302 l 2
EndSplineSet
LCarets2: 1 0
EndChar

StartChar: jha.sub
Encoding: 154 -1 154
Width: 207
Flags: HW
AnchorPoint: "Sub" -428 -32 mark 0
AnchorPoint: "Sub" 339 -376 basemark 0
LayerCount: 2
Fore
SplineSet
373 -261 m 1
 365.666666667 -295 347.333333333 -323 318 -345 c 1
 290 -369 258.333333333 -381 223 -381 c 2
 124 -381 l 2
 100.666666667 -381 84.3333333333 -372.333333333 75 -355 c 1
 53 -372.333333333 27.6666666667 -381 -1 -381 c 2
 -87 -381 l 2
 -108.333333333 -381 -125.666666667 -374 -139 -360 c 1
 -162.333333333 -374 -186 -381 -210 -381 c 2
 -366 -381 l 2
 -406 -381 -435.333333333 -369 -454 -345 c 1
 -468.666666667 -329.666666667 -476 -310 -476 -286 c 0
 -476 -280.666666667 -475.333333333 -272.666666667 -474 -262 c 1
 -448 -142 l 1
 -442.666666667 -110.666666667 -423.666666667 -84.3333333333 -391 -63 c 128
 -358.333333333 -41.6666666667 -323.333333333 -31 -286 -31 c 2
 -156 -31 l 2
 -118.666666667 -31 -89.3333333333 -42 -68 -64 c 0
 -50 -82.6666666667 -41 -102.666666667 -41 -124 c 0
 -41 -128.666666667 -41.6666666667 -136.333333333 -43 -147 c 1
 -66 -257 l 1
 -66.6666666667 -265 -63.8333333333 -271.666666667 -57.5 -277 c 128
 -51.1666666667 -282.333333333 -45.3333333333 -285 -40 -285 c 2
 2 -285 l 2
 6.66666666667 -285 10.3333333333 -284.166666667 13 -282.5 c 128
 15.6666666667 -280.833333333 17.3333333333 -279.666666667 18 -279 c 0
 24 -275.666666667 27.6666666667 -270 29 -262 c 2
 51 -160 l 1
 52.3333333333 -149.333333333 49.1666666667 -139.166666667 41.5 -129.5 c 128
 33.8333333333 -119.833333333 14.3333333333 -111 -17 -103 c 1
 82 -31 l 1
 115.333333333 -41 140.666666667 -57.3333333333 158 -80 c 1
 160.666666667 -85.3333333333 164.333333333 -93.5 169 -104.5 c 128
 173.666666667 -115.5 176 -127 176 -139 c 0
 176 -145 175.666666667 -149.666666667 175 -153 c 2
 150 -269 l 2
 150 -270.333333333 150.333333333 -273.666666667 151 -279 c 1
 155.666666667 -280.333333333 158.333333333 -281.166666667 159 -281.5 c 128
 159.666666667 -281.833333333 160.333333333 -282.333333333 161 -283 c 1
 212 -283 l 2
 219.333333333 -283 227.833333333 -280 237.5 -274 c 128
 247.166666667 -268 252.333333333 -261.333333333 253 -254 c 1
 271 -165 l 1
 272.333333333 -151 267.666666667 -138 257 -126 c 1
 249 -114 226.333333333 -103 189 -93 c 1
 284 -26 l 1
 304 -31.3333333333 320.5 -38.1666666667 333.5 -46.5 c 128
 346.5 -54.8333333333 359 -65 371 -77 c 1
 386.333333333 -95.6666666667 394 -115 394 -135 c 0
 394 -141 393.666666667 -145.666666667 393 -149 c 2
 373 -261 l 1
119 -405 m 1
 -4 -405 l 1
 1 -375 l 1
 72 -346 l 1
 123 -375 l 1
 119 -405 l 1
-192 -247 m 2
 -174 -163 l 1
 -172.666666667 -151 -176.666666667 -141.333333333 -186 -134 c 1
 -192 -126.666666667 -201 -123 -213 -123 c 2
 -294 -123 l 2
 -306.666666667 -123 -316 -126 -322 -132 c 1
 -330 -137.333333333 -334.666666667 -145 -336 -155 c 1
 -355 -246 l 1
 -357.666666667 -254 -354.666666667 -261.833333333 -346 -269.5 c 128
 -337.333333333 -277.166666667 -328 -281 -318 -281 c 2
 -240 -281 l 2
 -232.666666667 -281 -222.666666667 -277.333333333 -210 -270 c 1
 -200 -262.666666667 -194 -255 -192 -247 c 2
EndSplineSet
LCarets2: 1 0
EndChar

StartChar: jha.part
Encoding: 155 -1 155
Width: 431
Flags: HW
LayerCount: 2
Fore
SplineSet
499 134 m 2
 495.666666667 116 489.833333333 100 481.5 86 c 128
 473.166666667 72 460.666666667 56.3333333333 444 39 c 1
 410.666666667 11 377.333333333 -3 344 -3 c 2
 172 -3 l 2
 115.333333333 -3 68 33.3333333333 30 106 c 1
 63 261 l 1
 82 265 l 1
 94 219 115.333333333 181.833333333 146 153.5 c 128
 176.666666667 125.166666667 207.333333333 111 238 111 c 2
 301 111 l 2
 317.666666667 111 331.333333333 116.333333333 342 127 c 1
 356.666666667 139 365.333333333 152.333333333 368 167 c 2
 443 522 l 1
 444.333333333 532.666666667 441.833333333 543 435.5 553 c 128
 429.166666667 563 419.666666667 568 407 568 c 2
 267 568 l 1
 290 681 l 1
 465 681 l 2
 505 681 537 665.666666667 561 635 c 1
 575.666666667 613.666666667 583 588.333333333 583 559 c 0
 583 547 581.666666667 534.666666667 579 522 c 2
 499 134 l 2
428 -191 m 1
 291 -191 l 1
 323 -37 l 1
 460 -37 l 1
 428 -191 l 1
EndSplineSet
EndChar

StartChar: nya
Encoding: 157 3230 157
Width: 1159
Flags: HW
LayerCount: 2
Fore
SplineSet
1309 482 m 2
 1306.33333333 467.333333333 1301.83333333 454.5 1295.5 443.5 c 128
 1289.16666667 432.5 1279.66666667 420 1267 406 c 1
 1241 382.666666667 1215 371 1189 371 c 2
 1107 371 l 1
 1132 484 l 1
 1157 484 l 2
 1167.66666667 484 1175.33333333 494 1180 514 c 2
 1188 553 l 1
 1189.33333333 563 1179.33333333 568 1158 568 c 2
 1108 568 l 2
 1091.33333333 568 1077 562.666666667 1065 552 c 128
 1053 541.333333333 1045.66666667 528.666666667 1043 514 c 2
 1013 369 l 2
 1007 339.666666667 995.833333333 312.5 979.5 287.5 c 128
 963.166666667 262.5 940.333333333 238.333333333 911 215 c 1
 896 145 l 1
 895.333333333 137.666666667 896.666666667 131 900 125 c 1
 905.333333333 119 911.666666667 116 919 116 c 2
 975 116 l 1
 952 3 l 1
 854 4 l 2
 820 4 793.333333333 15 774 37 c 0
 760 53.6666666667 753 72 753 92 c 0
 753 97.3333333333 753.666666667 105.333333333 755 116 c 1
 766 172 l 1
 663 172 l 2
 632.333333333 172 608.666666667 182 592 202 c 1
 579.333333333 214.666666667 573 230.666666667 573 250 c 0
 573 257.333333333 573.333333333 263.333333333 574 268 c 2
 589 339 l 2
 593.666666667 361 607.166666667 379.166666667 629.5 393.5 c 128
 651.833333333 407.833333333 677.333333333 415 706 415 c 2
 829 415 l 2
 844.333333333 415 858 409 870 397 c 1
 882 383 l 1
 912 532 l 2
 914.666666667 542 911.666666667 550 903 556 c 128
 894.333333333 562 881.666666667 565 865 565 c 2
 802 565 l 2
 789.333333333 565 780.5 564.333333333 775.5 563 c 128
 770.5 561.666666667 763 557.833333333 753 551.5 c 128
 743 545.166666667 736.666666667 536 734 524 c 2
 718 447 l 1
 583 447 l 1
 598 519 l 2
 600.666666667 529.666666667 597.666666667 539.833333333 589 549.5 c 128
 580.333333333 559.166666667 566.333333333 564 547 564 c 2
 454 564 l 2
 446 564 440 562.5 436 559.5 c 128
 432 556.5 428.333333333 549 425 537 c 1
 411 472 l 2
 409.666666667 462.666666667 411.333333333 455.333333333 416 450 c 1
 417.333333333 444.666666667 421.666666667 442 429 442 c 2
 476 442 l 1
 448 315 l 1
 357 316 l 2
 324.333333333 316 299.666666667 328 283 352 c 1
 271 370.666666667 265 390 265 410 c 0
 265 422 265.666666667 431 267 437 c 2
 293 563 l 2
 296.333333333 579.666666667 301.833333333 594.5 309.5 607.5 c 128
 317.166666667 620.5 328.666666667 632.333333333 344 643 c 1
 368.666666667 665 397.666666667 676 431 676 c 2
 597 676 l 2
 625 676 648.333333333 669 667 655 c 0
 677.666666667 647.666666667 684.666666667 638 688 626 c 1
 694 633.333333333 699.666666667 639.333333333 705 644 c 128
 710.333333333 648.666666667 716.666666667 652.333333333 724 655 c 1
 745.333333333 669 768.333333333 676 793 676 c 2
 928 676 l 2
 950 676 967.333333333 670 980 658 c 1
 989.333333333 652 996.666666667 642.666666667 1002 630 c 1
 1014.66666667 644.666666667 1027 654.333333333 1039 659 c 1
 1057.66666667 671 1080 677 1106 677 c 2
 1240 677 l 2
 1268.66666667 677 1291.33333333 667 1308 647 c 0
 1320 632.333333333 1326 615 1326 595 c 0
 1326 590.333333333 1325.33333333 582.666666667 1324 572 c 2
 1309 482 l 2
783 292 m 1
 775 296 l 2
 769.666666667 299.333333333 760 301 746 301 c 2
 703 301 l 2
 700.333333333 301 698.333333333 302.666666667 697 306 c 1
 695 292 l 1
 699 288 l 2
 703.666666667 283.333333333 708.333333333 281 713 281 c 2
 757 281 l 2
 760.333333333 281 769 284.666666667 783 292 c 1
EndSplineSet
LCarets2: 1 0
EndChar

StartChar: nya.sub
Encoding: 158 -1 158
Width: 235
Flags: HW
AnchorPoint: "Sub" -445 -11 mark 0
AnchorPoint: "Sub" 333 -354 basemark 0
LayerCount: 2
Fore
SplineSet
394 -218 m 2
 391.333333333 -230 386.833333333 -240.833333333 380.5 -250.5 c 128
 374.166666667 -260.166666667 365.666666667 -270.333333333 355 -281 c 1
 333 -300.333333333 310.333333333 -310 287 -310 c 2
 215 -310 l 1
 233 -219 l 1
 272 -219 l 1
 279 -218 l 1
 287 -204 l 1
 302 -129 l 1
 303.333333333 -118.333333333 304 -112.666666667 304 -112 c 0
 304 -106 301.333333333 -103 296 -103 c 2
 219 -103 l 2
 211 -103 204 -105.666666667 198 -111 c 128
 192 -116.333333333 185.333333333 -125.333333333 178 -138 c 1
 155 -256 l 2
 149.666666667 -284.666666667 130.5 -308.666666667 97.5 -328 c 128
 64.5 -347.333333333 33.6666666667 -357 5 -357 c 1
 5.66666666667 -353.666666667 6.66666666667 -352 8 -352 c 1
 9 -353 l 2
 10.3333333333 -354.333333333 11.6666666667 -355.333333333 13 -356 c 128
 14.3333333333 -356.666666667 15.3333333333 -357.333333333 16 -358 c 1
 67 -358 l 1
 51 -436 l 1
 -26 -436 l 2
 -46 -436 -64.3333333333 -429 -81 -415 c 1
 -91.6666666667 -407 -97 -396 -97 -382 c 0
 -97 -376 -96.6666666667 -371.333333333 -96 -368 c 2
 -95 -357 l 1
 -132 -357 l 2
 -152 -357 -168.5 -351.5 -181.5 -340.5 c 128
 -194.5 -329.5 -199.666666667 -316.333333333 -197 -301 c 2
 -186 -247 l 1
 -181.333333333 -227.666666667 -171.666666667 -212.666666667 -157 -202 c 1
 -139.666666667 -192.666666667 -120.333333333 -188 -99 -188 c 2
 -35 -188 l 2
 -15 -188 1 -192.666666667 13 -202 c 1
 25 -216 29.3333333333 -231.333333333 26 -248 c 2
 22 -268 l 1
 34.6666666667 -265.333333333 41.3333333333 -261 42 -255 c 2
 71 -118 l 2
 71 -116.666666667 68.8333333333 -114 64.5 -110 c 128
 60.1666666667 -106 49.6666666667 -104 33 -104 c 2
 -72 -104 l 2
 -84.6666666667 -104 -96 -106.666666667 -106 -112 c 1
 -116 -120 -122.333333333 -128.666666667 -125 -138 c 1
 -130 -166 l 1
 -240 -166 l 1
 -233 -131 l 1
 -230.333333333 -121.666666667 -232.666666667 -114.666666667 -240 -110 c 128
 -247.333333333 -105.333333333 -257 -103 -269 -103 c 2
 -325 -103 l 1
 -336 -107 l 1
 -340.666666667 -111.666666667 -343.333333333 -117.666666667 -344 -125 c 1
 -359 -200 l 1
 -356.333333333 -203.333333333 -352.666666667 -206.166666667 -348 -208.5 c 128
 -343.333333333 -210.833333333 -338 -212.166666667 -332 -212.5 c 128
 -326 -212.833333333 -320 -213 -314 -213 c 1
 -333 -311 l 1
 -365.666666667 -311 -393 -306 -415 -296 c 1
 -427 -288.666666667 -435.666666667 -283.333333333 -441 -280 c 0
 -449 -274 -456 -265.666666667 -462 -255 c 128
 -468 -244.333333333 -471 -233 -471 -221 c 0
 -471 -214 -471 -214 -471 -209 c 1
 -469.666666667 -205.666666667 -469 -203.666666667 -469 -203 c 2
 -450 -105 l 2
 -444.666666667 -79 -432 -57 -412 -39 c 1
 -390 -22.3333333333 -366.666666667 -14 -342 -14 c 2
 -230 -14 l 2
 -208.666666667 -14 -190.333333333 -20 -175 -32 c 1
 -169.666666667 -37.3333333333 -164.666666667 -45.3333333333 -160 -56 c 1
 -152.666666667 -46 -144 -37.3333333333 -134 -30 c 1
 -116 -19.3333333333 -100 -14 -86 -14 c 2
 90 -14 l 2
 124 -14 147.333333333 -23.3333333333 160 -42 c 1
 184 -23.3333333333 207.666666667 -14 231 -14 c 2
 347 -14 l 2
 371 -14 390 -22.3333333333 404 -39 c 0
 414 -51.6666666667 419 -66.6666666667 419 -84 c 0
 419 -90 418.666666667 -94.3333333333 418 -97 c 2
 394 -218 l 2
-80 -272 m 1
 -78 -260 l 1
 -83 -259 -83 -259 -88 -258 c 0
 -90 -258 -90 -258 -95 -258 c 1
 -99 -281 l 1
 -94.3333333333 -281.666666667 -90.3333333333 -282.333333333 -87 -283 c 1
 -81.6666666667 -277.666666667 -79.3333333333 -274 -80 -272 c 1
EndSplineSet
LCarets2: 1 0
EndChar

StartChar: tta
Encoding: 159 3231 159
Width: 921
Flags: HW
LayerCount: 2
Fore
SplineSet
992 117 m 2
 986 85.6666666667 970 58.3333333333 944 35 c 128
 918 11.6666666667 888.666666667 0 856 0 c 2
 681 0 l 2
 656.333333333 0 634.333333333 8.66666666667 615 26 c 1
 603 34.6666666667 595.333333333 46.3333333333 592 61 c 1
 584.666666667 52.3333333333 578.5 45.5 573.5 40.5 c 128
 568.5 35.5 562.333333333 31 555 27 c 1
 530.333333333 9.66666666667 504.666666667 1 478 1 c 2
 330 1 l 2
 292.666666667 1 262.666666667 13.3333333333 240 38 c 0
 224.666666667 54.6666666667 217 75.3333333333 217 100 c 0
 217 105.333333333 217.666666667 113.333333333 219 124 c 1
 273 381 l 2
 278.333333333 407.666666667 304.333333333 434 351 460 c 1
 315.666666667 486.666666667 300.666666667 511.666666667 306 535 c 2
 331 654 l 2
 338.333333333 689.333333333 356.833333333 718.333333333 386.5 741 c 128
 416.166666667 763.666666667 449 775 485 775 c 2
 603 775 l 1
 580 661 l 1
 489 661 l 2
 481 661 475.166666667 659.5 471.5 656.5 c 128
 467.833333333 653.5 465.333333333 649.333333333 464 644 c 2
 445 553 l 1
 444.333333333 545.666666667 445.833333333 537.666666667 449.5 529 c 128
 453.166666667 520.333333333 459.666666667 514.333333333 469 511 c 1
 637 511 l 1
 601 350 l 2
 593 314.666666667 575.666666667 286 549 264 c 1
 521 239.333333333 490.333333333 227 457 227 c 2
 385 227 l 1
 408 338 l 1
 452 338 l 1
 461 342 l 1
 463.666666667 344.666666667 465.333333333 347.166666667 466 349.5 c 128
 466.666666667 351.833333333 467.333333333 353.666666667 468 355 c 2
 477 397 l 1
 431 397 l 1
 416.333333333 391 407.666666667 382 405 370 c 2
 359 152 l 2
 356.333333333 141.333333333 357.666666667 133 363 127 c 1
 367.666666667 119 373.666666667 115 381 115 c 2
 473 115 l 2
 481 115 489.166666667 116.333333333 497.5 119 c 128
 505.833333333 121.666666667 513.666666667 125.5 521 130.5 c 128
 528.333333333 135.5 535 141.833333333 541 149.5 c 128
 547 157.166666667 551.333333333 164.666666667 554 172 c 1
 566 233 l 1
 703 233 l 1
 689 172 l 1
 689 153.333333333 694 139.333333333 704 130 c 0
 708.666666667 125.333333333 713.666666667 121.5 719 118.5 c 128
 724.333333333 115.5 729.666666667 114 735 114 c 2
 842 114 l 2
 846.666666667 114 853.333333333 118.833333333 862 128.5 c 128
 870.666666667 138.166666667 875.666666667 147.666666667 877 157 c 2
 910 317 l 1
 912.666666667 325 911.5 331.5 906.5 336.5 c 128
 901.5 341.5 894.333333333 344 885 344 c 2
 789 344 l 1
 812 457 l 1
 879 457 l 2
 885 457 890.666666667 458.333333333 896 461 c 128
 901.333333333 463.666666667 906.333333333 467.333333333 911 472 c 1
 923.666666667 480 930.666666667 489 932 499 c 1
 960 627 l 2
 960.666666667 630.333333333 958.666666667 636 954 644 c 1
 950.666666667 645.333333333 943 646 931 646 c 2
 850 646 l 1
 873 759 l 1
 1011 759 l 2
 1042.33333333 759 1063 748.333333333 1073 727 c 1
 1077.66666667 719.666666667 1081.33333333 711.666666667 1084 703 c 128
 1086.66666667 694.333333333 1088 685 1088 675 c 0
 1088 665.666666667 1086.66666667 655.666666667 1084 645 c 2
 1049 482 l 2
 1044.33333333 460.666666667 1033.66666667 443 1017 429 c 1
 991 410 l 1
 1001.66666667 406.666666667 1010 399.666666667 1016 389 c 1
 1025.33333333 377 1030 361.666666667 1030 343 c 0
 1030 339.666666667 1029.33333333 333.333333333 1028 324 c 2
 992 117 l 2
EndSplineSet
LCarets2: 1 0
EndChar

